ply
format ascii 1.0
element vertex 2500
property float x
property float y
property float z
property uchar red
property uchar green
property uchar blue
end_header
-0.125664 -1.53894e-17 99.9999 0 255 0
-0.2447 -0.0287003 99.9832 0 255 0
-0.370162 -0.0884744 99.9776 0 255 0
-0.478226 -0.175864 99.9885 0 255 0
-0.56488 -0.291548 99.975 0 255 0
-0.624303 -0.425521 99.9516 0 255 0
-0.660524 -0.576074 99.933 0 255 0
-0.659218 -0.741865 99.9144 0 255 0
-0.615012 -0.927527 99.8896 0 255 0
-0.572042 -1.09602 99.8731 0 255 0
-0.477421 -1.27024 99.8529 0 255 0
-0.335822 -1.42624 99.8136 0 255 0
-0.156499 -1.5759 99.7799 0 255 0
0.0760951 -1.69507 99.7648 0 255 0
0.315749 -1.79095 99.7277 0 255 0
0.573038 -1.85901 99.6938 0 255 0
0.875916 -1.86805 99.6692 0 255 0
1.18602 -1.84023 99.6736 0 255 0
1.50903 -1.7606 99.6676 0 255 0
1.82804 -1.63375 99.677 0 255 0
2.12995 -1.46549 99.6911 0 255 0
2.41146 -1.24513 99.7218 0 255 0
2.69106 -0.971614 99.7322 0 255 0
2.91986 -0.661449 99.7543 0 255 0
3.10992 -0.307005 99.7767 0 255 0
3.26337 0.0797371 99.8203 0 255 0
3.35565 0.513718 99.8571 0 255 0
3.37696 0.963702 99.9015 0 255 0
3.36114 1.43427 99.9529 0 255 0
3.27271 1.91084 99.9821 0 255 0
3.13139 2.37392 100.025 0 255 0
2.90571 2.8161 100.067 0 255 0
2.62683 3.25073 100.101 0 255 0
2.269 3.65585 100.15 0 255 0
1.85369 4.01858 100.171 0 255 0
1.37186 4.32706 100.216 0 255 0
0.843522 4.59445 100.251 0 255 0
0.265878 4.78938 100.265 0 255 0
-0.345546 4.90638 100.275 0 255 0
-1.00468 4.94933 100.291 0 255 0
-1.62557 4.91408 100.294 0 255 0
-2.25701 4.77722 100.284 0 255 0
-2.90473 4.55402 100.269 0 255 0
-3.5389 4.25374 100.235 0 255 0
-4.13851 3.8527 100.18 0 255 0
-4.69121 3.37265 100.134 0 255 0
-5.18892 2.82524 100.072 0 255 0
-5.61118 2.20343 99.9977 0 255 0
-5.96495 1.50888 99.9232 0 255 0
-6.23596 0.772517 99.8418 0 255 0
-6.40456 0.00796375 99.7982 0 255 0
-6.47607 -0.817038 99.7543 0 255 0
-6.44672 -1.66103 99.674 0 255 0
-6.30323 -2.49429 99.5895 0 255 0
-6.03919 -3.31587 99.4868 0 255 0
-5.6772 -4.11079 99.3835 0 255 0
-5.20178 -4.86652 99.2843 0 255 0
-4.61586 -5.56976 99.1876 0 255 0
-3.9405 -6.20183 99.1015 0 255 0
-3.18165 -6.7488 99.0196 0 255 0
-2.33774 -7.20184 98.9395 0 255 0
-1.43357 -7.5404 98.8652 0 255 0
-0.464244 -7.77201 98.8108 0 255 0
0.543467 -7.88651 98.7716 0 255 0
1.57451 -7.87719 98.7424 0 255 0
2.59492 -7.72783 98.7215 0 255 0
3.60918 -7.44373 98.7195 0 255 0
4.60541 -7.02756 98.7285 0 255 0
5.54888 -6.49247 98.7601 0 255 0
6.42843 -5.82688 98.8165 0 255 0
7.22421 -5.04429 98.8829 0 255 0
7.93309 -4.15388 98.9561 0 255 0
8.52775 -3.18039 99.0406 0 255 0
8.99224 -2.12186 99.1295 0 255 0
9.32612 -0.992094 99.2371 0 255 0
9.5251 0.186959 99.347 0 255 0
9.56365 1.3907 99.4651 0 255 0
9.4469 2.6158 99.5838 0 255 0
9.1693 3.81664 99.7067 0 255 0
8.74606 4.99049 99.8165 0 255 0
8.16549 6.1184 99.9234 0 255 0
7.43588 7.17632 100.03 0 255 0
6.56168 8.13512 100.123 0 255 0
5.56911 9.00651 100.209 0 255 0
4.45065 9.73807 100.291 0 255 0
3.24703 10.3248 100.356 0 255 0
1.94294 10.7735 100.406 0 255 0
0.590406 11.06 100.436 0 255 0
-0.798405 11.1726 100.449 0 255 0
-2.21962 11.1055 100.455 0 255 0
-3.62432 10.861 100.441 0 255 0
-4.99702 10.4246 100.394 0 255 0
-6.33752 9.82787 100.332 0 255 0
-7.58541 9.04896 100.261 0 255 0
-8.74172 8.12235 100.15 0 255 0
-9.79048 7.04494 100.031 0 255 0
-10.7001 5.8309 99.8888 0 255 0
-11.4493 4.50528 99.7212 0 255 0
-12.0344 3.08327 99.5673 0 255 0
-12.449 1.56752 99.4182 0 255 0
-12.6713 -0.00735837 99.2738 0 255 0
-12.6858 -1.60172 99.1265 0 255 0
-12.4962 -3.19879 98.9727 0 255 0
-12.1032 -4.77459 98.8041 0 255 0
-11.5064 -6.2938 98.6134 0 255 0
-10.7147 -7.74117 98.4269 0 255 0
-9.7311 -9.08411 98.245 0 255 0
-8.56999 -10.3243 98.0743 0 255 0
-7.25646 -11.4043 97.9106 0 255 0
-5.79467 -12.3177 97.7669 0 255 0
-4.22358 -13.0536 97.6458 0 255 0
-2.55806 -13.5816 97.5323 0 255 0
-0.803046 -13.8955 97.4534 0 255 0
0.992952 -14.0028 97.3918 0 255 0
2.78397 -13.8791 97.3486 0 255 0
4.58444 -13.5215 97.3273 0 255 0
6.32772 -12.9501 97.3402 0 255 0
7.99271 -12.1541 97.3726 0 255 0
9.56728 -11.147 97.4527 0 255 0
11.0096 -9.94433 97.5506 0 255 0
12.2892 -8.55854 97.6745 0 255 0
13.409 -7.00954 97.8057 0 255 0
14.3334 -5.32482 97.9549 0 255 0
15.0334 -3.52168 98.1094 0 255 0
15.5121 -1.62499 98.2806 0 255 0
15.7463 0.330404 98.4841 0 255 0
15.7335 2.31785 98.6803 0 255 0
15.4557 4.29821 98.862 0 255 0
14.9278 6.24054 99.0549 0 255 0
14.1643 8.12577 99.2408 0 255 0
13.1545 9.90223 99.4143 0 255 0
11.9221 11.5374 99.5884 0 255 0
10.481 13.0386 99.7487 0 255 0
8.85015 14.3492 99.9028 0 255 0
7.04261 15.4545 100.027 0 255 0
5.09164 16.3277 100.118 0 255 0
3.03835 16.9576 100.192 0 255 0
0.917646 17.3361 100.23 0 255 0
-1.26179 17.4356 100.248 0 255 0
-3.44909 17.2636 100.237 0 255 0
-5.6076 16.8097 100.193 0 255 0
-7.70134 16.0915 100.124 0 255 0
-9.71496 15.1064 100.02 0 255 0
-11.5921 13.8753 99.8922 0 255 0
-13.3271 12.4039 99.7307 0 255 0
-14.8584 10.7189 99.5443 0 255 0
-16.1823 8.84964 99.3369 0 255 0
-17.2642 6.81963 99.1015 0 255 0
-18.0847 4.64999 98.8646 0 255 0
-18.6283 2.37985 98.6232 0 255 0
-18.8871 0.0335538 98.378 0 255 0
-18.8474 -2.32926 98.1441 0 255 0
-18.5058 -4.68214 97.8855 0 255 0
-17.8607 -6.98672 97.6155 0 255 0
-16.9246 -9.20207 97.3383 0 255 0
-15.7114 -11.3037 97.0829 0 255 0
-14.224 -13.2404 96.8299 0 255 0
-12.4907 -14.9942 96.5766 0 255 0
-10.5374 -16.5244 96.3458 0 255 0
-8.38686 -17.8088 96.149 0 255 0
-6.10493 -18.8153 95.9782 0 255 0
-3.66428 -19.5199 95.8261 0 255 0
-1.14689 -19.9303 95.7021 0 255 0
1.41158 -20.0054 95.6133 0 255 0
3.97829 -19.7876 95.5609 0 255 0
6.52242 -19.2308 95.5576 0 255 0
8.98211 -18.3761 95.5903 0 255 0
11.3256 -17.191 95.656 0 255 0
13.515 -15.7309 95.7673 0 255 0
15.5277 -13.9722 95.9035 0 255 0
17.3025 -11.9907 96.0741 0 255 0
18.8285 -9.78964 96.2686 0 255 0
20.0698 -7.3935 96.4799 0 255 0
21.0115 -4.85428 96.7042 0 255 0
21.6221 -2.21282 96.9498 0 255 0
21.8993 0.511933 97.2202 0 255 0
21.821 3.27529 97.4816 0 255 0
21.4014 6.01491 97.7503 0 255 0
20.6325 8.69145 98.0295 0 255 0
19.5208 11.2548 98.2772 0 255 0
18.0996 13.6724 98.5243 0 255 0
16.3584 15.9121 98.7614 0 255 0
14.3486 17.9322 98.9862 0 255 0
12.0775 19.6904 99.1943 0 255 0
9.60727 21.1445 99.3584 0 255 0
6.94218 22.3021 99.4774 0 255 0
4.14637 23.1077 99.5723 0 255 0
1.23455 23.5664 99.6354 0 255 0
-1.7049 23.6684 99.6542 0 255 0
-4.65359 23.3928 99.6259 0 255 0
-7.56684 22.7352 99.5572 0 255 0
-10.3834 21.7338 99.4604 0 255 0
-13.0692 20.3686 99.3116 0 255 0
-15.5706 18.6855 99.1403 0 255 0
-17.8504 16.6844 98.9219 0 255 0
-19.8804 14.4066 98.6958 0 255 0
-21.5966 11.8752 98.4044 0 255 0
-23.009 9.14545 98.098 0 255 0
-24.0609 6.24074 97.7711 0 255 0
-24.7467 3.22619 97.4393 0 255 0
-25.0374 0.119999 97.1007 0 255 0
-24.939 -3.00645 96.7571 0 255 0
-24.4457 -6.10437 96.4015 0 255 0
-23.5625 -9.13109 96.0506 0 255 0
-22.2913 -12.0313 95.6943 0 255 0
-20.6559 -14.7696 95.3434 0 255 0
-18.6651 -17.2941 95.0019 0 255 0
-16.3701 -19.5596 94.6914 0 255 0
-13.7972 -21.5307 94.399 0 255 0
-10.9704 -23.1736 94.1485 0 255 0
-7.95237 -24.456 93.9288 0 255 0
-4.77811 -25.3409 93.7343 0 255 0
-1.50315 -25.8295 93.5853 0 255 0
1.82739 -25.9005 93.4722 0 255 0
5.15584 -25.5643 93.4191 0 255 0
8.43263 -24.8176 93.4258 0 255 0
11.6047 -23.6665 93.4678 0 255 0
14.6064 -22.1152 93.557 0 255 0
17.4217 -20.1917 93.6893 0 255 0
19.9791 -17.92 93.8748 0 255 0
22.242 -15.3418 94.0919 0 255 0
24.1709 -12.491 94.3461 0 255 0
25.7357 -9.40637 94.6248 0 255 0
26.8932 -6.1382 94.913 0 255 0
27.6433 -2.7341 95.249 0 255 0
27.9513 0.751663 95.5718 0 255 0
27.8205 4.26251 95.9106 0 255 0
27.2512 7.7417 96.2562 0 255 0
26.2344 11.1393 96.5999 0 255 0
24.7992 14.3943 96.9307 0 255 0
22.9543 17.4469 97.2456 0 255 0
20.7346 20.2581 97.5538 0 255 0
18.1583 22.794 97.8307 0 255 0
15.2719 24.9877 98.0772 0 255 0
12.1153 26.8138 98.2724 0 255 0
8.74024 28.2295 98.4336 0 255 0
5.19421 29.2186 98.5552 0 255 0
1.54862 29.7678 98.6288 0 255 0
-2.16148 29.8531 98.6559 0 255 0
-5.859 29.4722 98.6319 0 255 0
-9.51115 28.6236 98.5436 0 255 0
-13.0297 27.3278 98.425 0 255 0
-16.3808 25.601 98.2496 0 255 0
-19.5001 23.4489 98.02 0 255 0
-22.3286 20.9319 97.7509 0 255 0
-24.8226 18.0682 97.4551 0 255 0
-26.9466 14.9059 97.1015 0 255 0
-28.668 11.4898 96.7192 0 255 0
-29.95 7.86785 96.3205 0 255 0
-30.7727 4.09697 95.8968 0 255 0
-31.1035 0.253087 95.4612 0 255 0
-30.9543 -3.63221 95.0263 0 255 0
-30.3017 -7.46116 94.5735 0 255 0
-29.1723 -11.2017 94.1116 0 255 0
-27.568 -14.7887 93.6692 0 255 0
-25.5196 -18.1466 93.2332 0 255 0
-23.0361 -21.2394 92.8126 0 255 0
-20.1917 -24.0027 92.4235 0 255 0
-16.9989 -26.4097 92.0761 0 255 0
-13.5183 -28.402 91.7655 0 255 0
-9.78912 -29.9458 91.4889 0 255 0
-5.89191 -31.0136 91.2582 0 255 0
-1.86395 -31.5948 91.1053 0 255 0
2.21751 -31.6651 90.988 0 255 0
6.29637 -31.2169 90.9178 0 255 0
10.3021 -30.2712 90.9291 0 255 0
14.1723 -28.827 90.9837 0 255 0
17.8402 -26.9041 91.0967 0 255 0
21.2533 -24.5392 91.2708 0 255 0
24.3499 -21.7559 91.49 0 255 0
27.0842 -18.583 91.7552 0 255 0
29.4106 -15.0979 92.0556 0 255 0
31.2825 -11.3309 92.3895 0 255 0
32.6657 -7.34533 92.7563 0 255 0
33.5509 -3.20774 93.1413 0 255 0
33.8872 1.02477 93.5358 0 255 0
33.7003 5.28139 93.9476 0 255 0
32.9769 9.48301 94.3602 0 255 0
31.7351 13.5852 94.7817 0 255 0
29.9639 17.5103 95.1883 0 255 0
27.7142 21.1929 95.5807 0 255 0
25.0152 24.5842 95.9587 0 255 0
21.8962 27.6049 96.2826 0 255 0
18.3895 30.2381 96.577 0 255 0
14.5755 32.413 96.8227 0 255 0
10.5013 34.0959 97.014 0 255 0
6.23645 35.2656 97.1555 0 255 0
1.8359 35.8851 97.2478 0 255 0
-2.62107 35.9606 97.2834 0 255 0
-7.06138 35.4807 97.2346 0 255 0
-11.4282 34.4429 97.1443 0 255 0
-15.6358 32.8741 97.0053 0 255 0
-19.6292 30.7751 96.7844 0 255 0
-23.3386 28.1775 96.5074 0 255 0
-26.7154 25.147 96.1834 0 255 0
-29.6837 21.7033 95.8138 0 255 0
-32.1991 17.9119 95.4144 0 255 0
-34.2285 13.8289 94.9628 0 255 0
-35.7304 9.49428 94.4779 0 255 0
-36.6777 5.0061 93.9736 0 255 0
-37.048 0.419473 93.4461 0 255 0
-36.8391 -4.19168 92.9114 0 255 0
-36.0424 -8.74583 92.3529 0 255 0
-34.6681 -13.1866 91.8069 0 255 0
-32.7431 -17.4333 91.2721 0 255 0
-30.2785 -21.4102 90.7592 0 255 0
-27.3319 -25.0638 90.2834 0 255 0
-23.9406 -28.3279 89.8269 0 255 0
-20.1409 -31.1509 89.4038 0 255 0
-16.0095 -33.4782 89.0331 0 255 0
-11.5927 -35.2848 88.7251 0 255 0
-6.97314 -36.541 88.4732 0 255 0
-2.22485 -37.1966 88.2745 0 255 0
2.60196 -37.2441 88.1261 0 255 0
7.4083 -36.7059 88.0649 0 255 0
12.121 -35.573 88.0753 0 255 0
16.6728 -33.8427 88.1455 0 255 0
20.9846 -31.5581 88.2769 0 255 0
24.9843 -28.7408 88.4775 0 255 0
28.6192 -25.4483 88.731 0 255 0
31.8078 -21.7179 89.0515 0 255 0
34.5232 -17.6092 89.4134 0 255 0
36.6993 -13.1757 89.7977 0 255 0
38.3049 -8.4972 90.2219 0 255 0
39.3091 -3.62893 90.6765 0 255 0
39.7003 1.32292 91.1537 0 255 0
39.451 6.30074 91.6317 0 255 0
38.5884 11.2365 92.1263 0 255 0
37.1077 16.0172 92.6117 0 255 0
35.0224 20.6003 93.0915 0 255 0
32.368 24.9013 93.5509 0 255 0
29.1921 28.8498 93.9779 0 255 0
25.5222 32.3628 94.349 0 255 0
21.4257 35.3997 94.6878 0 255 0
16.9663 37.9201 94.9749 0 255 0
12.2158 39.8661 95.203 0 255 0
7.23601 41.2015 95.3771 0 255 0
2.11353 41.9109 95.4789 0 255 0
-3.06496 41.9694 95.4984 0 255 0
-8.23238 41.3878 95.4635 0 255 0
-13.2962 40.1626 95.3453 0 255 0
-18.1897 38.3151 95.163 0 255 0
-22.7995 35.8579 94.9033 0 255 0
-27.0945 32.8415 94.5906 0 255 0
-30.9854 29.3037 94.2219 0 255 0
-34.422 25.3026 93.8147 0 255 0
-37.3156 20.8965 93.3179 0 255 0
-39.6416 16.1499 92.8005 0 255 0
-41.3646 11.13 92.2475 0 255 0
-42.4402 5.93594 91.6564 0 255 0
-42.8522 0.632105 91.0549 0 255 0
-42.5883 -4.69551 90.4227 0 255 0
-41.6517 -9.96925 89.7959 0 255 0
-40.0381 -15.0779 89.1548 0 255 0
-37.7899 -19.9674 88.5271 0 255 0
-34.9387 -24.5363 87.923 0 255 0
-31.5245 -28.739 87.3809 0 255 0
-27.6011 -32.4822 86.8656 0 255 0
-23.2216 -35.7134 86.3807 0 255 0
-18.4518 -38.3815 85.9516 0 255 0
-13.3568 -40.4462 85.5982 0 255 0
-8.0435 -41.8615 85.306 0 255 0
-2.56429 -42.5947 85.0816 0 255 0
2.97308 -42.6329 84.9376 0 255 0
8.48481 -41.9999 84.8644 0 255 0
13.8914 -40.6721 84.8614 0 255 0
19.1058 -38.6683 84.9419 0 255 0
24.035 -36.0354 85.0993 0 255 0
28.6156 -32.7971 85.3309 0 255 0
32.7615 -29.01 85.6359 0 255 0
36.4038 -24.7145 85.9862 0 255 0
39.4832 -19.9955 86.3886 0 255 0
41.9603 -14.9176 86.8446 0 255 0
43.7801 -9.55486 87.3307 0 255 0
44.9122 -3.99046 87.8551 0 255 0
45.3391 1.6661 88.4051 0 255 0
45.0337 7.36315 88.9588 0 255 0
44.0275 12.9709 89.5182 0 255 0
42.3215 18.4279 90.0724 0 255 0
39.9275 23.6532 90.624 0 255 0
36.8861 28.5444 91.1302 0 255 0
33.2412 33.023 91.625 0 255 0
29.0559 37.0264 92.0623 0 255 0
24.3835 40.4678 92.4411 0 255 0
19.2876 43.324 92.7669 0 255 0
13.8737 45.5134 93.0056 0 255 0
8.20541 47.0195 93.2029 0 255 0
2.38451 47.8007 93.3125 0 255 0
-3.50327 47.8519 93.3442 0 255 0
-9.37492 47.1822 93.3109 0 255 0
-15.1273 45.7713 93.1853 0 255 0
-20.6676 43.6501 92.9693 0 255 0
-25.9011 40.8577 92.678 0 255 0
-30.7562 37.417 92.3242 0 255 0
-35.1494 33.3973 91.8986 0 255 0
-39.0197 28.8439 91.4179 0 255 0
-42.2998 23.8422 90.8568 0 255 0
-44.9036 18.4579 90.2549 0 255 0
-46.8357 12.7781 89.6158 0 255 0
-48.0307 6.87975 88.9591 0 255 0
-48.4863 0.887114 88.2862 0 255 0
-48.1725 -5.13496 87.5838 0 255 0
-47.1009 -11.0852 86.8712 0 255 0
-45.2664 -16.8657 86.1526 0 255 0
-42.7116 -22.3703 85.4546 0 255 0
-39.4759 -27.533 84.7763 0 255 0
-35.6161 -32.2618 84.1546 0 255 0
-31.1601 -36.474 83.5643 0 255 0
-26.2052 -40.1049 83.0198 0 255 0
-20.8087 -43.0876 82.5437 0 255 0
-15.0759 -45.3992 82.1432 0 255 0
-9.08187 -46.9757 81.8206 0 255 0
-2.91191 -47.7863 81.5747 0 255 0
3.3197 -47.8246 81.4032 0 255 0
9.52029 -47.0887 81.33 0 255 0
15.604 -45.5807 81.3251 0 255 0
21.4526 -43.3153 81.4207 0 255 0
26.9922 -40.3268 81.6015 0 255 0
32.1279 -36.6818 81.8657 0 255 0
36.7644 -32.4111 82.1885 0 255 0
40.8447 -27.5801 82.579 0 255 0
44.2922 -22.2679 83.0395 0 255 0
47.0571 -16.5643 83.5537 0 255 0
49.0806 -10.5465 84.1087 0 255 0
50.3315 -4.31226 84.6904 0 255 0
50.7815 2.04461 85.3001 0 255 0
50.4337 8.41608 85.917 0 255 0
49.2871 14.7092 86.5604 0 255 0
47.3638 20.8244 87.1894 0 255 0
44.6663 26.6589 87.7947 0 255 0
41.249 32.1119 88.3713 0 255 0
37.1546 37.1205 88.9125 0 255 0
32.4645 41.5754 89.3997 0 255 0
27.2266 45.4147 89.8132 0 255 0
21.5281 48.5883 90.1711 0 255 0
15.4665 51.0223 90.45 0 255 0
9.13808 52.6863 90.6588 0 255 0
2.63727 53.5511 90.7801 0 255 0
-3.93908 53.5969 90.8219 0 255 0
-10.4805 52.8231 90.7843 0 255 0
-16.8896 51.2449 90.6507 0 255 0
-23.0706 48.8675 90.4233 0 255 0
-28.9015 45.7334 90.0944 0 255 0
-34.3061 41.8872 89.697 0 255 0
-39.194 37.3896 89.2224 0 255 0
-43.4981 32.317 88.6749 0 255 0
-47.1223 26.7353 88.0608 0 255 0
-50.012 20.7362 87.3838 0 255 0
-52.1397 14.4087 86.6752 0 255 0
-53.4514 7.84244 85.9245 0 255 0
-53.9308 1.16965 85.1646 0 255 0
-53.5735 -5.51721 84.3885 0 255 0
-52.3522 -12.1209 83.5868 0 255 0
-50.2913 -18.5271 82.7902 0 255 0
-47.4498 -24.6491 82.0169 0 255 0
-43.8588 -30.3706 81.2788 0 255 0
-39.5429 -35.6143 80.5879 0 255 0
-34.5999 -40.2917 79.9479 0 255 0
-29.0909 -44.2946 79.3503 0 255 0
-23.1085 -47.6086 78.823 0 255 0
-16.7471 -50.1534 78.3754 0 255 0
-10.0881 -51.8718 78.0218 0 255 0
-3.24174 -52.7567 77.7439 0 255 0
3.65574 -52.7803 77.5583 0 255 0
10.5269 -51.9452 77.4679 0 255 0
17.243 -50.2656 77.4782 0 255 0
23.7171 -47.7468 77.5799 0 255 0
29.8459 -44.4345 77.7832 0 255 0
35.5044 -40.3741 78.0637 0 255 0
40.6211 -35.6375 78.4255 0 255 0
45.1215 -30.286 78.86 0 255 0
48.9113 -24.4078 79.3548 0 255 0
51.9479 -18.0958 79.9167 0 255 0
54.1676 -11.4533 80.5372 0 255 0
55.5331 -4.56851 81.182 0 255 0
56.025 2.45147 81.8534 0 255 0
55.6262 9.48712 82.5501 0 255 0
54.3409 16.4314 83.2527 0 255 0
52.2063 23.1685 83.945 0 255 0
49.2261 29.589 84.6139 0 255 0
45.4495 35.6053 85.2519 0 255 0
40.9282 41.1046 85.8475 0 255 0
35.7445 46.0091 86.3921 0 255 0
29.9561 50.2324 86.8489 0 255 0
23.6837 53.7034 87.2337 0 255 0
17.0049 56.3738 87.5488 0 255 0
10.0259 58.1895 87.775 0 255 0
2.87383 59.1207 87.8944 0 255 0
-4.36836 59.1715 87.9503 0 255 0
-11.5617 58.3083 87.8963 0 255 0
-18.6106 56.5555 87.7517 0 255 0
-25.3852 53.9332 87.4985 0 255 0
-31.7899 50.4636 87.1444 0 255 0
-37.7156 46.2268 86.6944 0 255 0
-43.0857 41.2839 86.1863 0 255 0
-47.7875 35.6963 85.5768 0 255 0
-51.7579 29.556 84.8989 0 255 0
-54.9342 22.9679 84.184 0 255 0
-57.2433 16.0176 83.3952 0 255 0
-58.6662 8.83269 82.5656 0 255 0
-59.1807 1.50616 81.725 0 255 0
-58.7684 -5.83224 80.863 0 255 0
-57.4094 -13.0687 79.9928 0 255 0
-55.1548 -20.0945 79.1237 0 255 0
-52.0194 -26.7944 78.2824 0 255 0
-48.06 -33.0572 77.4665 0 255 0
-43.3222 -38.7804 76.7065 0 255 0
-37.9084 -43.8918 76.0013 0 255 0
-31.8648 -48.2814 75.3526 0 255 0
-25.3156 -51.8883 74.7835 0 255 0
-18.3428 -54.6452 74.2988 0 255 0
-11.0578 -56.5189 73.9036 0 255 0
-3.58261 -57.4739 73.6021 0 255 0
3.96472 -57.4743 73.3944 0 255 0
11.4705 -56.5607 73.3049 0 255 0
18.8187 -54.7139 73.3346 0 255 0
25.8924 -51.9473 73.4482 0 255 0
32.5661 -48.3167 73.6656 0 255 0
38.7537 -43.8821 73.9765 0 255 0
44.33 -38.6946 74.3666 0 255 0
49.2157 -32.8433 74.8399 0 255 0
53.341 -26.423 75.3849 0 255 0
56.6332 -19.5295 75.9967 0 255 0
59.0352 -12.2651 76.66 0 255 0
60.5231 -4.75365 77.3634 0 255 0
61.0487 2.89764 78.1097 0 255 0
60.605 10.5636 78.8699 0 255 0
59.1927 18.1292 79.6277 0 255 0
56.8424 25.4566 80.3831 0 255 0
53.5751 32.4452 81.0973 0 255 0
49.4533 38.9915 81.797 0 255 0
44.518 44.9695 82.4361 0 255 0
38.8619 50.2954 83.0148 0 255 0
32.5718 54.8887 83.5309 0 255 0
25.7248 58.6473 83.9514 0 255 0
18.4621 61.5383 84.2876 0 255 0
10.8744 63.4994 84.5366 0 255 0
3.0772 64.5024 84.6731 0 255 0
-4.78138 64.5413 84.7233 0 255 0
-12.5954 63.5995 84.6647 0 255 0
-20.2521 61.6744 84.4943 0 255 0
-27.6122 58.8098 84.234 0 255 0
-34.5593 55.0431 83.8581 0 255 0
-40.9973 50.43 83.3798 0 255 0
-46.7981 45.0456 82.7946 0 255 0
-51.8984 38.989 82.1476 0 255 0
-56.1952 32.3154 81.4167 0 255 0
-59.6267 25.1526 80.6309 0 255 0
-62.1307 17.6248 79.7845 0 255 0
-63.6703 9.812 78.878 0 255 0
-64.1986 1.863 77.9649 0 255 0
-63.7387 -6.09125 77.0367 0 255 0
-62.2652 -13.9396 76.0879 0 255 0
-59.7994 -21.5408 75.1453 0 255 0
-56.3926 -28.7869 74.2255 0 255 0
-52.0864 -35.565 73.3522 0 255 0
-46.9626 -41.7576 72.5269 0 255 0
-41.0725 -47.2689 71.7581 0 255 0
-34.5215 -52.0179 71.0561 0 255 0
-27.4243 -55.904 70.4342 0 255 0
-19.8814 -58.8897 69.9224 0 255 0
-12.001 -60.9018 69.4914 0 255 0
-3.90668 -61.9148 69.1751 0 255 0
4.24685 -61.9248 68.9644 0 255 0
12.3685 -60.9082 68.8697 0 255 0
20.311 -58.8973 68.8938 0 255 0
27.9501 -55.9031 69.0265 0 255 0
35.1646 -51.9792 69.2598 0 255 0
41.8314 -47.172 69.5981 0 255 0
47.8437 -41.5589 70.0205 0 255 0
53.1137 -35.2307 70.5253 0 255 0
57.5613 -28.2877 71.126 0 255 0
61.0974 -20.8448 71.7879 0 255 0
63.6903 -13.0035 72.4968 0 255 0
65.2691 -4.88805 73.2551 0 255 0
65.8218 3.36619 74.0611 0 255 0
65.3307 11.6342 74.8804 0 255 0
63.8012 19.7911 75.7061 0 255 0
61.2518 27.6937 76.5076 0 255 0
57.7125 35.2311 77.2895 0 255 0
53.2575 42.2725 78.0309 0 255 0
47.9363 48.7072 78.7101 0 255 0
41.8209 54.4301 79.335 0 255 0
35.0354 59.3572 79.8819 0 255 0
27.6678 63.4109 80.3431 0 255 0
19.8373 66.511 80.7064 0 255 0
11.6688 68.604 80.9599 0 255 0
3.28346 69.6865 81.1254 0 255 0
-5.18389 69.7197 81.1713 0 255 0
-13.5917 68.6781 81.1019 0 255 0
-21.8249 66.5966 80.9196 0 255 0
-29.7438 63.516 80.645 0 255 0
-37.2069 59.4441 80.2347 0 255 0
-44.1158 54.4849 79.7208 0 255 0
-50.3522 48.6935 79.1089 0 255 0
-55.812 42.1631 78.4048 0 255 0
-60.4196 34.9829 77.6109 0 255 0
-64.0883 27.2873 76.7483 0 255 0
-66.7646 19.1817 75.833 0 255 0
-68.3968 10.7991 74.8699 0 255 0
-68.9665 2.26005 73.8885 0 255 0
-68.4385 -6.27299 72.8783 0 255 0
-66.8471 -14.6918 71.8653 0 255 0
-64.1988 -22.8486 70.853 0 255 0
-60.5277 -30.6212 69.8731 0 255 0
-55.9074 -37.8796 68.9322 0 255 0
-50.3873 -44.5199 68.047 0 255 0
-44.0727 -50.4284 67.2362 0 255 0
-37.0487 -55.5061 66.4899 0 255 0
-29.4368 -59.6744 65.8296 0 255 0
-21.3479 -62.8498 65.2708 0 255 0
-12.8975 -65.0029 64.8271 0 255 0
-4.24015 -66.0943 64.4867 0 255 0
4.51859 -66.0928 64.2698 0 255 0
13.2153 -64.991 64.1708 0 255 0
21.7198 -62.8252 64.2004 0 255 0
29.889 -59.6036 64.3364 0 255 0
37.5989 -55.3816 64.5774 0 255 0
44.7391 -50.2224 64.9374 0 255 0
51.1677 -44.2015 65.3901 0 255 0
56.7982 -37.427 65.9431 0 255 0
61.544 -29.9965 66.5746 0 255 0
65.3354 -22.025 67.2889 0 255 0
68.0858 -13.6438 68.0707 0 255 0
69.7691 -4.9576 68.8809 0 255 0
70.3528 3.87067 69.7327 0 255 0
69.81 12.7003 70.6092 0 255 0
68.1553 21.4222 71.4685 0 255 0
65.416 29.8628 72.3358 0 255 0
61.6339 37.9191 73.1812 0 255 0
56.8536 45.4367 73.9516 0 255 0
51.1544 52.2901 74.6841 0 255 0
44.6253 58.3977 75.3476 0 255 0
37.3543 63.6459 75.9212 0 255 0
29.4927 67.9603 76.4176 0 255 0
21.1331 71.2651 76.7942 0 255 0
12.4097 73.5 77.0894 0 255 0
3.45362 74.6441 77.2614 0 255 0
-5.57533 74.6617 77.3151 0 255 0
-14.5438 73.536 77.2339 0 255 0
-23.3269 71.3072 77.0471 0 255 0
-31.7441 67.9996 76.7361 0 255 0
-39.7051 63.6675 76.2987 0 255 0
-47.0649 58.369 75.7584 0 255 0
-53.7083 52.1835 75.104 0 255 0
-59.509 45.2099 74.3417 0 255 0
-64.4062 37.5534 73.4909 0 255 0
-68.3024 29.3383 72.5721 0 255 0
-71.1454 20.7055 71.6064 0 255 0
-72.8768 11.7854 70.577 0 255 0
-73.4641 2.70281 69.5288 0 255 0
-72.9104 -6.39118 68.4572 0 255 0
-71.1931 -15.3424 67.3674 0 255 0
-68.3505 -24.0274 66.2933 0 255 0
-64.4397 -32.289 65.2484 0 255 0
-59.5003 -40.0094 64.2421 0 255 0
-53.6409 -47.0647 63.3103 0 255 0
-46.9132 -53.3436 62.4405 0 255 0
-39.4396 -58.7261 61.6544 0 255 0
-31.3401 -63.1457 60.9513 0 255 0
-22.7357 -66.5184 60.3682 0 255 0
-13.747 -68.7948 59.8856 0 255 0
-4.53981 -69.9325 59.5307 0 255 0
4.75726 -69.9219 59.3054 0 255 0
13.9946 -68.7544 59.2009 0 255 0
23.0238 -66.4432 59.224 0 255 0
31.7031 -63.001 59.3772 0 255 0
39.8888 -58.5225 59.6366 0 255 0
47.4612 -53.0296 60.0187 0 255 0
54.283 -46.6406 60.5074 0 255 0
60.2514 -39.4402 61.0951 0 255 0
65.2765 -31.5365 61.7605 0 255 0
69.2778 -23.0724 62.5164 0 255 0
72.1856 -14.1662 63.3349 0 255 0
73.9687 -4.96454 64.2096 0 255 0
74.567 4.39985 65.117 0 255 0
73.9814 13.7687 66.0226 0 255 0
72.2071 22.9964 66.945 0 255 0
69.2922 31.9561 67.8563 0 255 0
65.2722 40.4799 68.7403 0 255 0
60.2103 48.4404 69.5786 0 255 0
54.1581 55.7125 70.3617 0 255 0
47.2239 62.1748 71.0587 0 255 0
39.5346 67.7248 71.668 0 255 0
31.1857 72.2913 72.1887 0 255 0
22.3257 75.7715 72.5895 0 255 0
13.0836 78.1274 72.8983 0 255 0
3.61368 79.3278 73.0755 0 255 0
-5.93516 79.3202 73.1306 0 255 0
-15.4382 78.1365 73.0477 0 255 0
-24.7172 75.7678 72.8541 0 255 0
-33.641 72.2539 72.5062 0 255 0
-42.0537 67.6676 72.045 0 255 0
-49.8313 62.0464 71.478 0 255 0
-56.8541 55.5013 70.7814 0 255 0
-62.984 48.122 69.9839 0 255 0
-68.1525 40.0181 69.0906 0 255 0
-72.2569 31.3268 68.1168 0 255 0
-75.2545 22.2043 67.0824 0 255 0
-77.0635 12.7625 66.0021 0 255 0
-77.6921 3.15796 64.8975 0 255 0
-77.0737 -6.43775 63.7507 0 255 0
-75.2508 -15.8995 62.5964 0 255 0
-72.2521 -25.0715 61.4748 0 255 0
-68.1126 -33.7991 60.3831 0 255 0
-62.8985 -41.9403 59.3187 0 255 0
-56.6816 -49.3872 58.3169 0 255 0
-49.5725 -56.0014 57.4064 0 255 0
-41.6812 -61.6922 56.5765 0 255 0
-33.1171 -66.3365 55.8531 0 255 0
-24.0381 -69.8927 55.2329 0 255 0
-14.5515 -72.2818 54.731 0 255 0
-4.83255 -73.4837 54.3557 0 255 0
4.97638 -73.4623 54.1175 0 255 0
14.7093 -72.2113 54.0053 0 255 0
24.2347 -69.7439 54.0265 0 255 0
33.3764 -66.104 54.1762 0 255 0
42.0088 -61.3621 54.4538 0 255 0
49.9785 -55.5778 54.8519 0 255 0
57.171 -48.8361 55.3799 0 255 0
63.457 -41.2498 56.0029 0 255 0
68.752 -32.9298 56.7153 0 255 0
72.9508 -23.9953 57.5017 0 255 0
76.0167 -14.6095 58.365 0 255 0
77.872 -4.9156 59.2804 0 255 0
78.4904 4.95388 60.2312 0 255 0
77.8661 14.8244 61.2008 0 255 0
75.9902 24.5489 62.1705 0 255 0
72.9105 33.9649 63.1346 0 255 0
68.6753 42.9332 64.0619 0 255 0
63.3216 51.3174 64.9385 0 255 0
56.946 58.9569 65.7605 0 255 0
49.6491 65.7425 66.4962 0 255 0
41.5388 71.5854 67.1292 0 255 0
32.7659 76.3676 67.6829 0 255 0
23.4358 80.026 68.1158 0 255 0
13.7163 82.4997 68.4233 0 255 0
3.75559 83.7444 68.6124 0 255 0
-6.29587 83.7398 68.6663 0 255 0
-16.2712 82.4627 68.586 0 255 0
-26.03 79.9737 68.3636 0 255 0
-35.3991 76.2696 68.0091 0 255 0
-44.2329 71.436 67.521 0 255 0
-52.3931 65.5166 66.9088 0 255 0
-59.7574 58.6347 66.1822 0 255 0
-66.2065 50.8765 65.349 0 255 0
-71.6143 42.3563 64.4018 0 255 0
-75.9224 33.2406 63.3886 0 255 0
-79.0544 23.6446 62.3069 0 255 0
-80.9605 13.7362 61.1655 0 255 0
-81.6004 3.65242 60.0081 0 255 0
-80.9538 -6.4269 58.8027 0 255 0
-79.0246 -16.3555 57.6029 0 255 0
-75.8675 -25.9831 56.4159 0 255 0
-71.5221 -35.1293 55.2746 0 255 0
-66.0415 -43.6761 54.1704 0 255 0
-59.506 -51.4763 53.1227 0 255 0
-52.0456 -58.4166 52.156 0 255 0
-43.7634 -64.3551 51.2924 0 255 0
-34.7812 -69.2375 50.5302 0 255 0
-25.2506 -72.9592 49.8862 0 255 0
-15.3141 -75.4557 49.3599 0 255 0
-5.11723 -76.6956 48.9635 0 255 0
5.15993 -76.6438 48.7078 0 255 0
15.3714 -75.3215 48.5898 0 255 0
25.3318 -72.7232 48.6017 0 255 0
34.9148 -68.9078 48.7658 0 255 0
43.9485 -63.9341 49.0647 0 255 0
52.3027 -57.87 49.4876 0 255 0
59.8234 -50.8024 50.0363 0 255 0
66.4085 -42.8442 50.6848 0 255 0
71.9534 -34.133 51.4454 0 255 0
76.3485 -24.7844 52.2747 0 255 0
79.5337 -14.951 53.168 0 255 0
81.4566 -4.79962 54.1293 0 255 0
82.0971 5.53088 55.1226 0 255 0
81.4269 15.8674 56.1387 0 255 0
79.4705 26.034 57.1599 0 255 0
76.2491 35.8884 58.1707 0 255 0
71.7984 45.2675 59.1393 0 255 0
66.19 54.0249 60.0572 0 255 0
59.5091 62.0144 60.9137 0 255 0
51.8602 69.1099 61.6714 0 255 0
43.3891 75.2054 62.3558 0 255 0
34.2077 80.197 62.9129 0 255 0
24.4551 84.0212 63.3709 0 255 0
14.3035 86.5942 63.7001 0 255 0
3.87803 87.8772 63.8901 0 255 0
-6.62136 87.8524 63.9353 0 255 0
-17.0595 86.5421 63.8552 0 255 0
-27.2504 83.9121 63.6298 0 255 0
-37.0316 80.0405 63.2558 0 255 0
-46.2561 74.9808 62.7427 0 255 0
-54.7794 68.7988 62.102 0 255 0
-62.462 61.5878 61.3386 0 255 0
-69.1703 53.4662 60.4545 0 255 0
-74.816 44.5807 59.4785 0 255 0
-79.2994 35.0506 58.4201 0 255 0
-82.5692 25.0395 57.2838 0 255 0
-84.5369 14.6945 56.0997 0 255 0
-85.1994 4.17555 54.8848 0 255 0
-84.5118 -6.33941 53.6373 0 255 0
-82.506 -16.7129 52.3897 0 255 0
-79.201 -26.741 51.147 0 255 0
-74.6505 -36.2839 49.946 0 255 0
-68.9194 -45.1842 48.7902 0 255 0
-62.1058 -53.3087 47.7089 0 255 0
-54.3117 -60.5199 46.6945 0 255 0
-45.6746 -66.7255 45.801 0 255 0
-36.3123 -71.7965 44.9967 0 255 0
-26.372 -75.6603 44.3222 0 255 0
-16.0008 -78.262 43.787 0 255 0
-5.38276 -79.559 43.3794 0 255 0
5.33118 -79.5071 43.1044 0 255 0
15.9596 -78.1123 42.9826 0 255 0
26.3505 -75.4012 43.0125 0 255 0
36.3173 -71.4326 43.1892 0 255 0
45.7339 -66.2454 43.4959 0 255 0
54.421 -59.9065 43.9387 0 255 0
62.243 -52.5315 44.4969 0 255 0
69.082 -44.2334 45.1832 0 255 0
74.8491 -35.1573 45.9606 0 255 0
79.4131 -25.4211 46.8266 0 255 0
82.7164 -15.1787 47.7605 0 255 0
84.7179 -4.61299 48.7658 0 255 0
85.3736 6.13183 49.7926 0 255 0
84.673 16.8895 50.8519 0 255 0
82.6215 27.4651 51.9124 0 255 0
79.2499 37.7022 52.9647 0 255 0
74.6071 47.4671 53.9666 0 255 0
68.7793 56.5638 54.9289 0 255 0
61.8165 64.8645 55.8145 0 255 0
53.8679 72.2407 56.6234 0 255 0
45.0528 78.5688 57.3136 0 255 0
35.4999 83.764 57.908 0 255 0
25.3658 87.7241 58.3773 0 255 0
14.7998 90.38 58.7176 0 255 0
3.97298 91.6993 58.9084 0 255 0
-6.93813 91.6852 58.9606 0 255 0
-17.7828 90.2935 58.8782 0 255 0
-28.3654 87.5627 58.6276 0 255 0
-38.5223 83.5302 58.2497 0 255 0
-48.1094 78.2543 57.7089 0 255 0
-56.9462 71.8171 57.0377 0 255 0
-64.907 64.3269 56.2434 0 255 0
-71.875 55.9006 55.325 0 255 0
-77.7194 46.66 54.3135 0 255 0
-82.3869 36.7786 53.2213 0 255 0
-85.7528 26.3777 52.0328 0 255 0
-87.7995 15.6398 50.8164 0 255 0
-88.4694 4.72556 49.5429 0 255 0
-87.7463 -6.19761 48.2589 0 255 0
-85.6561 -16.947 46.9555 0 255 0
-82.2227 -27.3559 45.6758 0 255 0
-77.4956 -37.2509 44.4271 0 255 0
-71.5387 -46.4689 43.2256 0 255 0
-64.4542 -54.8897 42.0945 0 255 0
-56.3828 -62.3729 41.0603 0 255 0
-47.4174 -68.7788 40.1187 0 255 0
-37.6972 -74.037 39.3014 0 255 0
-27.3869 -78.037 38.5979 0 255 0
-16.6388 -80.7393 38.0481 0 255 0
-5.62673 -82.0675 37.622 0 255 0
5.47172 -82.0009 37.3459 0 255 0
16.4956 -80.5572 37.2296 0 255 0
27.2442 -77.7376 37.2497 0 255 0
37.5766 -73.6124 37.4256 0 255 0
47.3182 -68.2174 37.7493 0 255 0
56.3055 -61.646 38.2035 0 255 0
64.4088 -54.0006 38.7918 0 255 0
71.4958 -45.4183 39.4954 0 255 0
77.441 -36.0005 40.3007 0 255 0
82.1704 -25.9141 41.1967 0 255 0
85.5823 -15.3163 42.1724 0 255 0
87.6487 -4.37983 43.2134 0 255 0
88.3107 6.75134 44.2791 0 255 0
87.5858 17.8747 45.379 0 255 0
85.4437 28.8153 46.4701 0 255 0
81.9538 39.4154 47.5474 0 255 0
77.1443 49.5057 48.5934 0 255 0
71.0829 58.9219 49.5788 0 255 0
63.8874 67.4967 50.4993 0 255 0
55.6592 75.1241 51.3258 0 255 0
46.5375 81.6724 52.0589 0 255 0
36.6513 87.0386 52.6677 0 255 0
26.1674 91.1221 53.1546 0 255 0
15.2382 93.8463 53.4951 0 255 0
4.05051 95.2016 53.6896 0 255 0
-7.23264 95.173 53.7472 0 255 0
-18.4306 93.7432 53.656 0 255 0
-29.3695 90.9076 53.4149 0 255 0
-39.8747 86.7455 53.0039 0 255 0
-49.7605 81.2679 52.4456 0 255 0
-58.8881 74.5996 51.7542 0 255 0
-67.1079 66.8629 50.9269 0 255 0
-74.3013 58.1586 49.9895 0 255 0
-80.3559 48.6164 48.9529 0 255 0
-85.1564 38.4005 47.8114 0 255 0
-88.6335 27.6636 46.5994 0 255 0
-90.7176 16.5639 45.3315 0 255 0
-91.4026 5.29481 44.0248 0 255 0
-90.6498 -5.9846 42.6863 0 255 0
-88.4782 -17.0733 41.3361 0 255 0
-84.9241 -27.8055 40.0157 0 255 0
-80.0298 -38.0057 38.7317 0 255 0
-73.8846 -47.5264 37.4972 0 255 0
-66.5941 -56.2352 36.3357 0 255 0
-58.2445 -63.9458 35.2667 0 255 0
-48.9856 -70.5629 34.3056 0 255 0
-38.9567 -75.9698 33.4586 0 255 0
-28.3122 -80.0844 32.7351 0 255 0
-17.2237 -82.8514 32.1545 0 255 0
-5.86529 -84.2054 31.7191 0 255 0
5.58029 -84.1468 31.4462 0 255 0
16.939 -82.6398 31.319 0 255 0
28.0329 -79.7297 31.3468 0 255 0
38.6764 -75.4619 31.5288 0 255 0
48.7111 -69.8823 31.8593 0 255 0
57.963 -63.1027 32.3273 0 255 0
66.3083 -55.2214 32.931 0 255 0
73.5967 -46.363 33.6497 0 255 0
79.7324 -36.6715 34.482 0 255 0
84.6003 -26.2746 35.4165 0 255 0
88.1077 -15.3477 36.4188 0 255 0
90.2103 -4.06924 37.4759 0 255 0
90.89 7.38412 38.5807 0 255 0
90.1338 18.8426 39.7148 0 255 0
87.9259 30.1093 40.8404 0 255 0
84.308 41.0185 41.9465 0 255 0
79.3618 51.4078 43.031 0 255 0
73.1103 61.0779 44.0378 0 255 0
65.6857 69.8994 44.9784 0 255 0
57.2093 77.7404 45.8333 0 255 0
47.8256 84.4841 46.589 0 255 0
37.6573 89.9876 47.2252 0 255 0
26.8698 94.1842 47.7222 0 255 0
15.6125 96.9977 48.0728 0 255 0
4.10127 98.3912 48.2784 0 255 0
-7.50911 98.3591 48.3409 0 255 0
-19.0277 96.8637 48.2355 0 255 0
-30.272 93.9344 47.9769 0 255 0
-41.0595 89.6167 47.5498 0 255 0
-51.2275 83.9858 46.9754 0 255 0
-60.6018 77.1377 46.2602 0 255 0
-69.0575 69.1764 45.4213 0 255 0
-76.4523 60.2245 44.4644 0 255 0
-82.6564 50.4161 43.3909 0 255 0
-87.5831 39.9131 42.2214 0 255 0
-91.1601 28.8719 40.9801 0 255 0
-93.2907 17.4746 39.6762 0 255 0
-93.9859 5.89175 38.3233 0 255 0
-93.1966 -5.69144 36.9468 0 255 0
-90.9563 -17.0878 35.5636 0 255 0
-87.2888 -28.1115 34.1988 0 255 0
-82.2608 -38.5991 32.8748 0 255 0
-75.9645 -48.3807 31.6184 0 255 0
-68.4618 -57.303 30.4378 0 255 0
-59.8745 -65.2216 29.3378 0 255 0
-50.3659 -72.0135 28.3475 0 255 0
-40.0606 -77.5501 27.4707 0 255 0
-29.1241 -81.7704 26.7306 0 255 0
-17.7405 -84.5912 26.1345 0 255 0
-6.08845 -85.9822 25.695 0 255 0
5.67357 -85.9058 25.4119 0 255 0
17.3178 -84.3524 25.2783 0 255 0
28.6923 -81.3557 25.3098 0 255 0
39.613 -76.9627 25.5053 0 255 0
49.8978 -71.2426 25.8372 0 255 0
59.4099 -64.2846 26.3254 0 255 0
67.9544 -56.1933 26.9502 0 255 0
75.4248 -47.0993 27.6929 0 255 0
81.7024 -37.1495 28.5465 0 255 0
86.6661 -26.4775 29.4909 0 255 0
90.2506 -15.276 30.5075 0 255 0
92.4255 -3.71636 31.6014 0 255 0
93.0981 8.02209 32.7335 0 255 0
92.3092 19.7685 33.8997 0 255 0
90.039 31.3245 35.0449 0 255 0
86.3416 42.5079 36.1847 0 255 0
81.243 53.1393 37.2879 0 255 0
74.8274 63.0498 38.3324 0 255 0
67.2332 72.0946 39.2968 0 255 0
58.557 80.1242 40.1738 0 255 0
48.9303 87.0043 40.943 0 255 0
38.5105 92.6476 41.5884 0 255 0
27.4483 96.9255 42.0936 0 255 0
15.9301 99.7968 42.4506 0 255 0
4.13007 101.228 42.6727 0 255 0
-7.7578 101.169 42.7352 0 255 0
-19.5499 99.6431 42.6293 0 255 0
-31.048 96.6186 42.3519 0 255 0
-42.0934 92.1938 41.9177 0 255 0
-52.494 86.4395 41.3389 0 255 0
-62.1026 79.4301 40.6124 0 255 0
-70.7439 71.2702 39.7512 0 255 0
-78.2991 62.097 38.7593 0 255 0
-84.6441 52.0582 37.6592 0 255 0
-89.6852 41.3093 36.4701 0 255 0
-93.3237 30.0063 35.1885 0 255 0
-95.5064 18.3535 33.8493 0 255 0
-96.1889 6.50056 32.4605 0 255 0
-95.3804 -5.33987 31.058 0 255 0
-93.0898 -16.9922 29.6526 0 255 0
-89.318 -28.2668 28.2542 0 255 0
-84.1751 -38.9756 26.9047 0 255 0
-77.7149 -48.9807 25.6121 0 255 0
-70.0421 -58.0919 24.4077 0 255 0
-61.2696 -66.1759 23.2845 0 255 0
-51.5335 -73.1126 22.2717 0 255 0
-41.001 -78.7756 21.3786 0 255 0
-29.8303 -83.0821 20.6233 0 255 0
-18.1937 -85.9662 20.0171 0 255 0
-6.28816 -87.378 19.578 0 255 0
5.71773 -87.2838 19.2767 0 255 0
17.6264 -85.6831 19.1458 0 255 0
29.2488 -82.6016 19.1788 0 255 0
40.3876 -78.1121 19.3771 0 255 0
50.8902 -72.2684 19.7209 0 255 0
60.5862 -65.1567 20.2224 0 255 0
69.3204 -56.8932 20.8533 0 255 0
76.9403 -47.5959 21.6163 0 255 0
83.3298 -37.4333 22.4794 0 255 0
88.3966 -26.5386 23.4481 0 255 0
92.0662 -15.1047 24.5034 0 255 0
94.2578 -3.30605 25.6152 0 255 0
94.941 8.68182 26.7699 0 255 0
94.1357 20.6687 27.9418 0 255 0
91.8176 32.4528 29.1188 0 255 0
88.0159 43.8584 30.2787 0 255 0
82.8094 54.7016 31.4103 0 255 0
76.2773 64.8104 32.4746 0 255 0
68.5233 74.0462 33.4643 0 255 0
59.6562 82.2229 34.3568 0 255 0
49.8381 89.246 35.1422 0 255 0
39.2033 94.9603 35.7957 0 255 0
27.9148 99.3228 36.3056 0 255 0
16.1676 102.249 36.6757 0 255 0
4.1445 103.691 36.895 0 255 0
-7.97896 103.639 36.9527 0 255 0
-19.9879 102.055 36.8379 0 255 0
-31.7139 98.978 36.5661 0 255 0
-42.9717 94.4821 36.1396 0 255 0
-53.5739 88.6042 35.5403 0 255 0
-63.347 81.445 34.7978 0 255 0
-72.1427 73.1212 33.9086 0 255 0
-79.8326 63.7671 32.9012 0 255 0
-86.2934 53.5406 31.7767 0 255 0
-91.4177 42.5912 30.5657 0 255 0
-95.1157 31.078 29.2659 0 255 0
-97.3355 19.1967 27.8909 0 255 0
-98.0226 7.13154 26.4866 0 255 0
-97.1881 -4.92235 25.0515 0 255 0
-94.8372 -16.7908 23.6206 0 255 0
-91.0196 -28.2628 22.2119 0 255 0
-85.7688 -39.1686 20.836 0 255 0
-79.1802 -49.3378 19.513 0 255 0
-71.3495 -58.6048 18.2825 0 255 0
-62.4134 -66.8205 17.1484 0 255 0
-52.5119 -73.8641 16.1063 0 255 0
-41.789 -79.633 15.2065 0 255 0
-30.4287 -84.0195 14.4378 0 255 0
-18.5812 -86.9439 13.8287 0 255 0
-6.46787 -88.3673 13.3705 0 255 0
5.74736 -88.2561 13.0741 0 255 0
17.8582 -86.6163 12.9341 0 255 0
29.6695 -83.4998 12.9737 0 255 0
41.0089 -78.9269 13.1763 0 255 0
51.6783 -72.9631 13.5274 0 255 0
61.5292 -65.7247 14.0303 0 255 0
70.3942 -57.3203 14.6831 0 255 0
78.1429 -47.8679 15.4495 0 255 0
84.6453 -37.5374 16.3388 0 255 0
89.7844 -26.4603 17.3153 0 255 0
93.501 -14.833 18.3899 0 255 0
95.7299 -2.83867 19.524 0 255 0
96.4237 9.3443 20.6973 0 255 0
95.5794 21.52 21.8889 0 255 0
93.2026 33.501 23.09 0 255 0
89.3431 45.0754 24.2743 0 255 0
84.0358 56.0824 25.4024 0 255 0
77.3966 66.359 26.4865 0 255 0
69.5096 75.7216 27.4957 0 255 0
60.5152 84.0392 28.3957 0 255 0
50.5314 91.1375 29.1875 0 255 0
39.721 96.9419 29.8536 0 255 0
28.2714 101.358 30.3748 0 255 0
16.3383 104.338 30.7616 0 255 0
4.12542 105.799 30.9798 0 255 0
-8.16871 105.721 31.028 0 255 0
-20.3662 104.109 30.914 0 255 0
-32.2724 100.995 30.642 0 255 0
-43.6848 96.416 30.2014 0 255 0
-54.4451 90.4507 29.6034 0 255 0
-64.3535 83.1777 28.8415 0 255 0
-73.274 74.7237 27.9518 0 255 0
-81.0707 65.2359 26.9175 0 255 0
-87.6237 54.8555 25.7842 0 255 0
-92.8138 43.7389 24.5516 0 255 0
-96.5441 32.0599 23.222 0 255 0
-98.7852 20.006 21.824 0 255 0
-99.4745 7.77732 20.4073 0 255 0
-98.6154 -4.45456 18.95 0 255 0
-96.2208 -16.4751 17.4983 0 255 0
-92.3363 -28.1024 16.0726 0 255 0
-87.0151 -39.1534 14.6851 0 255 0
-80.3225 -49.4599 13.3483 0 255 0
-72.382 -58.8366 12.0943 0 255 0
-63.3238 -67.1568 10.934 0 255 0
-53.2854 -74.3002 9.88918 0 255 0
-42.4221 -80.1326 8.97259 0 255 0
-30.8999 -84.57 8.19867 0 255 0
-18.9095 -87.5342 7.58498 0 255 0
-6.62599 -88.9704 7.11616 0 255 0
5.73779 -88.8444 6.81026 0 255 0
18.003 -87.1841 6.67887 0 255 0
29.9749 -84.009 6.7253 0 255 0
41.4436 -79.3666 6.92729 0 255 0
52.2566 -73.3208 7.29299 0 255 0
62.2295 -65.9995 7.79113 0 255 0
71.207 -57.4812 8.4508 0 255 0
79.0389 -47.9135 9.23759 0 255 0
85.6095 -37.4397 10.1241 0 255 0
90.809 -26.2197 11.1261 0 255 0
94.567 -14.4679 12.2119 0 255 0
96.805 -2.31056 13.3538 0 255 0
97.497 10.0172 14.5399 0 255 0
96.6346 22.3393 15.7567 0 255 0
94.2197 34.4561 16.9631 0 255 0
90.2937 46.1644 18.1491 0 255 0
84.9249 57.2982 19.3034 0 255 0
78.2038 67.6823 20.4025 0 255 0
70.2193 77.1537 21.4165 0 255 0
61.1135 85.5494 22.3253 0 255 0
51.0151 92.725 23.1234 0 255 0
40.0807 98.595 23.8048 0 255 0
28.4984 103.07 24.335 0 255 0
16.4386 106.081 24.7207 0 255 0
4.09393 107.55 24.944 0 255 0
-8.33456 107.449 24.9952 0 255 0
-20.6678 105.82 24.8854 0 255 0
-32.6989 102.661 24.603 0 255 0
-44.2379 98.018 24.1549 0 255 0
-55.1022 91.9734 23.5443 0 255 0
-65.1155 84.6208 22.78 0 255 0
-74.1283 76.0744 21.8685 0 255 0
-81.9969 66.4905 20.8318 0 255 0
-88.6033 55.9996 19.6848 0 255 0
-93.8364 44.7582 18.4335 0 255 0
-97.6035 32.9624 17.0888 0 255 0
-99.8445 20.7859 15.6865 0 255 0
-100.542 8.42689 14.2483 0 255 0
-99.6719 -3.918 12.7824 0 255 0
-97.2426 -16.0495 11.3143 0 255 0
-93.314 -27.7969 9.87199 0 255 0
-87.9161 -38.9487 8.47446 0 255 0
-81.1658 -49.3447 7.12853 0 255 0
-73.1476 -58.8063 5.86154 0 255 0
-64.0014 -67.2124 4.68999 0 255 0
-53.8613 -74.4004 3.64207 0 255 0
-42.8927 -80.29 2.70961 0 255 0
-31.2707 -84.7591 1.93921 0 255 0
-19.1657 -87.7347 1.30826 0 255 0
-6.76884 -89.1603 0.839636 0 255 0
5.71647 -89.0428 0.535039 0 255 0
18.0788 -87.3471 0.406185 0 255 0
30.1428 -84.1417 0.446949 0 255 0
41.7169 -79.4461 0.648418 0 255 0
52.6155 -73.3525 1.01263 0 255 0
62.675 -65.9604 1.52348 0 255 0
71.7229 -57.3703 2.18435 0 255 0
79.6092 -47.7119 2.97333 0 255 0
86.2154 -37.142 3.88438 0 255 0
91.462 -25.8434 4.88756 0 255 0
95.2364 -13.9758 5.97444 0 255 0
97.4797 -1.73524 7.13289 0 255 0
98.1776 10.6908 8.33015 0 255 0
97.2899 23.0975 9.5506 0 255 0
94.8564 35.3075 10.7691 0 255 0
90.8911 47.1094 11.9669 0 255 0
85.4808 58.3298 13.1276 0 255 0
78.6962 68.7665 14.2278 0 255 0
70.6497 78.3049 15.2497 0 255 0
61.4625 86.7572 16.1783 0 255 0
51.2899 93.9907 16.984 0 255 0
40.2864 99.9116 17.6566 0 255 0
28.6239 104.428 18.2003 0 255 0
16.472 107.428 18.5822 0 255 0
4.04188 108.906 18.7994 0 255 0
-8.47825 108.792 18.8575 0 255 0
-20.8951 107.14 18.7397 0 255 0
-33.0103 103.968 18.4657 0 255 0
-44.6156 99.2835 18.008 0 255 0
-55.5496 93.1837 17.3944 0 255 0
-65.634 85.784 16.6207 0 255 0
-74.6907 77.1787 15.7007 0 255 0
-82.6036 67.5196 14.666 0 255 0
-89.2481 56.9612 13.5032 0 255 0
-94.498 45.6515 12.2415 0 255 0
-98.2609 33.7711 10.8955 0 255 0
-100.527 21.5202 9.49122 0 255 0
-101.224 9.08595 8.04051 0 255 0
-100.349 -3.32668 6.56298 0 255 0
-97.9125 -15.5422 5.09072 0 255 0
-93.938 -27.3464 3.63621 0 255 0
-88.5029 -38.5562 2.23128 0 255 0
-81.7126 -49.0079 0.879088 0 255 0
-73.6352 -58.5183 -0.394668 0 255 0
-64.4371 -66.94 -1.56957 0 255 0
-54.2354 -74.179 -2.63118 0 255 0
-43.2078 -80.0869 -3.55987 0 255 0
-31.5221 -84.5655 -4.34093 0 255 0
-19.3499 -87.5307 -4.9656 0 255 0
-6.89825 -88.9609 -5.43792 0 255 0
5.64737 -88.8272 -5.74704 0 255 0
18.0777 -87.1381 -5.87414 0 255 0
30.1944 -83.8954 -5.83381 0 255 0
41.8184 -79.1792 -5.62907 0 255 0
52.7634 -73.0658 -5.26929 0 255 0
62.8599 -65.6291 -4.7453 0 255 0
71.9479 -56.9987 -4.08698 0 255 0
79.8672 -47.2913 -3.29316 0 255 0
86.5093 -36.6848 -2.37873 0 255 0
91.7488 -25.322 -1.37316 0 255 0
95.5286 -13.3986 -0.274033 0 255 0
97.7679 -1.10909 0.880802 0 255 0
98.4595 11.37 2.08501 0 255 0
97.5696 23.8265 3.31182 0 255 0
95.1037 36.0758 4.53808 0 255 0
91.1323 47.9137 5.75041 0 255 0
85.6841 59.1674 6.90791 0 255 0
78.8741 69.6506 8.01105 0 255 0
70.8002 79.2159 9.04282 0 255 0
61.585 87.6933 9.96098 0 255 0
51.3761 94.9493 10.7767 0 255 0
40.3248 100.881 11.457 0 255 0
28.6168 105.383 11.9952 0 255 0
16.4357 108.385 12.3727 0 255 0
3.96292 109.848 12.5893 0 255 0
-8.59656 109.736 12.6474 0 255 0
-21.0433 108.087 12.5348 0 255 0
-33.1909 104.889 12.2533 0 255 0
-44.8179 100.184 11.8049 0 255 0
-55.7809 94.0746 11.1888 0 255 0
-65.8893 86.6448 10.3994 0 255 0
-74.977 78.0209 9.48325 0 255 0
-82.8958 68.3292 8.43273 0 255 0
-89.5476 57.7336 7.27547 0 255 0
-94.7904 46.3977 6.00356 0 255 0
-98.5654 34.4973 4.66653 0 255 0
-100.828 22.2154 3.25228 0 255 0
-101.511 9.75996 1.79157 0 255 0
-100.636 -2.68882 0.322591 0 255 0
-98.1891 -14.9222 -1.15547 0 255 0
-94.1924 -26.736 -2.60527 0 255 0
-88.7473 -37.9632 -4.0276 0 255 0
-81.9186 -48.419 -5.37957 0 255 0
-73.8345 -57.9396 -6.64423 0 255 0
-64.6177 -66.3868 -7.82718 0 255 0
-54.4009 -73.6129 -8.88226 0 255 0
-43.3623 -79.52 -9.81495 0 255 0
-31.6406 -83.9959 -10.6059 0 255 0
-19.4703 -86.9607 -11.2229 0 255 0
-6.99492 -88.3829 -11.6971 0 255 0
5.5559 -88.239 -11.9881 0 255 0
17.9971 -86.536 -12.1252 0 255 0
30.1271 -83.2954 -12.0871 0 255 0
41.7619 -78.5698 -11.8803 0 255 0
52.6962 -72.4389 -11.5152 0 255 0
62.794 -64.9913 -10.9982 0 255 0
71.8778 -56.349 -10.3278 0 255 0
79.7898 -46.6349 -9.54176 0 255 0
86.4131 -36.0088 -8.62245 0 255 0
91.6714 -24.6572 -7.61057 0 255 0
95.4539 -12.7387 -6.51873 0 255 0
97.6937 -0.441443 -5.36182 0 255 0
98.369 12.0292 -4.16584 0 255 0
97.4683 24.5022 -2.93365 0 255 0
95.0035 36.7407 -1.70261 0 255 0
91.0043 48.5776 -0.500179 0 255 0
85.5705 59.828 0.664191 0 255 0
78.7616 70.3121 1.76539 0 255 0
70.679 79.8661 2.79443 0 255 0
61.4604 88.3316 3.72002 0 255 0
51.2514 95.5599 4.52912 0 255 0
40.1982 101.48 5.21066 0 255 0
28.4983 105.979 5.73803 0 255 0
16.3249 108.97 6.11909 0 255 0
3.86406 110.418 6.34146 0 255 0
-8.68402 110.309 6.39493 0 255 0
-21.1197 108.644 6.28043 0 255 0
-33.2419 105.442 5.9922 0 255 0
-44.8662 100.744 5.53953 0 255 0
-55.8038 94.6281 4.92915 0 255 0
-65.8835 87.2026 4.14262 0 255 0
-74.9497 78.5751 3.22489 0 255 0
-82.8668 68.905 2.17418 0 255 0
-89.4929 58.3217 1.00611 0 255 0
-94.7105 46.9937 -0.252934 0 255 0
-98.4865 35.1211 -1.58857 0 255 0
-100.73 22.8618 -2.98885 0 255 0
-101.408 10.4265 -4.44601 0 255 0
-100.525 -1.98743 -5.93148 0 255 0
-98.0633 -14.1802 -7.3936 0 255 0
-94.074 -25.9736 -8.85202 0 255 0
-88.634 -37.1758 -10.2666 0 255 0
-81.8227 -47.6028 -11.6142 0 255 0
-73.7531 -57.0976 -12.8835 0 255 0
-64.5527 -65.5197 -14.0467 0 255 0
-54.3539 -72.7198 -15.102 0 255 0
-43.336 -78.5934 -16.0288 0 255 0
-31.656 -83.0581 -16.8074 0 255 0
-19.5034 -86.0032 -17.4389 0 255 0
-7.06874 -87.4079 -17.8972 0 255 0
5.43894 -87.2661 -18.2026 0 255 0
17.8379 -85.5529 -18.3316 0 255 0
29.9302 -82.3297 -18.2941 0 255 0
41.5139 -77.6111 -18.0897 0 255 0
52.4196 -71.4847 -17.7197 0 255 0
62.4781 -64.0619 -17.2005 0 255 0
71.5273 -55.4409 -16.5416 0 255 0
79.3976 -45.752 -15.7485 0 255 0
86.001 -35.1721 -14.8381 0 255 0
91.2329 -23.8552 -13.8256 0 255 0
94.9878 -11.9783 -12.7365 0 255 0
97.2322 0.274015 -11.5856 0 255 0
97.8883 12.6982 -10.389 0 255 0
96.9762 25.1076 -9.16834 0 255 0
94.503 37.3044 -7.94449 0 255 0
90.5335 49.094 -6.73428 0 255 0
85.1031 60.2915 -5.57674 0 255 0
78.323 70.7215 -4.47632 0 255 0
70.2682 80.2289 -3.46702 0 255 0
61.0758 88.6369 -2.55158 0 255 0
50.908 95.8331 -1.7388 0 255 0
39.9119 101.725 -1.06726 0 255 0
28.262 106.177 -0.537546 0 255 0
16.1461 109.152 -0.162473 0 255 0
3.74431 110.581 0.0570404 0 255 0
-8.73335 110.457 0.11159 0 255 0
-21.0989 108.794 0.00770576 0 255 0
-33.1646 105.605 -0.288152 0 255 0
-44.7264 100.923 -0.738075 0 255 0
-55.5933 94.8336 -1.36245 0 255 0
-65.6241 87.4522 -2.12405 0 255 0
-74.6431 78.8807 -3.03756 0 255 0
-82.5073 69.2468 -4.09062 0 255 0
-89.0764 58.7222 -5.24919 0 255 0
-94.286 47.462 -6.50082 0 255 0
-98.0153 35.6406 -7.82939 0 255 0
-100.24 23.4581 -9.23106 0 255 0
-100.909 11.1061 -10.6729 0 255 0
-100.02 -1.23615 -12.1391 0 255 0
-97.5726 -13.3648 -13.6098 0 255 0
-93.6045 -25.0698 -15.0579 0 255 0
-88.1718 -36.1972 -16.4543 0 255 0
-81.3936 -46.5444 -17.7942 0 255 0
-73.3699 -55.9827 -19.0536 0 255 0
-64.2242 -64.3439 -20.2119 0 255 0
-54.1012 -71.4984 -21.2626 0 255 0
-43.1506 -77.3286 -22.1676 0 255 0
-31.5464 -81.724 -22.9425 0 255 0
-19.4702 -84.6521 -23.5702 0 255 0
-7.12569 -86.0389 -24.0254 0 255 0
5.29281 -85.9019 -24.3349 0 255 0
17.6026 -84.2041 -24.4644 0 255 0
29.6056 -80.9731 -24.4205 0 255 0
41.1127 -76.2825 -24.215 0 255 0
51.9363 -70.2193 -23.8561 0 255 0
61.9178 -62.845 -23.3339 0 255 0
70.8769 -54.2667 -22.6797 0 255 0
78.7094 -44.6567 -21.8971 0 255 0
85.2374 -34.1504 -20.9852 0 255 0
90.4258 -22.9192 -19.9878 0 255 0
94.1592 -11.1277 -18.9117 0 255 0
96.354 1.02702 -17.7583 0 255 0
96.9887 13.3488 -16.5676 0 255 0
96.0706 25.6644 -15.35 0 255 0
93.6283 37.7507 -14.1398 0 255 0
89.6761 49.4547 -12.9507 0 255 0
84.2921 60.5569 -11.7956 0 255 0
77.547 70.8929 -10.7076 0 255 0
69.5608 80.3075 -9.70149 0 255 0
60.4473 88.6496 -8.79398 0 255 0
50.3575 95.7849 -7.9945 0 255 0
39.4535 101.6 -7.33103 0 255 0
27.9017 106.015 -6.80525 0 255 0
15.8905 108.945 -6.43337 0 255 0
3.61147 110.362 -6.22596 0 255 0
-8.76652 110.233 -6.17089 0 255 0
-21.0142 108.579 -6.27905 0 255 0
-32.9625 105.406 -6.56592 0 255 0
-44.4121 100.763 -7.01662 0 255 0
-55.1858 94.7208 -7.63107 0 255 0
-65.1132 87.4006 -8.38726 0 255 0
-74.0316 78.9036 -9.28944 0 255 0
-81.8215 69.3627 -10.3283 0 255 0
-88.3267 58.9282 -11.4705 0 255 0
-93.4661 47.7738 -12.7214 0 255 0
-97.1494 36.0775 -14.0346 0 255 0
-99.3312 24.0056 -15.4166 0 255 0
-99.9872 11.7751 -16.85 0 255 0
-99.1032 -0.438001 -18.304 0 255 0
-96.6655 -12.4369 -19.7563 0 255 0
-92.7441 -24.0357 -21.1808 0 255 0
-87.376 -35.0348 -22.5799 0 255 0
-80.6696 -45.289 -23.8997 0 255 0
-72.7244 -54.6156 -25.1402 0 255 0
-63.6719 -62.8894 -26.2884 0 255 0
-53.6402 -69.9529 -27.3248 0 255 0
-42.7939 -75.6933 -28.2228 0 255 0
-31.3206 -80.0521 -28.9979 0 255 0
-19.3695 -82.9359 -29.6131 0 255 0
-7.16201 -84.31 -30.0743 0 255 0
5.1239 -84.165 -30.3774 0 255 0
17.2993 -82.471 -30.4967 0 255 0
29.1726 -79.2743 -30.4494 0 255 0
40.5385 -74.6269 -30.2537 0 255 0
51.2392 -68.611 -29.8888 0 255 0
61.0892 -61.311 -29.3776 0 255 0
69.9438 -52.8328 -28.7295 0 255 0
77.6644 -43.3327 -27.9464 0 255 0
84.1225 -32.949 -27.0534 0 255 0
89.2445 -21.8417 -26.062 0 255 0
92.9101 -10.1827 -24.9922 0 255 0
95.0778 1.81859 -23.8598 0 255 0
95.698 14.0055 -22.6787 0 255 0
94.7935 26.1597 -21.4743 0 255 0
92.3705 38.1164 -20.2848 0 255 0
88.464 49.6584 -19.1059 0 255 0
83.1411 60.6297 -17.976 0 255 0
76.4808 70.8307 -16.8986 0 255 0
68.587 80.12 -15.9058 0 255 0
59.5835 88.3527 -15.007 0 255 0
49.6158 95.3931 -14.2193 0 255 0
38.8356 101.12 -13.5626 0 255 0
27.4418 105.474 -13.0481 0 255 0
15.5801 108.354 -12.6817 0 255 0
3.44625 109.754 -12.4736 0 255 0
-8.76561 109.612 -12.4249 0 255 0
-20.8577 107.964 -12.5399 0 255 0
-32.6362 104.823 -12.814 0 255 0
-43.9332 100.235 -13.2615 0 255 0
-54.558 94.2777 -13.8656 0 255 0
-64.3399 87.0465 -14.6154 0 255 0
-73.1442 78.6548 -15.4984 0 255 0
-80.8292 69.2419 -16.5225 0 255 0
-87.229 58.9455 -17.6549 0 255 0
-92.2927 47.948 -18.8897 0 255 0
-95.9278 36.406 -20.1869 0 255 0
-98.0699 24.5053 -21.5555 0 255 0
-98.7191 12.4442 -22.974 0 255 0
-97.8415 0.397864 -24.404 0 255 0
-95.4267 -11.4337 -25.8296 0 255 0
-91.5363 -22.8584 -27.2428 0 255 0
-86.2383 -33.6968 -28.6074 0 255 0
-79.6267 -43.8045 -29.9105 0 255 0
-71.7944 -53.007 -31.1413 0 255 0
-62.8651 -61.1342 -32.2755 0 255 0
-52.9702 -68.093 -33.2903 0 255 0
-42.2897 -73.7498 -34.1846 0 255 0
-30.9691 -78.0245 -34.9404 0 255 0
-19.2105 -80.8599 -35.5438 0 255 0
-7.17145 -82.2093 -35.9918 0 255 0
4.93384 -82.0433 -36.2873 0 255 0
16.9253 -80.3692 -36.4013 0 255 0
28.6029 -77.2103 -36.3675 0 255 0
39.7974 -72.6261 -36.1653 0 255 0
50.3161 -66.6956 -35.8062 0 255 0
60.0222 -59.506 -35.3075 0 255 0
68.7401 -51.1598 -34.6629 0 255 0
76.3217 -41.7975 -33.8898 0 255 0
82.6801 -31.5703 -33.011 0 255 0
87.7004 -20.6359 -32.0284 0 255 0
91.3013 -9.16362 -30.9791 0 255 0
93.4228 2.65179 -29.865 0 255 0
94.0407 14.6414 -28.6987 0 255 0
93.1508 26.6148 -27.5197 0 255 0
90.7621 38.3644 -26.3561 0 255 0
86.9082 49.7135 -25.1909 0 255 0
81.6529 60.4885 -24.0812 0 255 0
75.1017 70.5281 -23.022 0 255 0
67.3259 79.657 -22.0382 0 255 0
58.4709 87.7492 -21.1559 0 255 0
48.6632 94.6631 -20.3889 0 255 0
38.0622 100.289 -19.7393 0 255 0
26.8457 104.549 -19.2397 0 255 0
15.1926 107.381 -18.8783 0 255 0
3.27043 108.737 -18.6647 0 255 0
-8.73042 108.595 -18.616 0 255 0
-20.6099 106.971 -18.7334 0 255 0
-32.1956 103.879 -19.0139 0 255 0
-43.2886 99.3598 -19.4417 0 255 0
-53.7263 93.5073 -20.0548 0 255 0
-63.3379 86.3881 -20.7777 0 255 0
-71.9753 78.1437 -21.6605 0 255 0
-79.4988 68.8874 -22.6533 0 255 0
-85.7937 58.7756 -23.7718 0 255 0
-90.7754 47.9719 -24.9846 0 255 0
-94.3321 36.6443 -26.2726 0 255 0
-96.4437 24.9512 -27.6132 0 255 0
-97.0752 13.1027 -29.0018 0 255 0
-96.1746 1.28147 -30.3937 0 255 0
-93.7881 -10.3314 -31.7918 0 255 0
-89.9727 -21.5506 -33.186 0 255 0
-84.7752 -32.1898 -34.5178 0 255 0
-78.2805 -42.0999 -35.8052 0 255 0
-70.5785 -51.1084 -37.0143 0 255 0
-61.8153 -59.0926 -38.1189 0 255 0
-52.1023 -65.9105 -39.1167 0 255 0
-41.6131 -71.4576 -39.9925 0 255 0
-30.5076 -75.638 -40.7286 0 255 0
-18.965 -78.4226 -41.3221 0 255 0
-7.15442 -79.743 -41.7786 0 255 0
4.71013 -79.573 -42.0543 0 255 0
16.4706 -77.9238 -42.1759 0 255 0
27.9162 -74.8059 -42.1297 0 255 0
38.8868 -70.3155 -41.9397 0 255 0
49.218 -64.4978 -41.5887 0 255 0
58.7137 -57.4328 -41.0912 0 255 0
67.2483 -49.2384 -40.4615 0 255 0
74.6852 -40.05 -39.7009 0 255 0
80.9176 -30.0331 -38.844 0 255 0
85.8131 -19.3118 -37.8859 0 255 0
89.3389 -8.07252 -36.8502 0 255 0
91.4078 3.52395 -35.7542 0 255 0
91.9958 15.2577 -34.6147 0 255 0
91.1227 26.9801 -33.4632 0 255 0
88.7583 38.4902 -32.3117 0 255 0
84.9867 49.6105 -31.176 0 255 0
79.8512 60.1684 -30.0817 0 255 0
73.4158 69.9891 -29.0532 0 255 0
65.8102 78.9364 -28.0883 0 255 0
57.1137 86.8488 -27.2312 0 255 0
47.5073 93.6039 -26.4697 0 255 0
37.1405 99.1092 -25.8436 0 255 0
26.1503 103.286 -25.3486 0 255 0
14.744 106.05 -24.9968 0 255 0
3.06763 107.371 -24.7903 0 255 0
-8.67912 107.22 -24.7509 0 255 0
-20.2938 105.597 -24.859 0 255 0
-31.63 102.566 -25.1267 0 255 0
-42.4766 98.1382 -25.5607 0 255 0
-52.6831 92.3979 -26.1393 0 255 0
-62.0816 85.4386 -26.8661 0 255 0
-70.5148 77.3597 -27.7164 0 255 0
-77.8667 68.3076 -28.6928 0 255 0
-84.0321 58.4232 -29.7896 0 255 0
-88.8918 47.8531 -30.9765 0 255 0
-92.3602 36.7638 -32.2321 0 255 0
-94.4269 25.342 -33.5497 0 255 0
-95.0195 13.7535 -34.9019 0 255 0
-94.1322 2.19568 -36.2685 0 255 0
-91.7952 -9.14539 -37.6356 0 255 0
-88.0667 -20.1104 -38.9843 0 255 0
-82.9717 -30.5023 -40.2957 0 255 0
-76.6172 -40.1783 -41.5467 0 255 0
-69.0944 -48.9835 -42.736 0 255 0
-60.5201 -56.7738 -43.8233 0 255 0
-51.0348 -63.4285 -44.7927 0 255 0
-40.7883 -68.8432 -45.6486 0 255 0
-29.9327 -72.93 -46.37 0 255 0
-18.6579 -75.625 -46.9506 0 255 0
-7.12813 -76.9043 -47.3747 0 255 0
4.46699 -76.7335 -47.6544 0 255 0
15.933 -75.11 -47.7714 0 255 0
27.1182 -72.0643 -47.7353 0 255 0
37.8306 -67.6858 -47.5434 0 255 0
47.9005 -61.9895 -47.1996 0 255 0
57.1716 -55.0814 -46.7111 0 255 0
65.4945 -47.0864 -46.0957 0 255 0
72.7459 -38.1269 -45.364 0 255 0
78.8156 -28.3348 -44.5238 0 255 0
83.5983 -17.8709 -43.5881 0 255 0
87.0243 -6.88979 -42.5734 0 255 0
89.02 4.41271 -41.4951 0 255 0
89.6035 15.871 -40.3924 0 255 0
88.7328 27.2982 -39.2709 0 255 0
86.4349 38.5223 -38.1407 0 255 0
82.7405 49.3584 -37.0303 0 255 0
77.7118 59.6499 -35.9749 0 255 0
71.4361 69.2276 -34.974 0 255 0
64.0108 77.9358 -34.0369 0 255 0
55.5345 85.6398 -33.1874 0 255 0
46.1674 92.2221 -32.4566 0 255 0
36.0519 97.5875 -31.8442 0 255 0
25.3536 101.64 -31.3625 0 255 0
14.2206 104.332 -31.0134 0 255 0
2.84448 105.599 -30.8198 0 255 0
-8.59336 105.445 -30.7693 0 255 0
-19.9133 103.877 -30.8826 0 255 0
-30.9467 100.916 -31.1506 0 255 0
-41.5131 96.5865 -31.5674 0 255 0
-51.4419 90.9812 -32.1231 0 255 0
-60.5816 84.1823 -32.8334 0 255 0
-68.7919 76.3152 -33.6639 0 255 0
-75.957 67.5 -34.6206 0 255 0
-81.9287 57.8682 -35.6868 0 255 0
-86.6414 47.583 -36.8437 0 255 0
-90.0302 36.7871 -38.069 0 255 0
-92.0172 25.6639 -39.3437 0 255 0
-92.5822 14.394 -40.6515 0 255 0
-91.7143 3.14873 -41.9859 0 255 0
-89.4395 -7.88178 -43.3261 0 255 0
-85.8059 -18.5411 -44.6372 0 255 0
-80.8471 -28.6467 -45.9121 0 255 0
-74.6627 -38.0674 -47.132 0 255 0
-67.3478 -46.6267 -48.2872 0 255 0
-59.0031 -54.1918 -49.3437 0 255 0
-49.7683 -60.6564 -50.2838 0 255 0
-39.8046 -65.8973 -51.1101 0 255 0
-29.2423 -69.8609 -51.8032 0 255 0
-18.276 -72.4799 -52.3709 0 255 0
-7.07516 -73.7155 -52.7944 0 255 0
4.19016 -73.5428 -53.0659 0 255 0
15.3423 -71.9582 -53.1743 0 255 0
26.209 -69.0134 -53.143 0 255 0
36.6053 -64.7335 -52.9571 0 255 0
46.3956 -59.1944 -52.6161 0 255 0
55.3975 -52.4778 -52.1481 0 255 0
63.4791 -44.7176 -51.5603 0 255 0
70.5293 -35.9917 -50.8421 0 255 0
76.3921 -26.4699 -50.0206 0 255 0
81.026 -16.3126 -49.1001 0 255 0
84.3302 -5.64997 -48.1139 0 255 0
86.2741 5.32764 -47.0756 0 255 0
86.8292 16.4494 -46.0074 0 255 0
85.9788 27.5424 -44.9064 0 255 0
83.7352 38.4283 -43.8179 0 255 0
80.1497 48.9475 -42.7456 0 255 0
75.2547 58.9294 -41.7155 0 255 0
69.1589 68.2125 -40.7357 0 255 0
61.9442 76.6576 -39.824 0 255 0
53.7253 84.1323 -39.0105 0 255 0
44.6233 90.5116 -38.2997 0 255 0
34.816 95.7045 -37.7102 0 255 0
24.4353 99.6346 -37.2457 0 255 0
13.6458 102.224 -36.9143 0 255 0
2.60582 103.442 -36.7096 0 255 0
-8.48128 103.295 -36.6725 0 255 0
-19.4618 101.758 -36.7771 0 255 0
-30.1491 98.8681 -37.0401 0 255 0
-40.3852 94.6727 -37.4405 0 255 0
-50.0035 89.2328 -37.9872 0 255 0
-58.8485 82.6427 -38.662 0 255 0
-66.8117 75.0143 -39.4848 0 255 0
-73.7361 66.4697 -40.4098 0 255 0
-79.5151 57.1413 -41.4492 0 255 0
-84.0905 47.165 -42.5638 0 255 0
-87.3541 36.7081 -43.7525 0 255 0
-89.267 25.9361 -44.9821 0 255 0
-89.8033 15.0161 -46.254 0 255 0
-88.9542 4.13738 -47.5416 0 255 0
-86.748 -6.54521 -48.8429 0 255 0
-83.2186 -16.8632 -50.1175 0 255 0
-78.4262 -26.6494 -51.3521 0 255 0
-72.4307 -35.756 -52.531 0 255 0
-65.3261 -44.0279 -53.6479 0 255 0
-57.2434 -51.3432 -54.6633 0 255 0
-48.3107 -57.5957 -55.5821 0 255 0
-38.6484 -62.6626 -56.3671 0 255 0
-28.4419 -66.4869 -57.0386 0 255 0
-17.841 -69.0141 -57.6035 0 255 0
-6.99074 -70.2062 -58.0094 0 255 0
3.89563 -70.0241 -58.2621 0 255 0
14.6743 -68.4912 -58.3613 0 255 0
25.1692 -65.6073 -58.3156 0 255 0
35.2295 -61.4638 -58.1336 0 255 0
44.6816 -56.0989 -57.8062 0 255 0
53.3825 -49.6168 -57.3559 0 255 0
61.1841 -42.1016 -56.7805 0 255 0
67.978 -33.6708 -56.0982 0 255 0
73.6481 -24.4678 -55.29 0 255 0
78.1189 -14.6451 -54.4121 0 255 0
81.2933 -4.34471 -53.4602 0 255 0
83.1705 6.25732 -52.4655 0 255 0
83.7074 17.0045 -51.4323 0 255 0
82.864 27.7165 -50.3598 0 255 0
80.6994 38.2291 -49.3054 0 255 0
77.2232 48.3788 -48.276 0 255 0
72.4937 58.0167 -47.2791 0 255 0
66.6068 66.9798 -46.3458 0 255 0
59.6375 75.1222 -45.4735 0 255 0
51.6925 82.33 -44.68 0 255 0
42.9181 88.4716 -43.9938 0 255 0
33.4419 93.4863 -43.431 0 255 0
23.4183 97.2609 -42.9717 0 255 0
12.9964 99.7625 -42.6584 0 255 0
2.35989 100.94 -42.4694 0 255 0
-8.34169 100.779 -42.4256 0 255 0
-18.9261 99.2885 -42.5406 0 255 0
-29.2346 96.4819 -42.7755 0 255 0
-39.1001 92.4202 -43.1618 0 255 0
-48.3689 87.1762 -43.6972 0 255 0
-56.9026 80.8248 -44.3577 0 255 0
-64.5629 73.4662 -45.1384 0 255 0
-71.2274 65.2086 -46.0325 0 255 0
-76.8001 56.215 -47.036 0 255 0
-81.2012 46.6027 -48.1165 0 255 0
-84.3401 36.5302 -49.2661 0 255 0
-86.1846 26.1428 -50.4577 0 255 0
-86.6847 15.6325 -51.6758 0 255 0
-85.8686 5.14272 -52.9255 0 255 0
-83.7432 -5.15114 -54.1773 0 255 0
-80.3288 -15.086 -55.405 0 255 0
-75.698 -24.5088 -56.5861 0 255 0
-69.9017 -33.2601 -57.718 0 255 0
-63.0657 -41.2139 -58.7811 0 255 0
-55.2715 -48.2523 -59.7652 0 255 0
-46.6576 -54.2591 -60.6451 0 255 0
-37.3647 -59.1275 -61.4103 0 255 0
-27.5432 -62.8156 -62.07 0 255 0
-17.332 -65.2331 -62.5995 0 255 0
-6.90105 -66.3744 -62.9892 0 255 0
3.58714 -66.1871 -63.2299 0 255 0
13.9544 -64.6961 -63.3205 0 255 0
24.0473 -61.9139 -63.2722 0 255 0
33.7163 -57.9218 -63.0974 0 255 0
42.7975 -52.7589 -62.7918 0 255 0
51.1516 -46.5207 -62.3497 0 255 0
58.6439 -39.2787 -61.7953 0 255 0
65.1695 -31.1738 -61.1216 0 255 0
70.6154 -22.3263 -60.3561 0 255 0
74.899 -12.8772 -59.5243 0 255 0
77.9684 -2.97266 -58.612 0 255 0
79.7519 7.21028 -57.6518 0 255 0
80.2493 17.5441 -56.6493 0 255 0
79.4305 27.8283 -55.631 0 255 0
77.3458 37.9393 -54.6228 0 255 0
74.0034 47.6786 -53.6252 0 255 0
69.4636 56.9347 -52.6762 0 255 0
63.7999 65.5354 -51.7766 0 255 0
57.0918 73.3495 -50.938 0 255 0
49.465 80.2556 -50.1792 0 255 0
41.0319 86.1585 -49.5242 0 255 0
31.9285 90.9541 -48.9691 0 255 0
22.3023 94.5697 -48.542 0 255 0
12.2973 96.9592 -48.2426 0 255 0
2.0855 98.0761 -48.0624 0 255 0
-8.18146 97.9197 -48.0319 0 255 0
-18.3325 96.4747 -48.1296 0 255 0
-28.219 93.7762 -48.3597 0 255 0
-37.6866 89.8735 -48.7403 0 255 0
-46.5742 84.8388 -49.2502 0 255 0
-54.7527 78.7413 -49.8802 0 255 0
-62.0897 71.672 -50.6219 0 255 0
-68.4643 63.7595 -51.4825 0 255 0
-73.7976 55.1221 -52.4363 0 255 0
-78.0093 45.9084 -53.4775 0 255 0
-81.0112 36.2534 -54.5755 0 255 0
-82.7517 26.3005 -55.7235 0 255 0
-83.2321 16.2179 -56.8893 0 255 0
-82.4383 6.17402 -58.0843 0 255 0
-80.3896 -3.69207 -59.2843 0 255 0
-77.1169 -13.21 -60.4593 0 255 0
-72.6582 -22.2192 -61.5846 0 255 0
-67.1118 -30.5911 -62.675 0 255 0
-60.5466 -38.2003 -63.6912 0 255 0
-53.0837 -44.9274 -64.631 0 255 0
-44.8368 -50.6624 -65.4617 0 255 0
-35.9423 -55.3316 -66.2182 0 255 0
-26.5431 -58.8549 -66.8418 0 255 0
-16.769 -61.169 -67.3483 0 255 0
-6.78659 -62.249 -67.7215 0 255 0
3.25263 -62.053 -67.952 0 255 0
13.1631 -60.6231 -68.0422 0 255 0
22.8253 -57.9719 -67.9971 0 255 0
32.0692 -54.1345 -67.837 0 255 0
40.755 -49.1936 -67.5412 0 255 0
48.7348 -43.2017 -67.1144 0 255 0
55.8839 -36.2746 -66.574 0 255 0
62.1098 -28.5248 -65.9266 0 255 0
67.3175 -20.0592 -65.196 0 255 0
71.3995 -11.0208 -64.3926 0 255 0
74.3197 -1.55697 -63.5241 0 255 0
76.0246 8.18974 -62.6064 0 255 0
76.4851 18.0484 -61.6495 0 255 0
75.6987 27.884 -60.6767 0 255 0
73.692 37.5203 -59.7102 0 255 0
70.4853 46.8276 -58.7554 0 255 0
66.1521 55.6586 -57.8631 0 255 0
60.7274 63.8649 -56.9991 0 255 0
54.312 71.3243 -56.2042 0 255 0
47.0289 77.9095 -55.4798 0 255 0
38.9758 83.5293 -54.8489 0 255 0
30.2833 88.0945 -54.3201 0 255 0
21.0871 91.5515 -53.9215 0 255 0
11.5574 93.8152 -53.6367 0 255 0
1.80326 94.8754 -53.4677 0 255 0
-7.9887 94.7157 -53.4334 0 255 0
-17.6623 93.3239 -53.5315 0 255 0
-27.1 90.755 -53.7581 0 255 0
-36.1248 87.0194 -54.123 0 255 0
-44.593 82.202 -54.5889 0 255 0
-52.3806 76.3842 -55.1928 0 255 0
-59.3618 69.6436 -55.9148 0 255 0
-65.4308 62.0993 -56.7399 0 255 0
-70.5254 53.8655 -57.6495 0 255 0
-74.5134 45.0758 -58.637 0 255 0
-77.3514 35.8647 -59.6868 0 255 0
-79.0018 26.3769 -60.7661 0 255 0
-79.4429 16.7901 -61.8706 0 255 0
-78.6859 7.21893 -63.0131 0 255 0
-76.729 -2.17055 -64.1483 0 255 0
-73.5959 -11.217 -65.2686 0 255 0
-69.3492 -19.7978 -66.3495 0 255 0
-64.0552 -27.7665 -67.3791 0 255 0
-57.8145 -35.0035 -68.348 0 255 0
-50.7018 -41.3941 -69.2404 0 255 0
-42.8557 -46.8497 -70.0547 0 255 0
-34.3931 -51.2922 -70.7639 0 255 0
-25.4378 -54.6263 -71.3764 0 255 0
-16.1441 -56.8126 -71.8342 0 255 0
-6.64504 -57.817 -72.1804 0 255 0
2.89923 -57.6313 -72.4045 0 255 0
12.3336 -56.2524 -72.4788 0 255 0
21.5084 -53.7314 -72.4432 0 255 0
30.2877 -50.078 -72.2878 0 255 0
38.5316 -45.3653 -72.0044 0 255 0
46.1058 -39.6693 -71.5921 0 255 0
52.8928 -33.0764 -71.0607 0 255 0
58.8017 -25.6957 -70.4554 0 255 0
63.7317 -17.6635 -69.765 0 255 0
67.6026 -9.07009 -68.989 0 255 0
70.366 -0.08951 -68.1723 0 255 0
71.9781 9.1658 -67.3051 0 255 0
72.4006 18.5314 -66.3992 0 255 0
71.6444 27.8513 -65.4782 0 255 0
69.7315 37.0105 -64.5534 0 255 0
66.6803 45.838 -63.6613 0 255 0
62.5514 54.2037 -62.7916 0 255 0
57.3927 61.9834 -61.986 0 255 0
51.3195 69.0473 -61.2327 0 255 0
44.387 75.2919 -60.5501 0 255 0
36.7452 80.6117 -59.9551 0 255 0
28.5014 84.9365 -59.4547 0 255 0
19.7895 88.1959 -59.0713 0 255 0
10.7371 90.3284 -58.7941 0 255 0
1.50957 91.3245 -58.6382 0 255 0
-7.77044 91.1548 -58.6134 0 255 0
-16.9449 89.8351 -58.7121 0 255 0
-25.8789 87.3946 -58.9273 0 255 0
-34.4177 83.8489 -59.2682 0 255 0
-42.4361 79.2885 -59.7328 0 255 0
-49.8044 73.7548 -60.2933 0 255 0
-56.4097 67.37 -60.9641 0 255 0
-62.1486 60.2148 -61.7461 0 255 0
-66.9319 52.4145 -62.6139 0 255 0
-70.6986 44.095 -63.5367 0 255 0
-73.3868 35.3759 -64.5322 0 255 0
-74.9423 26.4124 -65.558 0 255 0
-75.3552 17.3294 -66.6206 0 255 0
-74.6341 8.28676 -67.6944 0 255 0
-72.7594 -0.581728 -68.7646 0 255 0
-69.7932 -9.14246 -69.8234 0 255 0
-65.7616 -17.2535 -70.8472 0 255 0
-60.7604 -24.7865 -71.8311 0 255 0
-54.8481 -31.628 -72.7351 0 255 0
-48.1224 -37.6588 -73.5757 0 255 0
-40.7041 -42.8132 -74.3514 0 255 0
-32.699 -46.9812 -75.0184 0 255 0
-24.2342 -50.1164 -75.5734 0 255 0
-15.4554 -52.1712 -76.0201 0 255 0
-6.47873 -53.1255 -76.3527 0 255 0
2.53289 -52.9464 -76.5601 0 255 0
11.4232 -51.6378 -76.6386 0 255 0
20.0894 -49.2305 -76.5998 0 255 0
28.3593 -45.7705 -76.4403 0 255 0
36.1399 -41.3143 -76.1644 0 255 0
43.2827 -35.9252 -75.7795 0 255 0
49.6906 -29.7119 -75.2947 0 255 0
55.249 -22.7423 -74.7149 0 255 0
59.8948 -15.1573 -74.0674 0 255 0
63.527 -7.04655 -73.3278 0 255 0
66.118 1.4272 -72.5515 0 255 0
67.6229 10.1474 -71.7203 0 255 0
68.0209 18.9805 -70.867 0 255 0
67.2999 27.7638 -70.0052 0 255 0
65.4908 36.3837 -69.1417 0 255 0
62.6084 44.6956 -68.2961 0 255 0
58.7078 52.5777 -67.489 0 255 0
53.8499 59.9046 -66.7266 0 255 0
48.1058 66.55 -66.0149 0 255 0
41.5751 72.4176 -65.3665 0 255 0
34.3755 77.4206 -64.8087 0 255 0
26.6123 81.4855 -64.3489 0 255 0
18.405 84.5319 -63.9779 0 255 0
9.89065 86.5252 -63.7191 0 255 0
1.1945 87.4523 -63.5717 0 255 0
-7.5334 87.2723 -63.5414 0 255 0
-16.1568 86.0258 -63.6377 0 255 0
-24.5558 83.7214 -63.8486 0 255 0
-32.5761 80.3862 -64.1748 0 255 0
-40.1097 76.0864 -64.6062 0 255 0
-47.0274 70.8882 -65.1469 0 255 0
-53.2371 64.8791 -65.7868 0 255 0
-58.6214 58.148 -66.5213 0 255 0
-63.1103 50.8176 -67.3255 0 255 0
-66.6282 42.9855 -68.1986 0 255 0
-69.1413 34.7902 -69.1278 0 255 0
-70.5983 26.3639 -70.0974 0 255 0
-70.9659 17.8506 -71.0866 0 255 0
-70.2817 9.36188 -72.0986 0 255 0
-68.5196 1.02948 -73.1186 0 255 0
-65.7174 -6.99784 -74.0945 0 255 0
-61.9319 -14.5925 -75.0541 0 255 0
-57.2167 -21.6513 -75.9505 0 255 0
-51.6632 -28.0666 -76.821 0 255 0
-45.356 -33.7243 -77.6169 0 255 0
-38.3895 -38.5466 -78.3285 0 255 0
-30.8728 -42.4406 -78.939 0 255 0
-22.9302 -45.3653 -79.4648 0 255 0
-14.698 -47.2766 -79.8786 0 255 0
-6.30411 -48.1535 -80.1954 0 255 0
2.13269 -47.9797 -80.3994 0 255 0
10.474 -46.7601 -80.4788 0 255 0
18.5847 -44.4853 -80.4319 0 255 0
26.3235 -41.2346 -80.2857 0 255 0
33.6059 -37.0596 -80.0325 0 255 0
40.286 -32.0115 -79.66 0 255 0
46.2681 -26.1741 -79.1925 0 255 0
51.4625 -19.6496 -78.6583 0 255 0
55.8005 -12.5397 -78.0537 0 255 0
59.196 -4.96466 -77.3562 0 255 0
61.6073 2.97355 -76.6402 0 255 0
63.0156 11.1334 -75.8683 0 255 0
63.3728 19.384 -75.0691 0 255 0
62.694 27.6072 -74.2702 0 255 0
60.9811 35.6554 -73.4575 0 255 0
58.2715 43.4281 -72.6714 0 255 0
54.6298 50.7916 -71.9262 0 255 0
50.0646 57.6243 -71.1976 0 255 0
44.6912 63.8187 -70.5375 0 255 0
38.5846 69.2961 -69.9275 0 255 0
31.8638 73.9601 -69.4165 0 255 0
24.6066 77.7312 -68.9815 0 255 0
16.9345 80.5693 -68.6309 0 255 0
8.98561 82.4301 -68.3903 0 255 0
0.873299 83.2708 -68.2491 0 255 0
-7.26319 83.1069 -68.2264 0 255 0
-15.3164 81.9304 -68.3122 0 255 0
-23.1383 79.7723 -68.5201 0 255 0
-30.6141 76.6484 -68.8273 0 255 0
-37.6311 72.6224 -69.2343 0 255 0
-44.0675 67.7709 -69.7259 0 255 0
-49.8445 62.161 -70.3317 0 255 0
-54.8591 55.8876 -71.0104 0 255 0
-59.0218 49.0404 -71.7677 0 255 0
-62.3111 41.7495 -72.5888 0 255 0
-64.6293 34.1168 -73.4476 0 255 0
-65.9684 26.2663 -74.3474 0 255 0
-66.3191 18.339 -75.2866 0 255 0
-65.6624 10.4272 -76.2358 0 255 0
-64.0083 2.68526 -77.1662 0 255 0
-61.411 -4.78611 -78.0946 0 255 0
-57.8603 -11.8452 -78.9733 0 255 0
-53.4691 -18.4002 -79.812 0 255 0
-48.2933 -24.3525 -80.6158 0 255 0
-42.4162 -29.608 -81.3364 0 255 0
-35.9313 -34.0774 -81.9965 0 255 0
-28.945 -37.6923 -82.5799 0 255 0
-21.5657 -40.4076 -83.0639 0 255 0
-13.9124 -42.1725 -83.459 0 255 0
-6.10491 -42.9748 -83.7443 0 255 0
1.73253 -42.8013 -83.9359 0 255 0
9.4748 -41.6354 -84.0035 0 255 0
16.9956 -39.5254 -83.9584 0 255 0
24.185 -36.5075 -83.8229 0 255 0
30.9286 -32.6163 -83.5863 0 255 0
37.1298 -27.9233 -83.2459 0 255 0
42.6792 -22.5002 -82.8244 0 255 0
47.4883 -16.4383 -82.3227 0 255 0
51.4996 -9.84334 -81.7529 0 255 0
54.6313 -2.80518 -81.0993 0 255 0
56.8566 4.55415 -80.4261 0 255 0
58.147 12.1158 -79.7148 0 255 0
58.4767 19.7648 -78.9905 0 255 0
57.831 27.3766 -78.2492 0 255 0
56.2344 34.8408 -77.4982 0 255 0
53.7192 42.0261 -76.7621 0 255 0
50.3068 48.8385 -76.0581 0 255 0
46.0746 55.1569 -75.384 0 255 0
41.1102 60.8944 -74.7915 0 255 0
35.4574 65.9583 -74.2314 0 255 0
29.2208 70.259 -73.7521 0 255 0
22.498 73.7374 -73.3417 0 255 0
15.3991 76.3488 -73.0225 0 255 0
8.05234 78.0444 -72.8084 0 255 0
0.551616 78.8241 -72.6792 0 255 0
-6.97449 78.6609 -72.6547 0 255 0
-14.4132 77.5616 -72.7296 0 255 0
-21.6429 75.5448 -72.9117 0 255 0
-28.5372 72.6566 -73.1984 0 255 0
-35.007 68.9287 -73.5753 0 255 0
-40.9447 64.4336 -74.0458 0 255 0
-46.2763 59.2514 -74.6112 0 255 0
-50.8922 53.4416 -75.2325 0 255 0
-54.7404 47.1259 -75.9301 0 255 0
-57.7441 40.386 -76.684 0 255 0
-59.8737 33.351 -77.4848 0 255 0
-61.093 26.1155 -78.3119 0 255 0
-61.4023 18.7972 -79.1616 0 255 0
-60.7854 11.5067 -80.0221 0 255 0
-59.2505 4.37336 -80.8966 0 255 0
-56.8383 -2.50386 -81.7587 0 255 0
-53.5676 -9.00791 -82.5625 0 255 0
-49.5268 -15.0407 -83.3652 0 255 0
-44.7383 -20.5215 -84.0891 0 255 0
-39.3092 -25.3446 -84.7444 0 255 0
-33.3412 -29.4414 -85.3554 0 255 0
-26.9051 -32.7598 -85.8859 0 255 0
-20.1121 -35.2553 -86.3428 0 255 0
-13.0715 -36.8583 -86.702 0 255 0
-5.88367 -37.589 -86.9678 0 255 0
1.32296 -37.4123 -87.1316 0 255 0
8.42602 -36.3367 -87.1924 0 255 0
15.3491 -34.3769 -87.1638 0 255 0
21.9492 -31.5847 -87.0356 0 255 0
28.1411 -27.9983 -86.814 0 255 0
33.8251 -23.6743 -86.4892 0 255 0
38.8997 -18.6888 -86.1034 0 255 0
43.3055 -13.1128 -85.6275 0 255 0
46.972 -7.05376 -85.095 0 255 0
49.8392 -0.59105 -84.5163 0 255 0
51.8856 6.15204 -83.9037 0 255 0
53.0505 13.0869 -83.2492 0 255 0
53.3396 20.1001 -82.5953 0 255 0
52.7343 27.0869 -81.9135 0 255 0
51.255 33.9336 -81.2243 0 255 0
48.9318 40.5131 -80.545 0 255 0
45.8015 46.7499 -79.9028 0 255 0
41.9145 52.5238 -79.2904 0 255 0
37.3485 57.7601 -78.7222 0 255 0
32.1656 62.392 -78.216 0 255 0
26.4505 66.3171 -77.7899 0 255 0
20.3077 69.4934 -77.4225 0 255 0
13.806 71.8652 -77.1328 0 255 0
7.08146 73.407 -76.9189 0 255 0
0.223943 74.1141 -76.8129 0 255 0
-6.6649 73.9518 -76.7993 0 255 0
-13.459 72.9264 -76.8595 0 255 0
-20.056 71.0713 -77.0316 0 255 0
-26.3624 68.4167 -77.2914 0 255 0
-32.2582 65.0056 -77.6375 0 255 0
-37.6775 60.8948 -78.0747 0 255 0
-42.5348 56.1414 -78.5782 0 255 0
-46.7318 50.8361 -79.1551 0 255 0
-50.2258 45.0677 -79.7838 0 255 0
-52.9567 38.9181 -80.473 0 255 0
-54.8765 32.4912 -81.2061 0 255 0
-55.9905 25.8909 -81.9598 0 255 0
-56.2638 19.2179 -82.755 0 255 0
-55.6851 12.5817 -83.5486 0 255 0
-54.2785 6.08123 -84.3301 0 255 0
-52.0563 -0.184885 -85.1112 0 255 0
-49.0756 -6.09351 -85.8476 0 255 0
-45.3728 -11.5863 -86.5529 0 255 0
-41.0154 -16.5599 -87.2172 0 255 0
-36.0771 -20.9303 -87.8307 0 255 0
-30.6365 -24.6613 -88.3867 0 255 0
-24.7703 -27.6704 -88.8619 0 255 0
-18.5849 -29.9142 -89.2703 0 255 0
-12.1754 -31.3604 -89.5906 0 255 0
-5.65411 -31.9998 -89.8188 0 255 0
0.900118 -31.8221 -89.9627 0 255 0
7.3567 -30.8219 -90.0211 0 255 0
13.6261 -29.0387 -89.9948 0 255 0
19.6152 -26.4929 -89.8706 0 255 0
25.2198 -23.2332 -89.6676 0 255 0
30.369 -19.2974 -89.3852 0 255 0
34.9693 -14.764 -89.0321 0 255 0
38.946 -9.71283 -88.6061 0 255 0
42.2629 -4.20662 -88.1199 0 255 0
44.8515 1.65523 -87.5934 0 255 0
46.6853 7.77605 -87.0384 0 255 0
47.7283 14.0723 -86.4572 0 255 0
47.9693 20.4159 -85.8567 0 255 0
47.4211 26.7419 -85.2446 0 255 0
46.0639 32.9219 -84.6066 0 255 0
43.9446 38.873 -84.001 0 255 0
41.1024 44.5067 -83.4141 0 255 0
37.58 49.725 -82.8664 0 255 0
33.4347 54.456 -82.3596 0 255 0
28.7451 58.6235 -81.9001 0 255 0
23.5842 62.1511 -81.5112 0 255 0
18.0216 65.0067 -81.184 0 255 0
12.1555 67.1392 -80.9206 0 255 0
6.07385 68.5264 -80.7372 0 255 0
-0.125144 69.1401 -80.6428 0 255 0
-6.33104 68.9782 -80.6203 0 255 0
-12.456 68.0356 -80.6787 0 255 0
-18.4027 66.3517 -80.8337 0 255 0
-24.0747 63.9538 -81.081 0 255 0
-29.3911 60.8693 -81.401 0 255 0
-34.2655 57.155 -81.7864 0 255 0
-38.6243 52.8651 -82.2453 0 255 0
-42.3912 48.0796 -82.7614 0 255 0
-45.5277 42.8737 -83.3345 0 255 0
-47.9684 37.3377 -83.9561 0 255 0
-49.6954 31.5515 -84.6203 0 255 0
-50.6692 25.6171 -85.2983 0 255 0
-50.8993 19.6122 -86.008 0 255 0
-50.3685 13.6432 -86.7177 0 255 0
-49.0852 7.81218 -87.4117 0 255 0
-47.0737 2.19487 -88.0956 0 255 0
-44.3773 -3.11531 -88.7651 0 255 0
-41.043 -8.02363 -89.4093 0 255 0
-37.1312 -12.4736 -90.0157 0 255 0
-32.7012 -16.4045 -90.5677 0 255 0
-27.8007 -19.7264 -91.058 0 255 0
-22.545 -22.4042 -91.4769 0 255 0
-16.9912 -24.403 -91.8281 0 255 0
-11.2505 -25.6912 -92.1363 0 255 0
-5.3982 -26.2526 -92.3406 0 255 0
0.462465 -26.0799 -92.4715 0 255 0
6.2361 -25.174 -92.5378 0 255 0
11.8443 -23.5648 -92.505 0 255 0
17.1974 -21.2731 -92.3869 0 255 0
22.1981 -18.329 -92.1922 0 255 0
26.7898 -14.8069 -91.9385 0 255 0
30.8938 -10.7433 -91.6092 0 255 0
34.4396 -6.21736 -91.2346 0 255 0
37.3839 -1.29509 -90.7947 0 255 0
39.6768 3.94532 -90.3297 0 255 0
41.2958 9.4133 -89.8287 0 255 0
42.2129 15.0153 -89.3069 0 255 0
42.4149 20.6921 -88.7743 0 255 0
41.9026 26.3249 -88.2276 0 255 0
40.683 31.8276 -87.6809 0 255 0
38.7869 37.1296 -87.1317 0 255 0
36.2429 42.1329 -86.6173 0 255 0
33.0964 46.7679 -86.1303 0 255 0
29.3966 50.9678 -85.6664 0 255 0
25.2066 54.6631 -85.2717 0 255 0
20.6045 57.7935 -84.9288 0 255 0
15.6565 60.3179 -84.6376 0 255 0
10.4373 62.1944 -84.4007 0 255 0
5.03032 63.4092 -84.2433 0 255 0
-0.468759 63.9434 -84.1639 0 255 0
-5.98087 63.7708 -84.1343 0 255 0
-11.4158 62.9274 -84.1933 0 255 0
-16.6899 61.4224 -84.3367 0 255 0
-21.7193 59.2732 -84.5446 0 255 0
-26.4117 56.5171 -84.8266 0 255 0
-30.7188 53.2229 -85.1771 0 255 0
-34.5601 49.4146 -85.579 0 255 0
-37.8941 45.1675 -86.0366 0 255 0
-40.6502 40.5495 -86.5482 0 255 0
-42.8077 35.6476 -87.1079 0 255 0
-44.3069 30.5252 -87.6819 0 255 0
-45.1666 25.267 -88.2826 0 255 0
-45.3422 19.9695 -88.9146 0 255 0
-44.8506 14.7014 -89.5409 0 255 0
-43.701 9.55282 -90.1604 0 255 0
-41.9207 4.60333 -90.7543 0 255 0
-39.5227 -0.0699511 -91.3474 0 255 0
-36.5718 -4.40393 -91.9117 0 255 0
-33.104 -8.3158 -92.4391 0 255 0
-29.1776 -11.76 -92.9286 0 255 0
-24.8617 -14.6715 -93.3632 0 255 0
-20.229 -17.0176 -93.7373 0 255 0
-15.3423 -18.7614 -94.0553 0 255 0
-10.284 -19.8827 -94.3054 0 255 0
-5.14538 -20.3566 -94.4956 0 255 0
0.00898643 -20.1828 -94.6111 0 255 0
5.08722 -19.3743 -94.6477 0 255 0
10.0179 -17.9466 -94.6367 0 255 0
14.7016 -15.9205 -94.5331 0 255 0
19.0858 -13.3238 -94.359 0 255 0
23.1093 -10.214 -94.1343 0 255 0
26.6847 -6.64873 -93.8543 0 255 0
29.7865 -2.66729 -93.5246 0 255 0
32.3528 1.65321 -93.1344 0 255 0
34.3499 6.25685 -92.7262 0 255 0
35.7559 11.0572 -92.2834 0 255 0
36.5381 15.9614 -91.8392 0 255 0
36.6864 20.9152 -91.358 0 255 0
36.2236 25.8377 -90.8705 0 255 0
35.1455 30.6493 -90.3825 0 255 0
33.4744 35.2811 -89.9204 0 255 0
31.23 39.6384 -89.4669 0 255 0
28.4722 43.6786 -89.0539 0 255 0
25.2343 47.3243 -88.6513 0 255 0
21.5706 50.5354 -88.3065 0 255 0
17.5386 53.2538 -88.0149 0 255 0
13.2174 55.4351 -87.7601 0 255 0
8.66603 57.0542 -87.5536 0 255 0
3.96302 58.0869 -87.4071 0 255 0
-0.829717 58.5231 -87.3241 0 255 0
-5.62222 58.3674 -87.3181 0 255 0
-10.3434 57.6169 -87.3741 0 255 0
-14.9105 56.2895 -87.4979 0 255 0
-19.2696 54.4111 -87.6838 0 255 0
-23.3383 52.0126 -87.9383 0 255 0
-27.0604 49.1236 -88.2258 0 255 0
-30.3869 45.8072 -88.5752 0 255 0
-33.2552 42.124 -88.9763 0 255 0
-35.6227 38.1178 -89.4307 0 255 0
-37.4616 33.863 -89.8904 0 255 0
-38.7609 29.4315 -90.4047 0 255 0
-39.4732 24.8861 -90.9343 0 255 0
-39.6105 20.3028 -91.4757 0 255 0
-39.1691 15.7522 -92.002 0 255 0
-38.149 11.3104 -92.5238 0 255 0
-36.5981 7.035 -93.0587 0 255 0
-34.5167 3.00943 -93.5536 0 255 0
-31.9465 -0.704482 -94.0442 0 255 0
-28.9533 -4.07904 -94.4911 0 255 0
-25.5659 -7.02119 -94.9088 0 255 0
-21.8418 -9.52151 -95.2918 0 255 0
-17.8429 -11.5226 -95.612 0 255 0
-13.6339 -13.0044 -95.8797 0 255 0
-9.29542 -13.945 -96.1026 0 255 0
-4.86914 -14.3478 -96.2642 0 255 0
-0.43636 -14.168 -96.3533 0 255 0
3.91334 -13.4501 -96.4021 0 255 0
8.13055 -12.207 -96.3823 0 255 0
12.145 -10.4443 -96.2907 0 255 0
15.9006 -8.20798 -96.1404 0 255 0
19.3202 -5.53336 -95.9329 0 255 0
22.3729 -2.46561 -95.7109 0 255 0
25.0095 0.946311 -95.4218 0 255 0
27.1887 4.65607 -95.0899 0 255 0
28.8724 8.57557 -94.7462 0 255 0
30.0622 12.6802 -94.3801 0 255 0
30.7061 16.8786 -93.9906 0 255 0
30.8249 21.1009 -93.5768 0 255 0
30.396 25.2981 -93.1541 0 255 0
29.4564 29.3889 -92.7421 0 255 0
28.0154 33.3222 -92.3382 0 255 0
26.0943 37.0219 -91.965 0 255 0
23.7321 40.4507 -91.6114 0 255 0
20.9593 43.5452 -91.2952 0 255 0
17.842 46.2517 -91.0052 0 255 0
14.4141 48.5434 -90.75 0 255 0
10.7302 50.3685 -90.5341 0 255 0
6.86794 51.7274 -90.3614 0 255 0
2.88163 52.5762 -90.2293 0 255 0
-1.1778 52.9299 -90.1698 0 255 0
-5.2406 52.7691 -90.1464 0 255 0
-9.21594 52.1158 -90.1954 0 255 0
-13.07 50.9782 -90.3037 0 255 0
-16.753 49.3747 -90.4716 0 255 0
-20.1765 47.3273 -90.6771 0 255 0
-23.2986 44.8871 -90.9312 0 255 0
-26.077 42.0689 -91.2244 0 255 0
-28.4693 38.9386 -91.5506 0 255 0
-30.4446 35.5608 -91.9134 0 255 0
-31.983 31.9775 -92.31 0 255 0
-33.0462 28.244 -92.7492 0 255 0
-33.6383 24.4133 -93.199 0 255 0
-33.7206 20.5813 -93.6519 0 255 0
-33.3298 16.7647 -94.0967 0 255 0
-32.4637 13.0442 -94.5437 0 255 0
-31.1398 9.4782 -94.9876 0 255 0
-29.3776 6.11816 -95.418 0 255 0
-27.2219 3.01538 -95.8266 0 255 0
-24.6947 0.22776 -96.1985 0 255 0
-21.8543 -2.22586 -96.5482 0 255 0
-18.7417 -4.28202 -96.8593 0 255 0
-15.3873 -5.93871 -97.1246 0 255 0
-11.8789 -7.14735 -97.338 0 255 0
-8.25486 -7.90775 -97.5289 0 255 0
-4.57799 -8.20937 -97.6623 0 255 0
-0.906936 -8.05251 -97.7335 0 255 0
2.71577 -7.43664 -97.7624 0 255 0
6.22034 -6.38695 -97.748 0 255 0
9.53324 -4.90802 -97.6837 0 255 0
12.6362 -3.03661 -97.5601 0 255 0
15.4564 -0.791069 -97.4008 0 255 0
17.9677 1.75212 -97.2052 0 255 0
20.1239 4.59345 -96.9623 0 255 0
21.9152 7.66395 -96.6978 0 255 0
23.2808 10.9159 -96.4104 0 255 0
24.2385 14.296 -96.1021 0 255 0
24.7487 17.7655 -95.7688 0 255 0
24.8236 21.2544 -95.4254 0 255 0
24.4385 24.6918 -95.0677 0 255 0
23.6414 28.055 -94.7235 0 255 0
22.4394 31.2735 -94.3982 0 255 0
20.8466 34.3062 -94.0911 0 255 0
18.8842 37.1002 -93.7991 0 255 0
16.6104 39.6196 -93.5419 0 255 0
14.0415 41.8154 -93.3094 0 255 0
11.219 43.6707 -93.1015 0 255 0
8.20417 45.1507 -92.9401 0 255 0
5.03304 46.2415 -92.7955 0 255 0
1.76981 46.903 -92.7101 0 255 0
-1.53743 47.1661 -92.6457 0 255 0
-4.83578 47.0111 -92.636 0 255 0
-8.06947 46.4559 -92.674 0 255 0
-11.1999 45.5035 -92.7415 0 255 0
-14.1719 44.1734 -92.8821 0 255 0
-16.9341 42.4955 -93.0541 0 255 0
-19.4571 40.4899 -93.266 0 255 0
-21.6881 38.1962 -93.4925 0 255 0
-23.5973 35.6554 -93.758 0 255 0
-25.1743 32.913 -94.045 0 255 0
-26.3942 30.0062 -94.3841 0 255 0
-27.2287 26.9877 -94.7353 0 255 0
-27.6654 23.9163 -95.0951 0 255 0
-27.7113 20.823 -95.4661 0 255 0
-27.3639 17.7641 -95.8105 0 255 0
-26.6469 14.78 -96.1777 0 255 0
-25.5679 11.9255 -96.5344 0 255 0
-24.1423 9.25307 -96.8933 0 255 0
-22.3942 6.78908 -97.2108 0 255 0
-20.3593 4.56559 -97.5182 0 255 0
-18.0727 2.63481 -97.7886 0 255 0
-15.5711 1.00694 -98.0308 0 255 0
-12.8863 -0.283956 -98.2522 0 255 0
-10.0875 -1.22407 -98.4362 0 255 0
-7.20352 -1.81025 -98.5725 0 255 0
-4.26528 -2.01975 -98.6816 0 255 0
-1.363 -1.86436 -98.7379 0 255 0
1.50204 -1.3508 -98.7523 0 255 0
4.2755 -0.48865 -98.7221 0 255 0
6.87754 0.70738 -98.6698 0 255 0
9.3106 2.20326 -98.5674 0 255 0
11.5143 3.9907 -98.4425 0 255 0
13.4891 6.02667 -98.293 0 255 0
15.1592 8.2687 -98.1012 0 255 0
16.5378 10.7005 -97.895 0 255 0
17.5966 13.269 -97.6641 0 255 0
18.3088 15.9227 -97.4134 0 255 0
18.6767 18.6335 -97.1495 0 255 0
18.7019 21.3534 -96.8731 0 255 0
18.3898 24.0483 -96.5873 0 255 0
17.7397 26.6511 -96.3376 0 255 0
16.7678 29.1477 -96.0715 0 255 0
15.4956 31.5013 -95.8329 0 255 0
13.9558 33.6547 -95.6123 0 255 0
12.1662 35.5894 -95.4167 0 255 0
10.1638 37.2761 -95.2357 0 255 0
7.96629 38.6829 -95.0889 0 255 0
5.6237 39.7874 -94.9515 0 255 0
3.17554 40.5961 -94.8583 0 255 0
0.655886 41.0905 -94.7892 0 255 0
-1.88728 41.2601 -94.7489 0 255 0
-4.42143 41.1086 -94.7423 0 255 0
-6.89853 40.6641 -94.7647 0 255 0
-9.2888 39.8902 -94.8255 0 255 0
-11.5453 38.8585 -94.9306 0 255 0
-13.6402 37.5424 -95.0653 0 255 0
-15.5328 35.9913 -95.2231 0 255 0
-17.2069 34.2266 -95.4047 0 255 0
-18.6408 32.2792 -95.6078 0 255 0
-19.8069 30.1819 -95.8302 0 255 0
-20.6917 27.9622 -96.0812 0 255 0
-21.2979 25.674 -96.3511 0 255 0
-21.598 23.3572 -96.6262 0 255 0
-21.6012 21.0243 -96.9015 0 255 0
-21.3162 18.735 -97.1748 0 255 0
-20.7474 16.5069 -97.4451 0 255 0
-19.9052 14.3812 -97.7336 0 255 0
-18.8122 12.3858 -97.9914 0 255 0
-17.4806 10.5722 -98.231 0 255 0
-15.94 8.93089 -98.464 0 255 0
-14.215 7.51864 -98.6635 0 255 0
-12.3338 6.34161 -98.8497 0 255 0
-10.3365 5.40815 -98.9929 0 255 0
-8.24596 4.74417 -99.1144 0 255 0
-6.1127 4.34284 -99.2213 0 255 0
-3.94926 4.22223 -99.2905 0 255 0
-1.81039 4.37805 -99.3259 0 255 0
0.29207 4.78443 -99.3388 0 255 0
2.29903 5.44502 -99.3173 0 255 0
4.19613 6.34874 -99.2541 0 255 0
5.95337 7.47123 -99.1956 0 255 0
7.54355 8.79488 -99.1018 0 255 0
8.94277 10.2926 -98.9882 0 255 0
10.1279 11.9508 -98.8355 0 255 0
11.0999 13.7188 -98.6805 0 255 0
11.817 15.5859 -98.5135 0 255 0
12.3009 17.5197 -98.3321 0 255 0
12.5373 19.4684 -98.1422 0 255 0
12.5203 21.412 -97.9409 0 255 0
12.2516 23.344 -97.7526 0 255 0
11.7562 25.1919 -97.5525 0 255 0
11.0215 26.9567 -97.3731 0 255 0
10.0974 28.6073 -97.2106 0 255 0
8.97654 30.1113 -97.0539 0 255 0
7.68309 31.457 -96.9243 0 255 0
6.23817 32.6168 -96.7962 0 255 0
4.67264 33.5608 -96.6855 0 255 0
3.0105 34.313 -96.5911 0 255 0
1.29669 34.8424 -96.5324 0 255 0
-0.465948 35.1517 -96.4971 0 255 0
-2.24337 35.2311 -96.474 0 255 0
-3.99675 35.0951 -96.4729 0 255 0
-5.70975 34.7365 -96.4956 0 255 0
-7.34197 34.1792 -96.5432 0 255 0
-8.86841 33.4175 -96.6203 0 255 0
-10.2789 32.4923 -96.7212 0 255 0
-11.5611 31.4068 -96.8305 0 255 0
-12.667 30.1736 -96.9563 0 255 0
-13.6133 28.8256 -97.0931 0 255 0
-14.365 27.3737 -97.2431 0 255 0
-14.9154 25.8747 -97.4216 0 255 0
-15.2874 24.3305 -97.6041 0 255 0
-15.4502 22.7699 -97.7875 0 255 0
-15.4127 21.2028 -97.974 0 255 0
-15.183 19.6664 -98.1561 0 255 0
-14.765 18.1964 -98.3441 0 255 0
-14.1663 16.8063 -98.5344 0 255 0
-13.4072 15.5239 -98.7043 0 255 0
-12.4992 14.3499 -98.8549 0 255 0
-11.4644 13.3084 -98.9885 0 255 0
-10.3079 12.4159 -99.1207 0 255 0
-9.06381 11.683 -99.2251 0 255 0
-7.75011 11.1251 -99.3142 0 255 0
-6.38862 10.73 -99.407 0 255 0
-5.00533 10.5237 -99.4665 0 255 0
-3.6309 10.4916 -99.5056 0 255 0
-2.2683 10.6289 -99.5251 0 255 0
-0.953966 10.9351 -99.5192 0 255 0
0.31407 11.4053 -99.5011 0 255 0
1.49199 12.0074 -99.4725 0 255 0
2.55947 12.7538 -99.4299 0 255 0
3.51811 13.6072 -99.3733 0 255 0
4.35262 14.5733 -99.2913 0 255 0
5.0497 15.627 -99.1856 0 255 0
5.5897 16.7367 -99.0875 0 255 0
5.99684 17.9018 -98.9805 0 255 0
6.23684 19.081 -98.864 0 255 0
6.33615 20.2744 -98.7489 0 255 0
6.27683 21.4428 -98.6261 0 255 0
6.07044 22.5808 -98.5124 0 255 0
5.7098 23.6646 -98.3937 0 255 0
5.23849 24.7005 -98.2838 0 255 0
4.63803 25.6482 -98.1914 0 255 0
3.94634 26.4961 -98.1064 0 255 0
3.15556 27.2379 -98.0293 0 255 0
2.29709 27.8723 -97.9793 0 255 0
1.35831 28.3744 -97.9279 0 255 0
0.395213 28.7477 -97.8782 0 255 0
-0.597634 28.9952 -97.844 0 255 0
-1.6014 29.1154 -97.8234 0 255 0
-2.59217 29.1036 -97.8189 0 255 0
-3.55609 28.9719 -97.8197 0 255 0
-4.48128 28.7222 -97.8459 0 255 0
-5.36117 28.3547 -97.8678 0 255 0
-6.1607 27.901 -97.9143 0 255 0
-6.89054 27.3498 -97.9647 0 255 0
-7.53117 26.7289 -98.0358 0 255 0
-8.08581 26.0336 -98.1245 0 255 0
-8.53169 25.2863 -98.1949 0 255 0
-8.86969 24.5054 -98.267 0 255 0
-9.11236 23.6921 -98.3582 0 255 0
-9.22571 22.8926 -98.4555 0 255 0
-9.24628 22.093 -98.5489 0 255 0
-9.16537 21.3186 -98.6403 0 255 0
-8.99686 20.5619 -98.7436 0 255 0
-8.7353 19.8718 -98.8372 0 255 0
-8.3871 19.2243 -98.9233 0 255 0
-7.96072 18.6291 -99.0104 0 255 0
-7.47602 18.1096 -99.0776 0 255 0
-6.94768 17.6677 -99.1348 0 255 0
-6.37959 17.306 -99.1796 0 255 0
-5.77775 17.0363 -99.2334 0 255 0
-5.15861 16.8449 -99.2658 0 255 0
-4.51983 16.7348 -99.2933 0 255 0
-3.88559 16.7137 -99.3124 0 255 0
-3.28198 16.7527 -99.3124 0 255 0
-2.69823 16.895 -99.3175 0 255 0
-2.15662 17.1037 -99.3199 0 255 0
-1.67594 17.3562 -99.3168 0 255 0
-1.23125 17.6684 -99.2952 0 255 0
-0.842014 18.0224 -99.2661 0 255 0
-0.516419 18.4207 -99.2394 0 255 0
-0.246151 18.8574 -99.2041 0 255 0
-0.0575083 19.2965 -99.1581 0 255 0
0.0741905 19.7459 -99.0986 0 255 0
0.144075 20.1919 -99.0593 0 255 0
0.151533 20.6243 -99.0191 0 255 0
0.0984888 21.0395 -98.9765 0 255 0
0.00803951 21.4288 -98.9261 0 255 0
-0.154212 21.7863 -98.8924 0 255 0
-0.355215 22.1142 -98.8578 0 255 0
-0.581531 22.403 -98.8512 0 255 0
-0.831694 22.6409 -98.8209 0 255 0
-1.1044 22.8313 -98.7958 0 255 0
-1.38568 22.9674 -98.7653 0 255 0
-1.67134 23.0466 -98.7672 0 255 0
-1.94977 23.1041 -98.7648 0 255 0
-2.23533 23.1102 -98.7435 0 255 0
-2.49295 23.0606 -98.74 0 255 0
-2.73125 23.0073 -98.7447 0 255 0
-2.94251 22.9035 -98.7563 0 255 0
-3.12996 22.7717 -98.7788 0 255 0
-3.27372 22.6341 -98.791 0 255 0
-3.37928 22.4659 -98.8162 0 255 0
-3.4547 22.3079 -98.8374 0 255 0
-3.48765 22.1418 -98.8461 0 255 0
-3.49977 21.9737 -98.8545 0 255 0
-3.47765 21.811 -98.8755 0 255 0
-3.43031 21.6811 -98.8837 0 255 0
-3.34916 21.562 -98.9021 0 255 0
-3.25935 21.48 -98.9181 0 255 0
-3.14439 21.4198 -98.9122 0 255 0
-3.00991 21.398 -98.9138 0 255 0
