ply
format ascii 1.0
element vertex 2500
property float x
property float y
property float z
property uchar red
property uchar green
property uchar blue
end_header
-0.125664 -1.53894e-17 99.9999 0 128 255
-0.241575 -0.0291414 99.9815 0 128 255
-0.366288 -0.0811974 99.978 0 128 255
-0.4747 -0.164034 99.9979 0 128 255
-0.560816 -0.281611 99.9944 0 128 255
-0.61661 -0.422947 99.9814 0 128 255
-0.649608 -0.579387 99.9835 0 128 255
-0.653955 -0.742571 99.9918 0 128 255
-0.60739 -0.932317 99.9862 0 128 255
-0.565019 -1.10291 100.004 0 128 255
-0.476005 -1.27686 100.003 0 128 255
-0.327816 -1.4386 99.9882 0 128 255
-0.151637 -1.59161 99.97 0 128 255
0.0791385 -1.71293 99.9713 0 128 255
0.319023 -1.81347 99.9544 0 128 255
0.576761 -1.88504 99.9219 0 128 255
0.883214 -1.89641 99.9062 0 128 255
1.19269 -1.86995 99.9188 0 128 255
1.51721 -1.79181 99.9186 0 128 255
1.83749 -1.66438 99.9195 0 128 255
2.13338 -1.50553 99.9295 0 128 255
2.4189 -1.27803 99.9469 0 128 255
2.69741 -1.0111 99.9353 0 128 255
2.92523 -0.707125 99.9308 0 128 255
3.11623 -0.353689 99.92 0 128 255
3.27061 0.034369 99.9209 0 128 255
3.36469 0.470774 99.9176 0 128 255
3.38784 0.922265 99.9196 0 128 255
3.37256 1.39539 99.9152 0 128 255
3.28122 1.87975 99.8919 0 128 255
3.14105 2.34427 99.8801 0 128 255
2.91503 2.78997 99.871 0 128 255
2.6332 3.22933 99.85 0 128 255
2.2701 3.64288 99.8579 0 128 255
1.85813 4.00625 99.8433 0 128 255
1.37519 4.31957 99.8589 0 128 255
0.839221 4.59148 99.8593 0 128 255
0.259184 4.78853 99.8502 0 128 255
-0.346714 4.90778 99.8463 0 128 255
-1.0004 4.95489 99.8537 0 128 255
-1.62592 4.92123 99.8559 0 128 255
-2.25915 4.78594 99.8502 0 128 255
-2.90934 4.56363 99.8519 0 128 255
-3.54733 4.26116 99.844 0 128 255
-4.14669 3.8594 99.8236 0 128 255
-4.69649 3.38472 99.8325 0 128 255
-5.19241 2.83941 99.8281 0 128 255
-5.61766 2.20969 99.8282 0 128 255
-5.97285 1.50723 99.8259 0 128 255
-6.24097 0.770753 99.8104 0 128 255
-6.40514 0.0101528 99.7946 0 128 255
-6.47355 -0.819172 99.7905 0 128 255
-6.44202 -1.67104 99.7836 0 128 255
-6.29736 -2.51072 99.7831 0 128 255
-6.03401 -3.33857 99.7757 0 128 255
-5.67519 -4.13748 99.7645 0 128 255
-5.19995 -4.90261 99.7592 0 128 255
-4.61789 -5.61236 99.7525 0 128 255
-3.94449 -6.25241 99.753 0 128 255
-3.18807 -6.80696 99.7415 0 128 255
-2.34587 -7.26822 99.7229 0 128 255
-1.44281 -7.61574 99.7007 0 128 255
-0.46838 -7.85547 99.6872 0 128 255
0.536916 -7.97694 99.6758 0 128 255
1.56709 -7.97352 99.6582 0 128 255
2.58908 -7.82957 99.6344 0 128 255
3.60583 -7.54977 99.6185 0 128 255
4.60199 -7.1387 99.5944 0 128 255
5.54598 -6.60715 99.5839 0 128 255
6.42837 -5.94126 99.5799 0 128 255
7.22404 -5.16053 99.5695 0 128 255
7.93575 -4.26989 99.5621 0 128 255
8.5325 -3.29627 99.5494 0 128 255
8.99991 -2.23642 99.5348 0 128 255
9.33577 -1.09991 99.5207 0 128 255
9.53746 0.0855672 99.5095 0 128 255
9.57792 1.29745 99.4978 0 128 255
9.46326 2.52608 99.4774 0 128 255
9.18622 3.73383 99.4635 0 128 255
8.76379 4.91243 99.4313 0 128 255
8.18521 6.04671 99.4104 0 128 255
7.45577 7.11292 99.3946 0 128 255
6.58296 8.07827 99.3755 0 128 255
5.59196 8.957 99.3596 0 128 255
4.47414 9.69674 99.3524 0 128 255
3.27649 10.288 99.3384 0 128 255
1.96978 10.7434 99.3294 0 128 255
0.617355 11.0361 99.3142 0 128 255
-0.771474 11.1541 99.3014 0 128 255
-2.1981 11.0908 99.301 0 128 255
-3.61056 10.8481 99.3033 0 128 255
-4.98221 10.4156 99.3001 0 128 255
-6.32434 9.82011 99.2992 0 128 255
-7.57595 9.04125 99.3089 0 128 255
-8.73449 8.1129 99.2953 0 128 255
-9.78501 7.03239 99.2854 0 128 255
-10.6958 5.81106 99.2647 0 128 255
-11.4454 4.47934 99.2357 0 128 255
-12.0328 3.04918 99.2322 0 128 255
-12.448 1.52554 99.2267 0 128 255
-12.667 -0.0574966 99.2109 0 128 255
-12.6782 -1.66089 99.1998 0 128 255
-12.4887 -3.26435 99.2011 0 128 255
-12.0973 -4.84917 99.2026 0 128 255
-11.5013 -6.38385 99.1856 0 128 255
-10.7138 -7.84209 99.1675 0 128 255
-9.73162 -9.19942 99.1452 0 128 255
-8.57379 -10.4531 99.1276 0 128 255
-7.26109 -11.5482 99.1007 0 128 255
-5.80076 -12.4761 99.0815 0 128 255
-4.23284 -13.2238 99.061 0 128 255
-2.56736 -13.7651 99.0314 0 128 255
-0.814794 -14.09 99.008 0 128 255
0.978334 -14.2079 98.9769 0 128 255
2.77025 -14.0948 98.948 0 128 255
4.56917 -13.7475 98.9116 0 128 255
6.31484 -13.184 98.8908 0 128 255
7.98248 -12.394 98.8556 0 128 255
9.56064 -11.3878 98.8446 0 128 255
11.0081 -10.1825 98.8253 0 128 255
12.2914 -8.79655 98.8183 0 128 255
13.4162 -7.24048 98.7916 0 128 255
14.3435 -5.55431 98.7659 0 128 255
15.0483 -3.74241 98.7372 0 128 255
15.5297 -1.83866 98.7033 0 128 255
15.7669 0.125851 98.6963 0 128 255
15.7567 2.12399 98.6712 0 128 255
15.4842 4.10692 98.6318 0 128 255
14.9573 6.06186 98.6039 0 128 255
14.1967 7.95615 98.5697 0 128 255
13.1867 9.74557 98.5372 0 128 255
11.9582 11.3902 98.5147 0 128 255
10.5204 12.9024 98.4969 0 128 255
8.8937 14.2249 98.4928 0 128 255
7.08617 15.3431 98.4803 0 128 255
5.13613 16.2249 98.4532 0 128 255
3.08301 16.8628 98.4352 0 128 255
0.960987 17.2475 98.4045 0 128 255
-1.2219 17.3532 98.3918 0 128 255
-3.41029 17.1864 98.3839 0 128 255
-5.56903 16.737 98.3716 0 128 255
-7.6642 16.0228 98.3688 0 128 255
-9.67998 15.0379 98.3605 0 128 255
-11.5614 13.8068 98.3639 0 128 255
-13.2997 12.332 98.351 0 128 255
-14.8362 10.636 98.3342 0 128 255
-16.1654 8.75645 98.3233 0 128 255
-17.2508 6.71203 98.3004 0 128 255
-18.0722 4.53211 98.2827 0 128 255
-18.6147 2.2476 98.2616 0 128 255
-18.8713 -0.115999 98.2436 0 128 255
-18.8334 -2.48654 98.2516 0 128 255
-18.4916 -4.85135 98.2342 0 128 255
-17.8504 -7.16672 98.2144 0 128 255
-16.9178 -9.39963 98.1879 0 128 255
-15.708 -11.5202 98.179 0 128 255
-14.226 -13.4764 98.1621 0 128 255
-12.498 -15.2498 98.1237 0 128 255
-10.5459 -16.802 98.0893 0 128 255
-8.39922 -18.1054 98.0604 0 128 255
-6.11699 -19.1305 98.0299 0 128 255
-3.68036 -19.8535 97.9846 0 128 255
-1.16389 -20.2811 97.9345 0 128 255
1.3932 -20.3727 97.8879 0 128 255
3.96241 -20.1673 97.8387 0 128 255
6.50772 -19.6208 97.8037 0 128 255
8.97137 -18.7749 97.7795 0 128 255
11.3152 -17.5968 97.7378 0 128 255
13.5077 -16.1383 97.713 0 128 255
15.5262 -14.3812 97.6827 0 128 255
17.3056 -12.3997 97.6586 0 128 255
18.8377 -10.1893 97.6209 0 128 255
20.0836 -7.79051 97.5807 0 128 255
21.0309 -5.24208 97.5372 0 128 255
21.6494 -2.5925 97.5054 0 128 255
21.9333 0.145833 97.4841 0 128 255
21.8616 2.92166 97.4394 0 128 255
21.4464 5.67842 97.4026 0 128 255
20.6805 8.37353 97.3751 0 128 255
19.5731 10.9464 97.3188 0 128 255
18.1562 13.3765 97.2766 0 128 255
16.4168 15.6336 97.2465 0 128 255
14.4107 17.6732 97.2343 0 128 255
12.1426 19.4488 97.228 0 128 255
9.66925 20.9184 97.2049 0 128 255
7.00575 22.0883 97.17 0 128 255
4.21018 22.9044 97.1473 0 128 255
1.29866 23.3718 97.1275 0 128 255
-1.63872 23.4827 97.1091 0 128 255
-4.58697 23.2139 97.0862 0 128 255
-7.4994 22.5599 97.0582 0 128 255
-10.319 21.5615 97.0498 0 128 255
-13.0082 20.1958 97.0321 0 128 255
-15.5161 18.5092 97.0292 0 128 255
-17.8021 16.4998 97.0151 0 128 255
-19.8373 14.2125 97.019 0 128 255
-21.5587 11.667 96.9912 0 128 255
-22.9749 8.92214 96.9651 0 128 255
-24.0305 5.99758 96.9415 0 128 255
-24.7182 2.96716 96.9251 0 128 255
-25.0125 -0.154968 96.9141 0 128 255
-24.9155 -3.29762 96.894 0 128 255
-24.4246 -6.41435 96.8672 0 128 255
-23.543 -9.46221 96.8468 0 128 255
-22.2753 -12.3861 96.8215 0 128 255
-20.6461 -15.1477 96.7893 0 128 255
-18.6601 -17.7003 96.7539 0 128 255
-16.3717 -19.9903 96.7243 0 128 255
-13.8046 -21.9856 96.6789 0 128 255
-10.9839 -23.6522 96.6466 0 128 255
-7.96416 -24.9596 96.6052 0 128 255
-4.79246 -25.8686 96.543 0 128 255
-1.51901 -26.3792 96.4871 0 128 255
1.81415 -26.4686 96.4178 0 128 255
5.14519 -26.1462 96.3606 0 128 255
8.42329 -25.4131 96.3274 0 128 255
11.5991 -24.271 96.276 0 128 255
14.6023 -22.7256 96.2197 0 128 255
17.4233 -20.8074 96.1791 0 128 255
19.9865 -18.5339 96.1414 0 128 255
22.255 -15.9535 96.1005 0 128 255
24.1869 -13.0994 96.0523 0 128 255
25.7602 -10.0083 96.0155 0 128 255
26.9263 -6.72916 95.9603 0 128 255
27.6863 -3.31085 95.9363 0 128 255
28.0006 0.188771 95.8731 0 128 255
27.8755 3.71708 95.82 0 128 255
27.3131 7.21653 95.7777 0 128 255
26.3041 10.6328 95.733 0 128 255
24.8747 13.9077 95.6851 0 128 255
23.0342 16.9778 95.638 0 128 255
20.8176 19.8106 95.6117 0 128 255
18.2467 22.3681 95.5851 0 128 255
15.3647 24.5827 95.566 0 128 255
12.2118 26.4247 95.5243 0 128 255
8.83734 27.8552 95.4881 0 128 255
5.2941 28.8588 95.4619 0 128 255
1.64682 29.4202 95.4373 0 128 255
-2.06202 29.5179 95.4193 0 128 255
-5.76015 29.1469 95.4049 0 128 255
-9.41664 28.303 95.3809 0 128 255
-12.9386 27.0126 95.3785 0 128 255
-16.2937 25.2853 95.3662 0 128 255
-19.417 23.1247 95.3399 0 128 255
-22.252 20.5998 95.326 0 128 255
-24.7531 17.7244 95.3237 0 128 255
-26.8833 14.5467 95.296 0 128 255
-28.6087 11.1089 95.2648 0 128 255
-29.897 7.47224 95.2497 0 128 255
-30.7264 3.67813 95.2319 0 128 255
-31.0619 -0.19082 95.2061 0 128 255
-30.9159 -4.10134 95.1858 0 128 255
-30.2678 -7.9564 95.1528 0 128 255
-29.1416 -11.7251 95.1062 0 128 255
-27.5418 -15.343 95.074 0 128 255
-25.5018 -18.7302 95.031 0 128 255
-23.027 -21.8541 94.9829 0 128 255
-20.1877 -24.6505 94.9336 0 128 255
-16.9978 -27.0881 94.8858 0 128 255
-13.519 -29.1082 94.8324 0 128 255
-9.79279 -30.6806 94.7659 0 128 255
-5.89886 -31.7769 94.6954 0 128 255
-1.87475 -32.3815 94.6542 0 128 255
2.20557 -32.4727 94.5888 0 128 255
6.2872 -32.0442 94.5131 0 128 255
10.2955 -31.1116 94.4605 0 128 255
14.1703 -29.6784 94.3953 0 128 255
17.8436 -27.7634 94.3353 0 128 255
21.2625 -25.4032 94.2899 0 128 255
24.3665 -22.6199 94.2382 0 128 255
27.111 -19.4437 94.1857 0 128 255
29.4452 -15.95 94.1231 0 128 255
31.3255 -12.1728 94.0646 0 128 255
32.7192 -8.17393 94.0137 0 128 255
33.6113 -4.01905 93.9463 0 128 255
33.9517 0.229859 93.8648 0 128 255
33.7725 4.50333 93.802 0 128 255
33.0575 8.72836 93.7458 0 128 255
31.8268 12.8543 93.7039 0 128 255
30.0615 16.8056 93.6578 0 128 255
27.8188 20.5112 93.6169 0 128 255
25.1243 23.9287 93.593 0 128 255
22.0137 26.9701 93.5487 0 128 255
18.5097 29.6269 93.5163 0 128 255
14.7 31.82 93.4751 0 128 255
10.6302 33.5224 93.4396 0 128 255
6.36768 34.7083 93.4062 0 128 255
1.96826 35.3461 93.3913 0 128 255
-2.49024 35.4382 93.381 0 128 255
-6.93085 34.9692 93.3497 0 128 255
-11.3017 33.9359 93.3304 0 128 255
-15.5136 32.3717 93.3249 0 128 255
-19.5121 30.2695 93.3 0 128 255
-23.2262 27.664 93.2731 0 128 255
-26.6073 24.6237 93.2495 0 128 255
-29.5835 21.1661 93.2332 0 128 255
-32.1047 17.3569 93.2216 0 128 255
-34.1422 13.2526 93.1958 0 128 255
-35.6524 8.89282 93.1725 0 128 255
-36.6072 4.37924 93.1518 0 128 255
-36.9857 -0.235908 93.1245 0 128 255
-36.7832 -4.87941 93.0938 0 128 255
-35.9901 -9.4665 93.0311 0 128 255
-34.6195 -13.9427 92.9838 0 128 255
-32.7035 -18.2274 92.9415 0 128 255
-30.2478 -22.2419 92.8955 0 128 255
-27.3096 -25.931 92.8588 0 128 255
-23.9225 -29.2304 92.7972 0 128 255
-20.13 -32.0884 92.726 0 128 255
-16.0009 -34.4509 92.6583 0 128 255
-11.589 -36.2904 92.5968 0 128 255
-6.9703 -37.5796 92.5384 0 128 255
-2.22175 -38.2648 92.4649 0 128 255
2.60839 -38.3355 92.3701 0 128 255
7.4138 -37.8161 92.2946 0 128 255
12.1281 -36.6994 92.2291 0 128 255
16.6819 -34.9794 92.1485 0 128 255
20.9995 -32.7041 92.0731 0 128 255
25.0074 -29.893 92.0115 0 128 255
28.6497 -26.6008 91.9404 0 128 255
31.8482 -22.8648 91.8855 0 128 255
34.5745 -18.748 91.8248 0 128 255
36.7606 -14.3055 91.7446 0 128 255
38.3742 -9.60908 91.6674 0 128 255
39.3869 -4.72093 91.5892 0 128 255
39.786 0.254069 91.516 0 128 255
39.5421 5.25349 91.4324 0 128 255
38.6929 10.2151 91.3803 0 128 255
37.224 15.0202 91.3233 0 128 255
35.1449 19.6307 91.269 0 128 255
32.4989 23.9617 91.2274 0 128 255
29.3328 27.9402 91.1892 0 128 255
25.6696 31.4777 91.1329 0 128 255
21.5805 34.5414 91.0965 0 128 255
17.1263 37.0832 91.0514 0 128 255
12.3797 39.0517 91.0169 0 128 255
7.40481 40.4106 90.9975 0 128 255
2.28658 41.1384 90.9707 0 128 255
-2.89356 41.2126 90.9386 0 128 255
-8.06396 40.6466 90.9253 0 128 255
-13.1312 39.4259 90.8912 0 128 255
-18.03 37.5834 90.871 0 128 255
-22.6468 35.122 90.84 0 128 255
-26.9492 32.0959 90.8161 0 128 255
-30.8472 28.5461 90.7985 0 128 255
-34.2893 24.5301 90.7944 0 128 255
-37.1882 20.1 90.7473 0 128 255
-39.5232 15.3292 90.729 0 128 255
-41.2559 10.282 90.7102 0 128 255
-42.3439 5.05553 90.6861 0 128 255
-42.7657 -0.278153 90.6639 0 128 255
-42.5068 -5.64586 90.6156 0 128 255
-41.5794 -10.9557 90.576 0 128 255
-39.9717 -16.1064 90.5134 0 128 255
-37.7332 -21.0369 90.4452 0 128 255
-34.8895 -25.6487 90.3729 0 128 255
-31.4843 -29.8946 90.3377 0 128 255
-27.567 -33.6798 90.2775 0 128 255
-23.1953 -36.9513 90.1959 0 128 255
-18.4306 -39.6603 90.1157 0 128 255
-13.3398 -41.7625 90.0451 0 128 255
-8.0274 -43.2142 89.969 0 128 255
-2.54857 -43.9816 89.888 0 128 255
2.99132 -44.0478 89.8065 0 128 255
8.50369 -43.4402 89.7197 0 128 255
13.9126 -42.1282 89.6187 0 128 255
19.1327 -40.136 89.5284 0 128 255
24.0679 -37.5102 89.4421 0 128 255
28.6555 -34.2761 89.3623 0 128 255
32.8072 -30.4855 89.287 0 128 255
36.4626 -26.1874 89.209 0 128 255
39.5535 -21.4599 89.1229 0 128 255
42.0433 -16.3697 89.0488 0 128 255
43.8676 -10.9893 88.9516 0 128 255
45.0095 -5.4042 88.8692 0 128 255
45.4454 0.278374 88.7924 0 128 255
45.1544 6.0013 88.7151 0 128 255
44.1619 11.6378 88.6467 0 128 255
42.465 17.1245 88.5759 0 128 255
40.0781 22.3839 88.525 0 128 255
37.0497 27.3048 88.4589 0 128 255
33.4151 31.8159 88.4217 0 128 255
29.2364 35.8521 88.3759 0 128 255
24.5743 39.3246 88.33 0 128 255
19.4836 42.2081 88.2886 0 128 255
14.0758 44.4211 88.2305 0 128 255
8.40936 45.9523 88.2056 0 128 255
2.59146 46.7538 88.1731 0 128 255
-3.29695 46.8209 88.1452 0 128 255
-9.17058 46.1654 88.1291 0 128 255
-14.9263 44.7649 88.1067 0 128 255
-20.4716 42.6442 88.0726 0 128 255
-25.7142 39.8493 88.0465 0 128 255
-30.5754 36.4002 88.0223 0 128 255
-34.9759 32.3643 87.9929 0 128 255
-38.8517 27.7921 87.9689 0 128 255
-42.1405 22.7631 87.9273 0 128 255
-44.7551 17.3521 87.8939 0 128 255
-46.6965 11.6416 87.8606 0 128 255
-47.9055 5.70999 87.8447 0 128 255
-48.3675 -0.319821 87.8214 0 128 255
-48.0642 -6.38458 87.7869 0 128 255
-47.0038 -12.377 87.7407 0 128 255
-45.1815 -18.2047 87.6827 0 128 255
-42.636 -23.7575 87.6182 0 128 255
-39.4093 -28.9672 87.5418 0 128 255
-35.5565 -33.7424 87.4825 0 128 255
-31.109 -38.0013 87.3999 0 128 255
-26.162 -41.6809 87.3121 0 128 255
-20.767 -44.7031 87.2143 0 128 255
-15.0369 -47.0551 87.1282 0 128 255
-9.0471 -48.6751 87.0519 0 128 255
-2.8788 -49.5263 86.9693 0 128 255
3.3564 -49.5998 86.8718 0 128 255
9.56071 -48.8886 86.7775 0 128 255
15.6487 -47.4007 86.6665 0 128 255
21.5013 -45.1486 86.5685 0 128 255
27.0457 -42.1676 86.4699 0 128 255
32.1887 -38.5247 86.3803 0 128 255
36.8364 -34.2529 86.2813 0 128 255
40.9284 -29.4191 86.1824 0 128 255
44.387 -24.0941 86.0903 0 128 255
47.1642 -18.3743 86.0019 0 128 255
49.1946 -12.338 85.9044 0 128 255
50.4552 -6.08012 85.8089 0 128 255
50.9178 0.30329 85.7185 0 128 255
50.5838 6.70315 85.6258 0 128 255
49.4524 13.0304 85.5641 0 128 255
47.5376 19.1789 85.4937 0 128 255
44.8521 25.047 85.4225 0 128 255
41.445 30.5341 85.3567 0 128 255
37.3641 35.5822 85.3132 0 128 255
32.6857 40.0749 85.2661 0 128 255
27.4612 43.948 85.2064 0 128 255
21.7665 47.1508 85.1541 0 128 255
15.7112 49.6097 85.0982 0 128 255
9.38516 51.3023 85.0654 0 128 255
2.88803 52.1912 85.029 0 128 255
-3.68731 52.254 85.0009 0 128 255
-10.2349 51.4989 84.993 0 128 255
-16.6485 49.9303 84.9703 0 128 255
-22.8342 47.5543 84.9452 0 128 255
-28.6741 44.4169 84.9104 0 128 255
-34.0843 40.5601 84.8791 0 128 255
-38.9792 36.0424 84.8461 0 128 255
-43.2901 30.9448 84.809 0 128 255
-46.924 25.3379 84.7736 0 128 255
-49.8247 19.3086 84.7298 0 128 255
-51.9687 12.9463 84.7058 0 128 255
-53.2931 6.34098 84.6681 0 128 255
-53.7809 -0.373427 84.6354 0 128 255
-53.435 -7.10446 84.5987 0 128 255
-52.2293 -13.758 84.5427 0 128 255
-50.1829 -20.2181 84.4817 0 128 255
-47.3541 -26.3917 84.4134 0 128 255
-43.7725 -32.1662 84.345 0 128 255
-39.4584 -37.4574 84.2653 0 128 255
-34.5246 -42.1858 84.1907 0 128 255
-29.0213 -46.2401 84.0928 0 128 255
-23.0443 -49.5987 83.9881 0 128 255
-16.6873 -52.1912 83.8916 0 128 255
-10.0312 -53.9529 83.7985 0 128 255
-3.1858 -54.877 83.6905 0 128 255
3.71515 -54.9405 83.5878 0 128 255
10.5895 -54.1375 83.4771 0 128 255
17.3111 -52.4822 83.3724 0 128 255
23.7919 -49.9838 83.2651 0 128 255
29.9271 -46.6802 83.163 0 128 255
35.5931 -42.6195 83.0483 0 128 255
40.7223 -37.8826 82.9399 0 128 255
45.2354 -32.5278 82.831 0 128 255
49.0351 -26.6367 82.7115 0 128 255
52.0857 -20.3071 82.6043 0 128 255
54.3188 -13.6443 82.5125 0 128 255
55.6942 -6.7314 82.409 0 128 255
56.198 0.316436 82.3032 0 128 255
55.8097 7.38429 82.2107 0 128 255
54.5417 14.364 82.1348 0 128 255
52.4153 21.1395 82.0546 0 128 255
49.4514 27.5989 81.9828 0 128 255
45.6894 33.6561 81.9226 0 128 255
41.1838 39.2006 81.8756 0 128 255
36.0128 44.1482 81.8288 0 128 255
30.2328 48.4059 81.7592 0 128 255
23.966 51.9088 81.6953 0 128 255
17.2944 54.6099 81.6475 0 128 255
10.3185 56.4513 81.6017 0 128 255
3.1679 57.4066 81.5489 0 128 255
-4.07566 57.4817 81.5355 0 128 255
-11.2725 56.6326 81.5075 0 128 255
-18.3229 54.8911 81.4835 0 128 255
-25.1016 52.2715 81.4538 0 128 255
-31.5153 48.7972 81.422 0 128 255
-37.447 44.543 81.3739 0 128 255
-42.8289 39.5862 81.362 0 128 255
-47.542 33.976 81.3217 0 128 255
-51.5244 27.8094 81.2809 0 128 255
-54.713 21.1867 81.2633 0 128 255
-57.0349 14.1957 81.2183 0 128 255
-58.4712 6.96605 81.1672 0 128 255
-58.9944 -0.407396 81.1244 0 128 255
-58.596 -7.79565 81.0764 0 128 255
-57.2528 -15.0862 81.0242 0 128 255
-55.0135 -22.1703 80.958 0 128 255
-51.896 -28.929 80.8958 0 128 255
-47.9421 -35.2476 80.808 0 128 255
-43.2098 -41.0229 80.7181 0 128 255
-37.807 -46.1921 80.6355 0 128 255
-31.7692 -50.6357 80.5302 0 128 255
-25.2248 -54.2933 80.4245 0 128 255
-18.2569 -57.1009 80.3189 0 128 255
-10.9736 -59.0199 80.2051 0 128 255
-3.50084 -60.0185 80.0884 0 128 255
4.04592 -60.0586 79.9597 0 128 255
11.5567 -59.1752 79.8462 0 128 255
18.9104 -57.3604 79.7532 0 128 255
25.9936 -54.6158 79.6394 0 128 255
32.6767 -50.9937 79.5248 0 128 255
38.8764 -46.5666 79.4135 0 128 255
44.4667 -41.3825 79.29 0 128 255
49.3629 -35.5221 79.162 0 128 255
53.4981 -29.0856 79.0334 0 128 255
56.8035 -22.1725 78.9114 0 128 255
59.2188 -14.884 78.7945 0 128 255
60.7219 -7.34467 78.6833 0 128 255
61.2582 0.338548 78.581 0 128 255
60.8271 8.0409 78.4847 0 128 255
59.4314 15.6469 78.3954 0 128 255
57.0945 23.0155 78.3135 0 128 255
53.8465 30.047 78.2258 0 128 255
49.7402 36.6373 78.1638 0 128 255
44.8209 42.6588 78.0966 0 128 255
39.1763 48.0271 78.0302 0 128 255
32.8947 52.6599 77.9728 0 128 255
26.054 56.4533 77.906 0 128 255
18.797 59.3807 77.853 0 128 255
11.2165 61.3754 77.8128 0 128 255
3.42197 62.4022 77.7627 0 128 255
-4.43681 62.4577 77.7268 0 128 255
-12.2533 61.535 77.6955 0 128 255
-19.9153 59.6209 77.6622 0 128 255
-27.2795 56.7559 77.6407 0 128 255
-34.2337 52.9842 77.6134 0 128 255
-40.6801 48.359 77.5799 0 128 255
-46.4936 42.959 77.535 0 128 255
-51.6079 36.8792 77.5064 0 128 255
-55.9188 30.1754 77.4717 0 128 255
-59.3632 22.9746 77.444 0 128 255
-61.8846 15.4071 77.4063 0 128 255
-63.4385 7.54564 77.3474 0 128 255
-63.9786 -0.454296 77.3027 0 128 255
-63.5315 -8.46194 77.2547 0 128 255
-62.0725 -16.3693 77.1892 0 128 255
-59.6251 -24.0351 77.1176 0 128 255
-56.2285 -31.3438 77.0313 0 128 255
-51.9334 -38.1851 76.9508 0 128 255
-46.8208 -44.4405 76.8627 0 128 255
-40.9418 -50.0139 76.7639 0 128 255
-34.3981 -54.8215 76.652 0 128 255
-27.3042 -58.7591 76.5252 0 128 255
-19.7654 -61.7974 76.422 0 128 255
-11.8874 -63.8588 76.2928 0 128 255
-3.7956 -64.9208 76.1742 0 128 255
4.35852 -64.9717 76.0522 0 128 255
12.484 -63.9865 75.9263 0 128 255
20.4338 -62.0066 75.8133 0 128 255
28.0795 -59.0309 75.6941 0 128 255
35.3066 -55.123 75.5749 0 128 255
41.9888 -50.3262 75.4556 0 128 255
48.0136 -44.7125 75.3182 0 128 255
53.2975 -38.3765 75.1774 0 128 255
57.7528 -31.4152 75.0458 0 128 255
61.2984 -23.9495 74.9129 0 128 255
63.9067 -16.0824 74.7799 0 128 255
65.5053 -7.93971 74.6575 0 128 255
66.0721 0.351349 74.5545 0 128 255
65.5951 8.65882 74.4537 0 128 255
64.0897 16.8608 74.3701 0 128 255
61.5599 24.8072 74.2733 0 128 255
58.0341 32.3908 74.1844 0 128 255
53.5953 39.4796 74.1025 0 128 255
48.289 45.9608 74.0204 0 128 255
42.1853 51.7276 73.9504 0 128 255
35.4069 56.6945 73.8808 0 128 255
28.048 60.7894 73.8212 0 128 255
20.2251 63.9274 73.7625 0 128 255
12.0606 66.0508 73.7016 0 128 255
3.67726 67.1584 73.6628 0 128 255
-4.78926 67.2132 73.6208 0 128 255
-13.1979 66.1871 73.5809 0 128 255
-21.4341 64.1129 73.5426 0 128 255
-29.3565 61.0374 73.527 0 128 255
-36.8272 56.9618 73.4948 0 128 255
-43.7454 51.9892 73.4589 0 128 255
-49.9941 46.1804 73.4255 0 128 255
-55.4689 39.6258 73.3909 0 128 255
-60.0863 32.409 73.3413 0 128 255
-63.772 24.6758 73.2946 0 128 255
-66.4699 16.5289 73.2539 0 128 255
-68.121 8.09432 73.2059 0 128 255
-68.7057 -0.499059 73.1598 0 128 255
-68.1929 -9.09348 73.0987 0 128 255
-66.6182 -17.5751 73.0335 0 128 255
-63.9854 -25.7989 72.9521 0 128 255
-60.3299 -33.6398 72.8715 0 128 255
-55.7233 -40.965 72.7789 0 128 255
-50.2118 -47.6712 72.6807 0 128 255
-43.9076 -53.6455 72.587 0 128 255
-36.8916 -58.7887 72.4755 0 128 255
-29.2836 -63.0138 72.3503 0 128 255
-21.2003 -66.2451 72.2237 0 128 255
-12.7539 -68.4488 72.1016 0 128 255
-4.09629 -69.5846 71.9677 0 128 255
4.66211 -69.6234 71.8383 0 128 255
13.3625 -68.5575 71.7093 0 128 255
21.874 -66.4245 71.5911 0 128 255
30.051 -63.2277 71.4578 0 128 255
37.7724 -59.0214 71.3152 0 128 255
44.9221 -53.868 71.1742 0 128 255
51.3674 -47.8479 71.0315 0 128 255
57.0131 -41.0647 70.892 0 128 255
61.7718 -33.618 70.7459 0 128 255
65.5767 -25.6237 70.6152 0 128 255
68.3489 -17.2166 70.5 0 128 255
70.0533 -8.4991 70.3692 0 128 255
70.6465 0.369036 70.2458 0 128 255
70.1232 9.24116 70.1419 0 128 255
68.4917 18.0063 70.0226 0 128 255
65.7689 26.4944 69.9283 0 128 255
62.004 34.6019 69.8458 0 128 255
57.2466 42.1709 69.7429 0 128 255
51.5618 49.0766 69.6634 0 128 255
45.0397 55.226 69.5787 0 128 255
37.7778 60.5163 69.4972 0 128 255
29.9252 64.8773 69.4399 0 128 255
21.5747 68.2203 69.3655 0 128 255
12.8552 70.4855 69.3218 0 128 255
3.90149 71.6618 69.2809 0 128 255
-5.12701 71.7052 69.2436 0 128 255
-14.0974 70.5919 69.1937 0 128 255
-22.883 68.374 69.1611 0 128 255
-31.3066 65.0688 69.1316 0 128 255
-39.2758 60.7304 69.0944 0 128 255
-46.6429 55.4168 69.0623 0 128 255
-53.297 49.2128 69.0237 0 128 255
-59.1102 42.2112 68.975 0 128 255
-64.0267 34.5216 68.9263 0 128 255
-67.9425 26.2654 68.8789 0 128 255
-70.8006 17.5853 68.8385 0 128 255
-72.5508 8.60996 68.7804 0 128 255
-73.1495 -0.530733 68.7261 0 128 255
-72.6163 -9.68748 68.6679 0 128 255
-70.9161 -18.7068 68.5861 0 128 255
-68.0945 -27.4628 68.5063 0 128 255
-64.2028 -35.7998 68.42 0 128 255
-59.2733 -43.5894 68.3121 0 128 255
-53.4225 -50.7114 68.2162 0 128 255
-46.7071 -57.0619 68.1113 0 128 255
-39.2445 -62.5145 67.9993 0 128 255
-31.1524 -66.9995 67.8669 0 128 255
-22.552 -70.4311 67.7428 0 128 255
-13.565 -72.7573 67.5981 0 128 255
-4.35701 -73.9382 67.4578 0 128 255
4.94099 -73.9772 67.3309 0 128 255
14.1802 -72.849 67.194 0 128 255
23.2146 -70.5682 67.0545 0 128 255
31.9015 -67.1484 66.917 0 128 255
40.0983 -62.6848 66.766 0 128 255
47.6807 -57.1973 66.6171 0 128 255
54.5199 -50.8112 66.4748 0 128 255
60.5061 -43.6042 66.3284 0 128 255
65.54 -35.6825 66.1627 0 128 255
69.5655 -27.1981 66.0281 0 128 255
72.4943 -18.263 65.8931 0 128 255
74.2987 -9.02534 65.772 0 128 255
74.9107 0.380013 65.6469 0 128 255
74.3474 9.7901 65.5104 0 128 255
72.594 19.0664 65.3964 0 128 255
69.6987 28.0763 65.2883 0 128 255
65.6977 36.6537 65.1914 0 128 255
60.6516 44.6666 65.0987 0 128 255
54.6171 51.9959 65.0208 0 128 255
47.6925 58.5049 64.9293 0 128 255
40.0141 64.0997 64.8461 0 128 255
31.6735 68.7088 64.7744 0 128 255
22.8194 72.2269 64.6976 0 128 255
13.5812 74.6193 64.6534 0 128 255
4.11651 75.8555 64.6061 0 128 255
-5.43249 75.8755 64.5698 0 128 255
-14.9387 74.7107 64.5222 0 128 255
-24.2221 72.3568 64.4968 0 128 255
-33.1495 68.8336 64.4424 0 128 255
-41.5691 64.2419 64.4013 0 128 255
-49.353 58.606 64.3725 0 128 255
-56.3894 52.0401 64.3307 0 128 255
-62.5388 44.6343 64.2933 0 128 255
-67.7241 36.4947 64.2456 0 128 255
-71.8459 27.7601 64.1917 0 128 255
-74.857 18.5847 64.1342 0 128 255
-76.6817 9.08489 64.0787 0 128 255
-77.3281 -0.579032 64.0283 0 128 255
-76.7312 -10.2418 63.9517 0 128 255
-74.9272 -19.7755 63.8633 0 128 255
-71.9475 -29.0206 63.7898 0 128 255
-67.8249 -37.8236 63.7063 0 128 255
-62.6273 -46.0435 63.5965 0 128 255
-56.4218 -53.5631 63.4787 0 128 255
-49.3235 -60.2487 63.3716 0 128 255
-41.4437 -66.0128 63.2526 0 128 255
-32.8873 -70.7277 63.1335 0 128 255
-23.814 -74.3455 62.996 0 128 255
-14.3291 -76.7896 62.8536 0 128 255
-4.61225 -78.0436 62.7091 0 128 255
5.19866 -78.0724 62.5712 0 128 255
14.9357 -76.8617 62.4204 0 128 255
24.4672 -74.4272 62.2673 0 128 255
33.6147 -70.8063 62.1057 0 128 255
42.2577 -66.0814 61.948 0 128 255
50.2399 -60.3033 61.7883 0 128 255
57.4503 -53.561 61.6479 0 128 255
63.7501 -45.962 61.4925 0 128 255
69.0644 -37.6277 61.3387 0 128 255
73.2829 -28.6715 61.1819 0 128 255
76.3758 -19.259 61.044 0 128 255
78.2504 -9.52797 60.908 0 128 255
78.8896 0.38371 60.7727 0 128 255
78.2834 10.3012 60.643 0 128 255
76.4293 20.077 60.5199 0 128 255
73.3721 29.5482 60.414 0 128 255
69.1537 38.5715 60.3071 0 128 255
63.8141 47.008 60.2006 0 128 255
57.4533 54.7029 60.1139 0 128 255
50.174 61.5444 60.0266 0 128 255
42.072 67.4316 59.9285 0 128 255
33.3084 72.2591 59.8624 0 128 255
23.9853 75.9564 59.7946 0 128 255
14.2727 78.4713 59.7317 0 128 255
4.31529 79.7545 59.6878 0 128 255
-5.73502 79.776 59.6418 0 128 255
-15.7134 78.5203 59.6029 0 128 255
-25.4754 76.0379 59.554 0 128 255
-34.8517 72.3349 59.5144 0 128 255
-43.6951 67.4982 59.4707 0 128 255
-51.8666 61.5645 59.432 0 128 255
-59.2438 54.6583 59.3939 0 128 255
-65.7087 46.8708 59.3534 0 128 255
-71.1346 38.312 59.2935 0 128 255
-75.4539 29.1481 59.2415 0 128 255
-78.6025 19.4982 59.1905 0 128 255
-80.5328 9.52928 59.1292 0 128 255
-81.1949 -0.616607 59.0796 0 128 255
-80.5621 -10.7689 58.9948 0 128 255
-78.6478 -20.7696 58.9093 0 128 255
-75.5096 -30.4755 58.8228 0 128 255
-71.1841 -39.6993 58.7389 0 128 255
-65.7257 -48.3289 58.6391 0 128 255
-59.2046 -56.2087 58.5206 0 128 255
-51.7571 -63.2282 58.3995 0 128 255
-43.482 -69.238 58.2766 0 128 255
-34.5078 -74.191 58.1437 0 128 255
-24.9832 -77.9777 58.0072 0 128 255
-15.0491 -80.5343 57.8575 0 128 255
-4.85331 -81.831 57.7026 0 128 255
5.42585 -81.8372 57.5517 0 128 255
15.6418 -80.5566 57.3917 0 128 255
25.6095 -77.9928 57.2183 0 128 255
35.2019 -74.1985 57.0582 0 128 255
44.2422 -69.2325 56.8944 0 128 255
52.6065 -63.1702 56.7307 0 128 255
60.1433 -56.1034 56.576 0 128 255
66.7438 -48.1361 56.4096 0 128 255
72.3119 -39.41 56.2656 0 128 255
76.7348 -30.04 56.1108 0 128 255
79.9494 -20.177 55.9561 0 128 255
81.8939 -9.98638 55.8156 0 128 255
82.5491 0.389186 55.6701 0 128 255
81.8989 10.7751 55.5358 0 128 255
79.9692 20.9961 55.4162 0 128 255
76.7651 30.9071 55.3043 0 128 255
72.3283 40.3409 55.187 0 128 255
66.7366 49.1552 55.0798 0 128 255
60.0721 57.2016 54.9847 0 128 255
52.441 64.3542 54.8827 0 128 255
43.9819 70.5028 54.8068 0 128 255
34.8094 75.5423 54.7194 0 128 255
25.0647 79.4143 54.6571 0 128 255
14.9193 82.0293 54.6011 0 128 255
4.49767 83.3457 54.543 0 128 255
-6.00184 83.3435 54.4843 0 128 255
-16.4419 82.0518 54.4423 0 128 255
-26.6373 79.434 54.4047 0 128 255
-36.4297 75.5706 54.364 0 128 255
-45.6653 70.5059 54.3173 0 128 255
-54.2014 64.3067 54.2762 0 128 255
-61.8977 57.0713 54.2322 0 128 255
-68.6239 48.9184 54.1792 0 128 255
-74.2864 39.9922 54.1267 0 128 255
-78.7797 30.41 54.073 0 128 255
-82.0687 20.3405 54.0142 0 128 255
-84.058 9.93262 53.9538 0 128 255
-84.7404 -0.652755 53.8944 0 128 255
-84.0664 -11.2433 53.8156 0 128 255
-82.0792 -21.692 53.7339 0 128 255
-78.7953 -31.8014 53.6372 0 128 255
-74.2694 -41.4293 53.5416 0 128 255
-68.5579 -50.4165 53.4311 0 128 255
-61.7564 -58.6197 53.3152 0 128 255
-53.974 -65.9124 53.1794 0 128 255
-45.349 -72.1986 53.063 0 128 255
-35.9976 -77.3476 52.9145 0 128 255
-26.0597 -81.2759 52.767 0 128 255
-15.691 -83.9403 52.6246 0 128 255
-5.07394 -85.2984 52.4698 0 128 255
5.64121 -85.2961 52.2962 0 128 255
16.2759 -83.9475 52.1317 0 128 255
26.6782 -81.2776 51.974 0 128 255
36.6532 -77.3278 51.8108 0 128 255
46.0753 -72.1456 51.6336 0 128 255
54.7736 -65.8083 51.4624 0 128 255
62.6106 -58.4364 51.2828 0 128 255
69.4741 -50.1328 51.1267 0 128 255
75.2675 -41.0415 50.9635 0 128 255
79.8571 -31.2806 50.8022 0 128 255
83.1838 -21.0036 50.6387 0 128 255
85.2102 -10.3954 50.4979 0 128 255
85.8818 0.394947 50.3407 0 128 255
85.2022 11.2035 50.2027 0 128 255
83.1707 21.8353 50.0742 0 128 255
79.8181 32.1292 49.9578 0 128 255
75.1883 41.9494 49.8308 0 128 255
69.3835 51.1096 49.7301 0 128 255
62.442 59.4716 49.6286 0 128 255
54.508 66.9071 49.5427 0 128 255
45.7015 73.2838 49.4421 0 128 255
36.1606 78.5336 49.3672 0 128 255
26.038 82.5472 49.2988 0 128 255
15.4788 85.2439 49.2371 0 128 255
4.65349 86.593 49.1724 0 128 255
-6.25811 86.6037 49.115 0 128 255
-17.1048 85.2312 49.0747 0 128 255
-27.6911 82.5114 49.0193 0 128 255
-37.8587 78.4876 48.9883 0 128 255
-47.4577 73.2068 48.9363 0 128 255
-56.3087 66.7538 48.8894 0 128 255
-64.2873 59.2418 48.8438 0 128 255
-71.2754 50.784 48.7875 0 128 255
-77.1302 41.4956 48.7341 0 128 255
-81.8136 31.5621 48.6884 0 128 255
-85.1929 21.0983 48.6153 0 128 255
-87.2598 10.297 48.563 0 128 255
-87.9496 -0.68875 48.4906 0 128 255
-87.2475 -11.686 48.4216 0 128 255
-85.1866 -22.5191 48.334 0 128 255
-81.7764 -33.0117 48.242 0 128 255
-77.066 -42.9921 48.137 0 128 255
-71.1261 -52.2976 48.0142 0 128 255
-64.0573 -60.8058 47.8877 0 128 255
-55.9974 -68.3725 47.7657 0 128 255
-47.0463 -74.8662 47.6256 0 128 255
-37.3332 -80.1998 47.4886 0 128 255
-27.0263 -84.2716 47.3332 0 128 255
-16.2824 -87.0422 47.1915 0 128 255
-5.26984 -88.4272 47.0217 0 128 255
5.83184 -88.4109 46.8511 0 128 255
16.8624 -87.0156 46.6925 0 128 255
27.6195 -84.2329 46.5112 0 128 255
37.9605 -80.1289 46.3333 0 128 255
47.7114 -74.7419 46.1587 0 128 255
56.7178 -68.1835 45.978 0 128 255
64.8397 -60.5386 45.8039 0 128 255
71.9479 -51.9469 45.6341 0 128 255
77.914 -42.5083 45.4597 0 128 255
82.6658 -32.3949 45.2885 0 128 255
86.0979 -21.7597 45.1277 0 128 255
88.1901 -10.7802 44.9804 0 128 255
88.8752 0.399625 44.8224 0 128 255
88.1788 11.5774 44.6886 0 128 255
86.0568 22.5751 44.5476 0 128 255
82.5856 33.235 44.4164 0 128 255
77.7935 43.3862 44.2978 0 128 255
71.7549 52.8666 44.1813 0 128 255
64.5748 61.5032 44.0807 0 128 255
56.3559 69.1838 43.9782 0 128 255
47.2472 75.7875 43.894 0 128 255
37.3727 81.2081 43.8107 0 128 255
26.8992 85.3452 43.74 0 128 255
15.9775 88.1142 43.6704 0 128 255
4.79202 89.5009 43.6035 0 128 255
-6.48888 89.4965 43.5465 0 128 255
-17.6897 88.0874 43.4998 0 128 255
-28.6345 85.2638 43.4623 0 128 255
-39.1479 81.104 43.4062 0 128 255
-49.0466 75.6223 43.3565 0 128 255
-58.1925 68.9449 43.3133 0 128 255
-66.4319 61.1859 43.2599 0 128 255
-73.643 52.4461 43.2117 0 128 255
-79.7084 42.856 43.1662 0 128 255
-84.53 32.5871 43.1085 0 128 255
-88.0164 21.7846 43.0458 0 128 255
-90.12 10.6177 42.9821 0 128 255
-90.8207 -0.723609 42.911 0 128 255
-90.0958 -12.0816 42.8314 0 128 255
-87.9573 -23.2585 42.7367 0 128 255
-84.4232 -34.0773 42.6399 0 128 255
-79.5502 -44.366 42.5346 0 128 255
-73.4247 -53.978 42.4169 0 128 255
-66.1491 -62.7771 42.2952 0 128 255
-57.8115 -70.5744 42.1642 0 128 255
-48.5614 -77.2723 42.0277 0 128 255
-38.5415 -82.7617 41.8831 0 128 255
-27.901 -86.9487 41.7217 0 128 255
-16.8144 -89.7817 41.5569 0 128 255
-5.45579 -91.1985 41.3875 0 128 255
5.99263 -91.1979 41.2282 0 128 255
17.3581 -89.742 41.053 0 128 255
28.4576 -86.8558 40.8678 0 128 255
39.112 -82.6132 40.6872 0 128 255
49.1617 -77.0521 40.5047 0 128 255
58.4316 -70.2842 40.3168 0 128 255
66.7951 -62.4016 40.1341 0 128 255
74.1041 -53.5338 39.9498 0 128 255
80.2546 -43.8175 39.7717 0 128 255
85.1446 -33.391 39.6064 0 128 255
88.6783 -22.4277 39.438 0 128 255
90.8051 -11.1064 39.2693 0 128 255
91.5124 0.396494 39.116 0 128 255
90.7842 11.9109 38.9771 0 128 255
88.5937 23.2359 38.8345 0 128 255
84.9997 34.2085 38.6988 0 128 255
80.077 44.6643 38.5847 0 128 255
73.8519 54.4024 38.462 0 128 255
66.4372 63.2835 38.351 0 128 255
57.9741 71.1851 38.2509 0 128 255
48.6004 77.9839 38.165 0 128 255
38.4433 83.5437 38.0902 0 128 255
27.666 87.7928 38.0132 0 128 255
16.414 90.6489 37.9396 0 128 255
4.90556 92.0755 37.8734 0 128 255
-6.70414 92.072 37.8219 0 128 255
-18.2275 90.6017 37.7693 0 128 255
-29.476 87.6819 37.7191 0 128 255
-40.2703 83.3638 37.6599 0 128 255
-50.4537 77.731 37.6085 0 128 255
-59.8442 70.8686 37.5561 0 128 255
-68.3203 62.8837 37.514 0 128 255
-75.736 53.8974 37.4725 0 128 255
-81.9561 44.0413 37.4201 0 128 255
-86.8962 33.4808 37.3621 0 128 255
-90.4837 22.3733 37.3042 0 128 255
-92.6303 10.906 37.2346 0 128 255
-93.3508 -0.751839 37.155 0 128 255
-92.594 -12.418 37.0743 0 128 255
-90.3882 -23.9046 36.9802 0 128 255
-86.7463 -35.0217 36.8736 0 128 255
-81.7358 -45.5996 36.759 0 128 255
-75.4475 -55.4677 36.6482 0 128 255
-67.9611 -64.4809 36.531 0 128 255
-59.3835 -72.4867 36.394 0 128 255
-49.8853 -79.3632 36.2513 0 128 255
-39.5889 -84.9849 36.0936 0 128 255
-28.6568 -89.275 35.928 0 128 255
-17.2768 -92.1627 35.7576 0 128 255
-5.62563 -93.6149 35.5908 0 128 255
6.13767 -93.6023 35.4217 0 128 255
17.7862 -92.0891 35.2346 0 128 255
29.1673 -89.124 35.0502 0 128 255
40.0979 -84.7605 34.8723 0 128 255
50.3994 -79.0631 34.6795 0 128 255
59.9327 -72.1208 34.4959 0 128 255
68.4953 -64.0288 34.3128 0 128 255
75.9809 -54.9195 34.126 0 128 255
82.2786 -44.9478 33.9447 0 128 255
87.2674 -34.248 33.7616 0 128 255
90.8738 -23.01 33.5757 0 128 255
93.0722 -11.4051 33.4126 0 128 255
93.7743 0.384081 33.255 0 128 255
93.009 12.188 33.1155 0 128 255
90.7674 23.8038 32.9632 0 128 255
87.0928 35.0504 32.829 0 128 255
82.0172 45.7487 32.7046 0 128 255
75.6215 55.7255 32.5894 0 128 255
68.0437 64.8338 32.4769 0 128 255
59.3821 72.9254 32.3774 0 128 255
49.7711 79.8722 32.291 0 128 255
39.363 85.573 32.2061 0 128 255
28.3093 89.9016 32.1261 0 128 255
16.7954 92.8121 32.0475 0 128 255
4.99852 94.2844 31.9919 0 128 255
-6.89026 94.2522 31.9428 0 128 255
-18.6869 92.7543 31.8878 0 128 255
-30.1919 89.7439 31.8283 0 128 255
-41.2459 85.3164 31.7728 0 128 255
-51.6579 79.5544 31.7242 0 128 255
-61.2795 72.5252 31.6755 0 128 255
-69.9441 64.344 31.6315 0 128 255
-77.5229 55.1368 31.578 0 128 255
-83.8804 45.0444 31.5228 0 128 255
-88.9354 34.2374 31.4707 0 128 255
-92.5927 22.8689 31.4031 0 128 255
-94.7942 11.1446 31.3279 0 128 255
-95.5018 -0.787085 31.2442 0 128 255
-94.7246 -12.7117 31.1632 0 128 255
-92.4588 -24.4533 31.0725 0 128 255
-88.7106 -35.822 30.959 0 128 255
-83.5839 -46.622 30.8452 0 128 255
-77.1352 -56.7172 30.7258 0 128 255
-69.4774 -65.9189 30.607 0 128 255
-60.7155 -74.0898 30.4665 0 128 255
-50.9939 -81.1174 30.3219 0 128 255
-40.4704 -86.8618 30.1609 0 128 255
-29.3056 -91.2402 29.9922 0 128 255
-17.6747 -94.1994 29.824 0 128 255
-5.77051 -95.6757 29.6636 0 128 255
6.23761 -95.6451 29.4758 0 128 255
18.1495 -94.0803 29.2884 0 128 255
29.7802 -91.0396 29.0999 0 128 255
40.9311 -86.5826 28.9181 0 128 255
51.4491 -80.7598 28.7251 0 128 255
61.164 -73.6597 28.5371 0 128 255
69.9108 -65.3891 28.3417 0 128 255
77.5514 -56.0809 28.1559 0 128 255
83.9602 -45.8981 27.962 0 128 255
89.0545 -34.9759 27.7796 0 128 255
92.7398 -23.5005 27.607 0 128 255
94.9533 -11.6579 27.4348 0 128 255
95.6737 0.381026 27.2743 0 128 255
94.8944 12.424 27.1143 0 128 255
92.6088 24.2688 26.9658 0 128 255
88.8272 35.7372 26.8267 0 128 255
83.639 46.6466 26.7065 0 128 255
77.128 56.8223 26.5862 0 128 255
69.3922 66.1266 26.478 0 128 255
60.5411 74.3677 26.3778 0 128 255
50.741 81.458 26.2884 0 128 255
40.1205 87.2376 26.2031 0 128 255
28.8396 91.6524 26.1163 0 128 255
17.0968 94.6183 26.0416 0 128 255
5.07724 96.1026 25.9812 0 128 255
-7.04771 96.0804 25.9245 0 128 255
-19.0609 94.5182 25.863 0 128 255
-30.7952 91.4591 25.8137 0 128 255
-42.064 86.966 25.7716 0 128 255
-52.6796 81.0794 25.7151 0 128 255
-62.4645 73.8952 25.6653 0 128 255
-71.276 65.542 25.6056 0 128 255
-78.9801 56.1465 25.5539 0 128 255
-85.4564 45.8689 25.495 0 128 255
-90.6035 34.8645 25.4435 0 128 255
-94.3232 23.2858 25.3807 0 128 255
-96.5678 11.3318 25.2972 0 128 255
-97.2775 -0.812867 25.2218 0 128 255
-96.4684 -12.9508 25.1286 0 128 255
-94.134 -24.9072 25.0351 0 128 255
-90.3338 -36.4697 24.9325 0 128 255
-85.1048 -47.4693 24.8158 0 128 255
-78.5341 -57.735 24.6876 0 128 255
-70.7162 -67.0892 24.5593 0 128 255
-61.7978 -75.3992 24.4274 0 128 255
-51.9134 -82.5374 24.2654 0 128 255
-41.2021 -88.3963 24.1139 0 128 255
-29.8494 -92.8617 23.9438 0 128 255
-18.0046 -95.8549 23.7792 0 128 255
-5.89256 -97.3464 23.6024 0 128 255
6.32395 -97.2885 23.4175 0 128 255
18.4392 -95.6862 23.2199 0 128 255
30.261 -92.6166 23.0374 0 128 255
41.6112 -88.0755 22.8515 0 128 255
52.2973 -82.1347 22.6541 0 128 255
62.1647 -74.905 22.4555 0 128 255
71.0455 -66.4961 22.2682 0 128 255
78.8133 -57.0317 22.0691 0 128 255
85.335 -46.6787 21.8837 0 128 255
90.4965 -35.572 21.69 0 128 255
94.2372 -23.905 21.5163 0 128 255
96.4933 -11.8658 21.3471 0 128 255
97.2214 0.36806 21.182 0 128 255
96.411 12.6019 21.0198 0 128 255
94.0599 24.6467 20.8732 0 128 255
90.215 36.2853 20.7394 0 128 255
84.9282 47.3561 20.5953 0 128 255
78.3009 57.6953 20.477 0 128 255
70.4339 67.1258 20.3714 0 128 255
61.4627 75.5142 20.2622 0 128 255
51.497 82.6802 20.1699 0 128 255
40.6985 88.5409 20.084 0 128 255
29.2585 93.0123 20.0001 0 128 255
17.3315 96.0425 19.9358 0 128 255
5.12207 97.5465 19.8704 0 128 255
-7.17364 97.4972 19.8055 0 128 255
-19.3757 95.9115 19.7462 0 128 255
-31.2893 92.81 19.6984 0 128 255
-42.7133 88.2348 19.6498 0 128 255
-53.4843 82.257 19.6032 0 128 255
-63.4103 74.967 19.5447 0 128 255
-72.3465 66.4841 19.4978 0 128 255
-80.1568 56.9512 19.434 0 128 255
-86.7258 46.519 19.3828 0 128 255
-91.9411 35.3477 19.3272 0 128 255
-95.6964 23.6019 19.2526 0 128 255
-97.9639 11.4741 19.1651 0 128 255
-98.6681 -0.835164 19.0945 0 128 255
-97.8308 -13.1536 18.9985 0 128 255
-95.4519 -25.2629 18.9017 0 128 255
-91.5865 -36.9811 18.8003 0 128 255
-86.283 -48.1246 18.6899 0 128 255
-79.6097 -58.5254 18.5599 0 128 255
-71.6844 -67.9936 18.4245 0 128 255
-62.6468 -76.413 18.2784 0 128 255
-52.6278 -83.6567 18.1283 0 128 255
-41.7776 -89.5816 17.9668 0 128 255
-30.2612 -94.0982 17.8 0 128 255
-18.2735 -97.1314 17.6363 0 128 255
-5.99158 -98.6343 17.4501 0 128 255
6.37703 -98.5631 17.2591 0 128 255
18.6464 -96.9496 17.0693 0 128 255
30.6296 -93.8212 16.8881 0 128 255
42.1103 -89.209 16.6948 0 128 255
52.9384 -83.1827 16.5034 0 128 255
62.9287 -75.8715 16.2924 0 128 255
71.9215 -67.3462 16.1012 0 128 255
79.7717 -57.7629 15.9108 0 128 255
86.3622 -47.2688 15.7067 0 128 255
91.5837 -36.0167 15.5236 0 128 255
95.3653 -24.224 15.3487 0 128 255
97.6411 -12.0226 15.1683 0 128 255
98.3634 0.358203 14.9991 0 128 255
97.5259 12.7404 14.8464 0 128 255
95.1333 24.9178 14.6888 0 128 255
91.2279 36.6915 14.5412 0 128 255
85.8776 47.8918 14.4103 0 128 255
79.171 58.3393 14.2932 0 128 255
71.2111 67.8814 14.1802 0 128 255
62.124 76.3434 14.0702 0 128 255
52.0449 83.5876 13.9727 0 128 255
41.1254 89.5238 13.8949 0 128 255
29.5515 94.0536 13.8133 0 128 255
17.4964 97.1084 13.7424 0 128 255
5.15488 98.6195 13.6795 0 128 255
-7.27463 98.5537 13.6179 0 128 255
-19.6106 96.9461 13.5627 0 128 255
-31.6459 93.7885 13.5092 0 128 255
-43.1955 89.1518 13.4575 0 128 255
-54.0729 83.0989 13.4069 0 128 255
-64.1054 75.7336 13.3526 0 128 255
-73.1357 67.1575 13.2948 0 128 255
-81.0224 57.5329 13.2397 0 128 255
-87.6435 46.9905 13.1851 0 128 255
-92.8986 35.6904 13.1247 0 128 255
-96.6889 23.826 13.0467 0 128 255
-98.9495 11.5753 12.9678 0 128 255
-99.6707 -0.865082 12.8919 0 128 255
-98.8189 -13.2963 12.8003 0 128 255
-96.4143 -25.5196 12.699 0 128 255
-92.5059 -37.3587 12.5957 0 128 255
-87.1289 -48.6061 12.4858 0 128 255
-80.3973 -59.0984 12.3578 0 128 255
-72.3991 -68.659 12.2212 0 128 255
-63.2753 -77.1695 12.0755 0 128 255
-53.1498 -84.4494 11.9243 0 128 255
-42.1876 -90.4238 11.7554 0 128 255
-30.5692 -94.9631 11.5961 0 128 255
-18.4695 -98.02 11.4166 0 128 255
-6.07253 -99.5109 11.2342 0 128 255
6.41633 -99.449 11.0445 0 128 255
18.7837 -97.8054 10.8535 0 128 255
30.8596 -94.6484 10.6652 0 128 255
42.4478 -89.9856 10.4663 0 128 255
53.3592 -83.908 10.2671 0 128 255
63.4311 -76.516 10.064 0 128 255
72.5004 -67.9254 9.86719 0 128 255
80.4123 -58.2581 9.66847 0 128 255
87.0452 -47.6662 9.48028 0 128 255
92.3081 -36.3321 9.29021 0 128 255
96.1052 -24.4243 9.10325 0 128 255
98.3731 -12.1358 8.93033 0 128 255
99.0985 0.343675 8.76048 0 128 255
98.2449 12.81 8.60014 0 128 255
95.8322 25.0823 8.44586 0 128 255
91.8898 36.9514 8.30071 0 128 255
86.4992 48.239 8.1648 0 128 255
79.7385 58.7473 8.04268 0 128 255
71.7124 68.3552 7.92988 0 128 255
62.5438 76.8779 7.8324 0 128 255
52.3896 84.1796 7.73518 0 128 255
41.3945 90.1536 7.64327 0 128 255
29.7385 94.7175 7.56833 0 128 255
17.5936 97.7685 7.49505 0 128 255
5.16853 99.2919 7.42293 0 128 255
-7.35245 99.2103 7.36832 0 128 255
-19.7721 97.5767 7.30747 0 128 255
-31.8936 94.4149 7.2633 0 128 255
-43.5081 89.7321 7.20649 0 128 255
-54.458 83.6293 7.15697 0 128 255
-64.5573 76.2108 7.09799 0 128 255
-73.6274 67.5708 7.03877 0 128 255
-81.5595 57.8754 6.99003 0 128 255
-88.2174 47.2628 6.93025 0 128 255
-93.4963 35.8977 6.86681 0 128 255
-97.2849 23.951 6.79548 0 128 255
-99.572 11.625 6.72435 0 128 255
-100.289 -0.891918 6.64411 0 128 255
-99.4362 -13.3914 6.54811 0 128 255
-97.0234 -25.6973 6.45101 0 128 255
-93.0737 -37.5976 6.34261 0 128 255
-87.6512 -48.8997 6.23289 0 128 255
-80.8791 -59.4481 6.10562 0 128 255
-72.8276 -69.0625 5.96787 0 128 255
-63.6477 -77.5834 5.81828 0 128 255
-53.4598 -84.9132 5.6603 0 128 255
-42.4378 -90.9059 5.49997 0 128 255
-30.7594 -95.4694 5.33138 0 128 255
-18.5927 -98.516 5.15806 0 128 255
-6.13983 -100.007 4.97292 0 128 255
6.40945 -99.9365 4.77608 0 128 255
18.846 -98.2951 4.58964 0 128 255
30.9752 -95.1011 4.39621 0 128 255
42.6113 -90.4107 4.19875 0 128 255
53.5672 -84.3118 3.99341 0 128 255
63.678 -76.8774 3.80042 0 128 255
72.7875 -68.2468 3.59599 0 128 255
80.727 -58.5253 3.39831 0 128 255
87.3911 -47.8952 3.20946 0 128 255
92.6533 -36.4999 3.01374 0 128 255
96.461 -24.5378 2.83257 0 128 255
98.7298 -12.2024 2.65058 0 128 255
99.446 0.33139 2.4823 0 128 255
98.5905 12.8491 2.32273 0 128 255
96.149 25.1623 2.1716 0 128 255
92.1989 37.0678 2.03588 0 128 255
86.7707 48.3904 1.89502 0 128 255
79.9849 58.9461 1.76926 0 128 255
71.9308 68.5806 1.66219 0 128 255
62.7356 77.1281 1.55094 0 128 255
52.5379 84.448 1.46293 0 128 255
41.4958 90.436 1.3753 0 128 255
29.7969 94.9878 1.29639 0 128 255
17.6225 98.0364 1.21817 0 128 255
5.15343 99.5473 1.14677 0 128 255
-7.40699 99.4694 1.09121 0 128 255
-19.8559 97.8344 1.03634 0 128 255
-32.0109 94.6491 0.986413 0 128 255
-43.6471 89.9444 0.941482 0 128 255
-54.6249 83.8322 0.888007 0 128 255
-64.7469 76.3783 0.819713 0 128 255
-73.8525 67.7258 0.7631 0 128 255
-81.7921 57.9965 0.703288 0 128 255
-88.4626 47.3504 0.653123 0 128 255
-93.7243 35.9539 0.581916 0 128 255
-97.5207 23.9863 0.523256 0 128 255
-99.803 11.6293 0.445603 0 128 255
-100.504 -0.908405 0.357484 0 128 255
-99.6591 -13.4433 0.272708 0 128 255
-97.2395 -25.7682 0.172357 0 128 255
-93.2585 -37.6736 0.0709721 0 128 255
-87.8285 -48.9968 -0.0532276 0 128 255
-81.0248 -59.5521 -0.180679 0 128 255
-72.9642 -69.1733 -0.309212 0 128 255
-63.7649 -77.7179 -0.4653 0 128 255
-53.5604 -85.0356 -0.614576 0 128 255
-42.5293 -91.0278 -0.779192 0 128 255
-30.8164 -95.5919 -0.958352 0 128 255
-18.6477 -98.6272 -1.12282 0 128 255
-6.17265 -100.116 -1.31241 0 128 255
6.37985 -100.032 -1.49203 0 128 255
18.8288 -98.3846 -1.68922 0 128 255
30.9709 -95.1916 -1.88537 0 128 255
42.6191 -90.4956 -2.08328 0 128 255
53.5671 -84.3797 -2.28382 0 128 255
63.6784 -76.9332 -2.48442 0 128 255
72.7784 -68.2834 -2.67657 0 128 255
80.7079 -58.5553 -2.8835 0 128 255
87.3514 -47.9057 -3.06976 0 128 255
92.6386 -36.5244 -3.25855 0 128 255
96.4494 -24.5686 -3.44803 0 128 255
98.715 -12.2239 -3.62697 0 128 255
99.424 0.300985 -3.80258 0 128 255
98.5576 12.8345 -3.96068 0 128 255
96.1169 25.1392 -4.10567 0 128 255
92.1343 37.0418 -4.24925 0 128 255
86.7203 48.3612 -4.38288 0 128 255
79.9343 58.9167 -4.51191 0 128 255
71.8753 68.5445 -4.62152 0 128 255
62.6721 77.076 -4.72162 0 128 255
52.4722 84.3601 -4.81304 0 128 255
41.4323 90.3427 -4.90016 0 128 255
29.743 94.8962 -4.9901 0 128 255
17.5751 97.9305 -5.06122 0 128 255
5.11777 99.4246 -5.12558 0 128 255
-7.43017 99.3426 -5.18603 0 128 255
-19.8697 97.6975 -5.23993 0 128 255
-31.997 94.5062 -5.29655 0 128 255
-43.6269 89.803 -5.34636 0 128 255
-54.5802 83.6856 -5.39183 0 128 255
-64.6822 76.2489 -5.46068 0 128 255
-73.7685 67.5952 -5.51851 0 128 255
-81.7033 57.883 -5.57939 0 128 255
-88.3465 47.2462 -5.64234 0 128 255
-93.5832 35.8579 -5.70015 0 128 255
-97.3805 23.9175 -5.7604 0 128 255
-99.6443 11.5844 -5.82759 0 128 255
-100.351 -0.932579 -5.91563 0 128 255
-99.4956 -13.435 -6.01971 0 128 255
-97.0515 -25.7176 -6.10739 0 128 255
-93.0726 -37.6012 -6.2188 0 128 255
-87.6496 -48.8978 -6.33814 0 128 255
-80.8687 -59.429 -6.46564 0 128 255
-72.8259 -69.0281 -6.60467 0 128 255
-63.6415 -77.5462 -6.74137 0 128 255
-53.4534 -84.839 -6.894 0 128 255
-42.4455 -90.8029 -7.05908 0 128 255
-30.7704 -95.35 -7.22378 0 128 255
-18.6187 -98.3672 -7.40605 0 128 255
-6.18352 -99.8356 -7.58371 0 128 255
6.32585 -99.7509 -7.77687 0 128 255
18.7312 -98.087 -7.96609 0 128 255
30.8348 -94.9082 -8.16208 0 128 255
42.4284 -90.2122 -8.35993 0 128 255
53.3496 -84.1055 -8.55615 0 128 255
63.424 -76.6874 -8.75233 0 128 255
72.4883 -68.0617 -8.95493 0 128 255
80.3819 -58.3614 -9.15292 0 128 255
87.0099 -47.7601 -9.34351 0 128 255
92.2698 -36.4135 -9.52977 0 128 255
96.0481 -24.4966 -9.71556 0 128 255
98.3207 -12.1958 -9.89391 0 128 255
99.0084 0.282461 -10.0668 0 128 255
98.1248 12.7519 -10.2282 0 128 255
95.6691 25.0115 -10.374 0 128 255
91.7245 36.8699 -10.5061 0 128 255
86.3185 48.1374 -10.6416 0 128 255
79.5607 58.639 -10.7639 0 128 255
71.527 68.2175 -10.8873 0 128 255
62.3481 76.6888 -10.9931 0 128 255
52.1912 83.9424 -11.0768 0 128 255
41.2092 89.8977 -11.1688 0 128 255
29.5698 94.4074 -11.251 0 128 255
17.4597 97.425 -11.3264 0 128 255
5.06158 98.8894 -11.3899 0 128 255
-7.41721 98.7944 -11.4449 0 128 255
-19.786 97.1519 -11.489 0 128 255
-31.8587 93.9769 -11.5553 0 128 255
-43.427 89.2909 -11.6023 0 128 255
-54.3083 83.1984 -11.6647 0 128 255
-64.3563 75.8041 -11.714 0 128 255
-73.3995 67.2088 -11.7724 0 128 255
-81.285 57.5359 -11.8406 0 128 255
-87.8747 46.9601 -11.8998 0 128 255
-93.1028 35.6376 -11.9563 0 128 255
-96.8502 23.7481 -12.0158 0 128 255
-99.0989 11.4904 -12.0933 0 128 255
-99.7902 -0.943481 -12.1742 0 128 255
-98.933 -13.3736 -12.2677 0 128 255
-96.5004 -25.5926 -12.3705 0 128 255
-92.5468 -37.3905 -12.4824 0 128 255
-87.136 -48.6131 -12.5927 0 128 255
-80.3857 -59.0642 -12.7209 0 128 255
-72.3856 -68.604 -12.8579 0 128 255
-63.246 -77.0518 -12.9922 0 128 255
-53.1343 -84.2976 -13.1477 0 128 255
-42.1942 -90.2177 -13.2954 0 128 255
-30.5945 -94.6892 -13.4649 0 128 255
-18.5216 -97.6926 -13.6466 0 128 255
-6.17738 -99.1468 -13.8249 0 128 255
6.24509 -99.0722 -14.0229 0 128 255
18.5596 -97.4177 -14.2112 0 128 255
30.5726 -94.2276 -14.4014 0 128 255
42.0882 -89.559 -14.596 0 128 255
52.9277 -83.5173 -14.7966 0 128 255
62.9282 -76.153 -14.9888 0 128 255
71.9065 -67.5726 -15.1914 0 128 255
79.7604 -57.9494 -15.39 0 128 255
86.3132 -47.4201 -15.5736 0 128 255
91.5286 -36.1588 -15.7659 0 128 255
95.2805 -24.3262 -15.9515 0 128 255
97.505 -12.1256 -16.1207 0 128 255
98.1696 0.250164 -16.2874 0 128 255
97.2745 12.626 -16.4403 0 128 255
94.86 24.777 -16.5899 0 128 255
90.93 36.5472 -16.7328 0 128 255
85.5669 47.7185 -16.8587 0 128 255
78.8445 58.1254 -16.982 0 128 255
70.879 67.6105 -17.0984 0 128 255
61.7817 76.0194 -17.206 0 128 255
51.7069 83.2194 -17.2971 0 128 255
40.8152 89.0952 -17.3865 0 128 255
29.2721 93.5631 -17.4673 0 128 255
17.266 96.5344 -17.541 0 128 255
4.98864 97.9848 -17.6104 0 128 255
-7.38964 97.8793 -17.6624 0 128 255
-19.6406 96.2494 -17.7124 0 128 255
-31.5943 93.0884 -17.77 0 128 255
-43.0536 88.4474 -17.8222 0 128 255
-53.8405 82.3997 -17.88 0 128 255
-63.7899 75.0705 -17.9293 0 128 255
-72.7243 66.5422 -17.9818 0 128 255
-80.5342 56.9602 -18.0441 0 128 255
-87.0554 46.4737 -18.0945 0 128 255
-92.212 35.2577 -18.1618 0 128 255
-95.9185 23.4966 -18.2206 0 128 255
-98.1299 11.3522 -18.2915 0 128 255
-98.8172 -0.960477 -18.3795 0 128 255
-97.9601 -13.2608 -18.4756 0 128 255
-95.5365 -25.3501 -18.5731 0 128 255
-91.6311 -37.0408 -18.6745 0 128 255
-86.2848 -48.1373 -18.8022 0 128 255
-79.6041 -58.4917 -18.922 0 128 255
-71.6717 -67.9118 -19.0477 0 128 255
-62.6282 -76.2728 -19.1856 0 128 255
-52.6093 -83.4284 -19.3366 0 128 255
-41.7698 -89.2518 -19.4875 0 128 255
-30.2999 -93.6842 -19.6619 0 128 255
-18.3549 -96.6497 -19.8399 0 128 255
-6.1488 -98.0942 -20.0259 0 128 255
6.14014 -98.0049 -20.2186 0 128 255
18.3205 -96.3555 -20.3993 0 128 255
30.2025 -93.1975 -20.5839 0 128 255
41.5779 -88.5762 -20.7848 0 128 255
52.2938 -82.5795 -20.9754 0 128 255
62.1636 -75.2918 -21.1725 0 128 255
71.0404 -66.8127 -21.3701 0 128 255
78.7778 -57.2968 -21.5573 0 128 255
85.2609 -46.8914 -21.7465 0 128 255
90.4058 -35.7523 -21.9307 0 128 255
94.0942 -24.0539 -22.112 0 128 255
96.2942 -12.0082 -22.2864 0 128 255
96.9309 0.233634 -22.4417 0 128 255
96.0546 12.4464 -22.5924 0 128 255
93.6612 24.4666 -22.7488 0 128 255
89.7725 36.0733 -22.8823 0 128 255
84.4672 47.1104 -23.0162 0 128 255
77.8303 57.3787 -23.1369 0 128 255
69.9547 66.7335 -23.2488 0 128 255
60.9819 75.0457 -23.3586 0 128 255
51.0259 82.1485 -23.447 0 128 255
40.2575 87.9334 -23.5345 0 128 255
28.8702 92.3346 -23.6157 0 128 255
17.013 95.2559 -23.686 0 128 255
4.88159 96.692 -23.7531 0 128 255
-7.33012 96.5774 -23.8105 0 128 255
-19.4234 94.9454 -23.8645 0 128 255
-31.2082 91.8181 -23.9107 0 128 255
-42.5151 87.2325 -23.9646 0 128 255
-53.1565 81.2769 -24.0221 0 128 255
-62.9561 74.0318 -24.073 0 128 255
-71.7701 65.6053 -24.113 0 128 255
-79.475 56.1524 -24.1726 0 128 255
-85.8918 45.8057 -24.2297 0 128 255
-90.9801 34.7508 -24.3002 0 128 255
-94.6317 23.1436 -24.3571 0 128 255
-96.8014 11.1714 -24.4321 0 128 255
-97.4837 -0.969608 -24.5263 0 128 255
-96.6282 -13.1007 -24.6149 0 128 255
-94.2311 -25.0217 -24.705 0 128 255
-90.3606 -36.5386 -24.8161 0 128 255
-85.0926 -47.477 -24.9315 0 128 255
-78.5013 -57.6822 -25.0489 0 128 255
-70.6781 -66.9746 -25.179 0 128 255
-61.7582 -75.1898 -25.3208 0 128 255
-51.872 -82.2323 -25.4611 0 128 255
-41.1987 -87.9715 -25.6183 0 128 255
-29.8861 -92.3272 -25.7885 0 128 255
-18.1312 -95.2342 -25.9588 0 128 255
-6.09255 -96.6471 -26.1343 0 128 255
6.01322 -96.5394 -26.3256 0 128 255
18.0098 -94.9117 -26.5005 0 128 255
29.6966 -91.7951 -26.6986 0 128 255
40.9026 -87.2383 -26.8877 0 128 255
51.4364 -81.3277 -27.0774 0 128 255
61.1587 -74.146 -27.2728 0 128 255
69.8918 -65.7935 -27.4598 0 128 255
77.493 -56.4182 -27.6439 0 128 255
83.876 -46.1699 -27.8303 0 128 255
88.9182 -35.2033 -28.0057 0 128 255
92.5489 -23.6959 -28.1912 0 128 255
94.7 -11.8358 -28.3617 0 128 255
95.3354 0.206159 -28.5124 0 128 255
94.4708 12.2373 -28.6648 0 128 255
92.1062 24.0475 -28.8228 0 128 255
88.2735 35.4614 -28.9487 0 128 255
83.0407 46.3008 -29.0855 0 128 255
76.5097 56.4066 -29.203 0 128 255
68.7573 65.6063 -29.3083 0 128 255
59.9258 73.7705 -29.4121 0 128 255
50.1322 80.7472 -29.5088 0 128 255
39.5417 86.428 -29.5897 0 128 255
28.3318 90.7343 -29.6719 0 128 255
16.683 93.6092 -29.7399 0 128 255
4.76301 94.9958 -29.7938 0 128 255
-7.23863 94.8887 -29.8526 0 128 255
-19.1193 93.2836 -29.9112 0 128 255
-30.7085 90.198 -29.9631 0 128 255
-41.8146 85.6887 -30.0058 0 128 255
-52.2676 79.8328 -30.0819 0 128 255
-61.886 72.6864 -30.1091 0 128 255
-70.5345 64.41 -30.1649 0 128 255
-78.0757 55.1174 -30.2087 0 128 255
-84.3894 44.9566 -30.2707 0 128 255
-89.3926 34.0971 -30.3409 0 128 255
-92.9739 22.7072 -30.4145 0 128 255
-95.1141 10.9455 -30.4852 0 128 255
-95.7692 -0.980269 -30.5701 0 128 255
-94.8893 -12.8832 -30.643 0 128 255
-92.5296 -24.5838 -30.735 0 128 255
-88.7364 -35.8957 -30.8499 0 128 255
-83.5573 -46.6253 -30.951 0 128 255
-77.0775 -56.6274 -31.0738 0 128 255
-69.3939 -65.7307 -31.2094 0 128 255
-60.6404 -73.7989 -31.3388 0 128 255
-50.9369 -80.7038 -31.4802 0 128 255
-40.4564 -86.3323 -31.6354 0 128 255
-29.3589 -90.5927 -31.7981 0 128 255
-17.8209 -93.4531 -31.968 0 128 255
-6.01293 -94.8454 -32.1633 0 128 255
5.85631 -94.7325 -32.3352 0 128 255
17.6215 -93.1228 -32.5161 0 128 255
29.071 -90.0322 -32.694 0 128 255
40.0534 -85.5701 -32.8867 0 128 255
50.3971 -79.7707 -33.0739 0 128 255
59.9084 -72.7137 -33.2595 0 128 255
68.4568 -64.5139 -33.4457 0 128 255
75.909 -55.3108 -33.6218 0 128 255
82.1592 -45.2716 -33.8054 0 128 255
87.0838 -34.5248 -33.9879 0 128 255
90.6449 -23.2515 -34.1633 0 128 255
92.7467 -11.6126 -34.3334 0 128 255
93.3518 0.174238 -34.4794 0 128 255
92.5054 11.9531 -34.6325 0 128 255
90.1606 23.5225 -34.7744 0 128 255
86.4121 34.7061 -34.9077 0 128 255
81.2926 45.3256 -35.0302 0 128 255
74.8832 55.2139 -35.1555 0 128 255
67.3048 64.2345 -35.2601 0 128 255
58.6246 72.21 -35.364 0 128 255
49.0312 79.0246 -35.4473 0 128 255
38.675 84.5821 -35.5346 0 128 255
27.6922 88.8098 -35.6102 0 128 255
16.2914 91.6197 -35.6804 0 128 255
4.61668 92.9754 -35.7366 0 128 255
-7.13019 92.8523 -35.8011 0 128 255
-18.7473 91.2436 -35.8445 0 128 255
-30.0885 88.2189 -35.887 0 128 255
-40.944 83.7966 -35.9432 0 128 255
-51.1612 78.0495 -35.9911 0 128 255
-60.571 71.0695 -36.0419 0 128 255
-69.0175 62.9624 -36.0829 0 128 255
-76.3876 53.8724 -36.1285 0 128 255
-82.5696 43.9409 -36.1945 0 128 255
-87.4468 33.3158 -36.262 0 128 255
-90.9416 22.1667 -36.3295 0 128 255
-93.0412 10.6777 -36.4103 0 128 255
-93.654 -0.98626 -36.4842 0 128 255
-92.7863 -12.6236 -36.5618 0 128 255
-90.4702 -24.0492 -36.6495 0 128 255
-86.7643 -35.1034 -36.7486 0 128 255
-81.6845 -45.5833 -36.856 0 128 255
-75.3488 -55.3486 -36.9725 0 128 255
-67.8403 -64.2448 -37.1096 0 128 255
-59.277 -72.1183 -37.2447 0 128 255
-49.8041 -78.8582 -37.3799 0 128 255
-39.5706 -84.362 -37.538 0 128 255
-28.7231 -88.5315 -37.7001 0 128 255
-17.4519 -91.2995 -37.8714 0 128 255
-5.92168 -92.6425 -38.0362 0 128 255
5.67737 -92.5257 -38.2152 0 128 255
17.1474 -90.9412 -38.3941 0 128 255
28.3392 -87.9265 -38.5757 0 128 255
39.061 -83.5734 -38.7573 0 128 255
49.1411 -77.891 -38.9386 0 128 255
58.4257 -70.9892 -39.1175 0 128 255
66.7618 -62.9878 -39.2965 0 128 255
74.0281 -54.0152 -39.4777 0 128 255
80.1179 -44.2034 -39.657 0 128 255
84.9281 -33.7138 -39.8324 0 128 255
88.3903 -22.7003 -40.005 0 128 255
90.4109 -11.3558 -40.1574 0 128 255
91.0163 0.152942 -40.3106 0 128 255
90.1685 11.6333 -40.461 0 128 255
87.8923 22.9158 -40.5938 0 128 255
84.2163 33.8124 -40.7171 0 128 255
79.2099 44.1663 -40.8516 0 128 255
72.9608 53.8108 -40.9762 0 128 255
65.5639 62.5929 -41.0824 0 128 255
57.1013 70.3588 -41.1687 0 128 255
47.7448 76.9961 -41.2599 0 128 255
37.6378 82.4112 -41.34 0 128 255
26.9479 86.5132 -41.4134 0 128 255
15.8207 89.2517 -41.4757 0 128 255
4.44689 90.5506 -41.5366 0 128 255
-6.99152 90.4217 -41.5831 0 128 255
-18.314 88.8705 -41.6357 0 128 255
-29.3521 85.9199 -41.6886 0 128 255
-39.9262 81.5906 -41.7322 0 128 255
-49.8654 75.9784 -41.7686 0 128 255
-59.0188 69.1629 -41.8203 0 128 255
-67.2376 61.2631 -41.8562 0 128 255
-74.4227 52.4143 -41.9123 0 128 255
-80.4145 42.7396 -41.9773 0 128 255
-85.1538 32.4028 -42.0478 0 128 255
-88.5669 21.5469 -42.1156 0 128 255
-90.5797 10.3574 -42.1826 0 128 255
-91.1613 -0.987053 -42.2452 0 128 255
-90.3093 -12.3096 -42.3246 0 128 255
-88.052 -23.4234 -42.4173 0 128 255
-84.437 -34.1654 -42.5123 0 128 255
-79.4959 -44.3573 -42.618 0 128 255
-73.327 -53.8629 -42.7304 0 128 255
-66.0297 -62.5145 -42.8649 0 128 255
-57.6985 -70.1642 -43.0001 0 128 255
-48.4764 -76.7113 -43.1302 0 128 255
-38.5235 -82.0334 -43.2769 0 128 255
-27.9686 -86.0747 -43.4273 0 128 255
-17.0058 -88.7643 -43.5957 0 128 255
-5.80616 -90.0628 -43.7693 0 128 255
5.46155 -89.9441 -43.9459 0 128 255
16.6186 -88.4027 -44.1161 0 128 255
27.4926 -85.4905 -44.2967 0 128 255
37.8981 -81.2337 -44.476 0 128 255
47.6999 -75.7091 -44.6468 0 128 255
56.7158 -68.9995 -44.8275 0 128 255
64.8066 -61.2301 -45.0063 0 128 255
71.8742 -52.4912 -45.1785 0 128 255
77.7532 -42.9499 -45.3486 0 128 255
82.4125 -32.7663 -45.5051 0 128 255
85.7511 -22.0738 -45.6752 0 128 255
87.7168 -11.0541 -45.8274 0 128 255
88.296 0.115406 -45.981 0 128 255
87.4696 11.2619 -46.1163 0 128 255
85.2448 22.2017 -46.2517 0 128 255
81.6853 32.783 -46.3801 0 128 255
76.8121 42.8265 -46.504 0 128 255
70.7429 52.1761 -46.6164 0 128 255
63.5476 60.6854 -46.7112 0 128 255
55.3429 68.2177 -46.8063 0 128 255
46.2486 74.6488 -46.8878 0 128 255
36.4535 79.894 -46.974 0 128 255
26.0803 83.8727 -47.0471 0 128 255
15.296 86.5021 -47.1111 0 128 255
4.25918 87.7547 -47.1524 0 128 255
-6.82742 87.6351 -47.2116 0 128 255
-17.8095 86.1158 -47.2568 0 128 255
-28.5012 83.2294 -47.3029 0 128 255
-38.7453 79.039 -47.346 0 128 255
-48.3748 73.5952 -47.3907 0 128 255
-57.2319 66.9886 -47.4249 0 128 255
-65.2059 59.3275 -47.4781 0 128 255
-72.1546 50.753 -47.5355 0 128 255
-77.9476 41.3767 -47.5985 0 128 255
-82.5543 31.354 -47.6648 0 128 255
-85.8422 20.8384 -47.7326 0 128 255
-87.7774 10.0029 -47.7911 0 128 255
-88.3289 -0.98799 -47.8567 0 128 255
-87.4931 -11.9427 -47.9261 0 128 255
-85.3049 -22.7067 -48.0221 0 128 255
-81.7915 -33.1044 -48.1184 0 128 255
-77.0173 -42.9746 -48.2199 0 128 255
-71.0397 -52.1663 -48.3285 0 128 255
-63.9472 -60.5221 -48.4549 0 128 255
-55.8758 -67.9181 -48.5785 0 128 255
-46.9522 -74.2466 -48.7115 0 128 255
-37.304 -79.3947 -48.8427 0 128 255
-27.1066 -83.2927 -48.9901 0 128 255
-16.5086 -85.8874 -49.1674 0 128 255
-5.65923 -87.1474 -49.337 0 128 255
5.22889 -87.0186 -49.5014 0 128 255
16.0137 -85.5292 -49.6608 0 128 255
26.5151 -82.6738 -49.824 0 128 255
36.5836 -78.5518 -49.9951 0 128 255
46.0469 -73.2011 -50.1629 0 128 255
54.7606 -66.7231 -50.3368 0 128 255
62.5712 -59.1978 -50.5019 0 128 255
69.3852 -50.7605 -50.6865 0 128 255
75.073 -41.5362 -50.8362 0 128 255
79.5738 -31.6916 -51.0064 0 128 255
82.775 -21.3583 -51.1642 0 128 255
84.6719 -10.7146 -51.3178 0 128 255
85.2325 0.0783722 -51.4675 0 128 255
84.4081 10.8414 -51.588 0 128 255
82.264 21.409 -51.7143 0 128 255
78.8129 31.6169 -51.8441 0 128 255
74.1104 41.3154 -51.9664 0 128 255
68.2469 50.3421 -52.0854 0 128 255
61.2897 58.5408 -52.1798 0 128 255
53.3557 65.8021 -52.2583 0 128 255
44.5932 71.9992 -52.3395 0 128 255
35.1289 77.0656 -52.4293 0 128 255
25.1113 80.883 -52.4848 0 128 255
14.695 83.4238 -52.5552 0 128 255
4.0615 84.6316 -52.6023 0 128 255
-6.64064 84.5009 -52.6508 0 128 255
-17.2274 83.0286 -52.7083 0 128 255
-27.5388 80.2303 -52.735 0 128 255
-37.415 76.1764 -52.7768 0 128 255
-46.6921 70.9215 -52.8242 0 128 255
-55.236 64.5515 -52.8648 0 128 255
-62.9107 57.1677 -52.9071 0 128 255
-69.5886 48.8742 -52.9537 0 128 255
-75.182 39.8381 -53.0218 0 128 255
-79.6105 30.1798 -53.0922 0 128 255
-82.7723 20.0502 -53.1624 0 128 255
-84.6435 9.6003 -53.229 0 128 255
-85.1593 -0.97858 -53.2843 0 128 255
-84.3562 -11.5442 -53.3574 0 128 255
-82.2509 -21.9159 -53.4535 0 128 255
-78.8537 -31.9296 -53.5467 0 128 255
-74.2413 -41.4353 -53.6359 0 128 255
-68.4528 -50.2635 -53.7324 0 128 255
-61.625 -58.2928 -53.8391 0 128 255
-53.845 -65.4113 -53.9679 0 128 255
-45.2413 -71.4916 -54.0941 0 128 255
-35.9624 -76.4413 -54.2344 0 128 255
-26.1456 -80.1936 -54.3815 0 128 255
-15.9382 -82.6809 -54.5419 0 128 255
-5.50837 -83.8873 -54.7068 0 128 255
4.98052 -83.7495 -54.8637 0 128 255
15.3539 -82.2991 -55.0127 0 128 255
25.452 -79.5424 -55.166 0 128 255
35.1328 -75.5796 -55.3378 0 128 255
44.2281 -70.4342 -55.5104 0 128 255
52.5885 -64.1906 -55.6608 0 128 255
60.0938 -56.9428 -55.8263 0 128 255
66.6435 -48.8328 -55.9901 0 128 255
72.1081 -39.9646 -56.145 0 128 255
76.4176 -30.4924 -56.3189 0 128 255
79.508 -20.5541 -56.4691 0 128 255
81.3107 -10.3322 -56.6146 0 128 255
81.8299 0.047093 -56.7502 0 128 255
81.0377 10.3813 -56.8816 0 128 255
78.9717 20.5455 -57.0076 0 128 255
75.6511 30.34 -57.1241 0 128 255
71.1367 39.6572 -57.2465 0 128 255
65.4875 48.3132 -57.3507 0 128 255
58.7889 56.1803 -57.4376 0 128 255
51.1729 63.138 -57.5152 0 128 255
42.7533 69.0929 -57.5984 0 128 255
33.66 73.9387 -57.6658 0 128 255
24.0413 77.5968 -57.7356 0 128 255
14.0417 80.0249 -57.8036 0 128 255
3.83198 81.1724 -57.8484 0 128 255
-6.43536 81.0496 -57.9119 0 128 255
-16.5876 79.6197 -57.9517 0 128 255
-26.4813 76.9382 -57.9873 0 128 255
-35.9556 73.0336 -58.0294 0 128 255
-44.8498 67.9855 -58.068 0 128 255
-53.0377 61.8692 -58.1016 0 128 255
-60.3894 54.7759 -58.1341 0 128 255
-66.7756 46.8287 -58.181 0 128 255
-72.1322 38.1551 -58.2407 0 128 255
-76.3671 28.8944 -58.3111 0 128 255
-79.3943 19.1848 -58.3767 0 128 255
-81.1556 9.16976 -58.4424 0 128 255
-81.6583 -0.98041 -58.4968 0 128 255
-80.8805 -11.0945 -58.5718 0 128 255
-78.8449 -21.034 -58.6577 0 128 255
-75.5945 -30.6306 -58.7492 0 128 255
-71.1483 -39.7163 -58.8257 0 128 255
-65.611 -48.1618 -58.9278 0 128 255
-59.0576 -55.8477 -59.0325 0 128 255
-51.6045 -62.6503 -59.151 0 128 255
-43.3709 -68.4628 -59.2693 0 128 255
-34.4845 -73.2026 -59.4186 0 128 255
-25.0904 -76.7917 -59.5544 0 128 255
-15.319 -79.1696 -59.7056 0 128 255
-5.33737 -80.309 -59.8649 0 128 255
4.70541 -80.1605 -60.0148 0 128 255
14.6209 -78.7699 -60.1634 0 128 255
24.292 -76.1503 -60.3147 0 128 255
33.5467 -72.3374 -60.4845 0 128 255
42.2423 -67.4063 -60.6407 0 128 255
50.2328 -61.4126 -60.7865 0 128 255
57.397 -54.483 -60.9411 0 128 255
63.6425 -46.7237 -61.0891 0 128 255
68.866 -38.239 -61.2384 0 128 255
72.9719 -29.1783 -61.3971 0 128 255
75.9102 -19.6826 -61.5435 0 128 255
77.6376 -9.89703 -61.6859 0 128 255
78.124 0.00533819 -61.8197 0 128 255
77.3565 9.88939 -61.9397 0 128 255
75.368 19.5773 -62.0577 0 128 255
72.1831 28.9376 -62.1661 0 128 255
67.8681 37.8223 -62.29 0 128 255
62.4557 46.0799 -62.3829 0 128 255
56.0498 53.5883 -62.4696 0 128 255
48.779 60.2257 -62.5465 0 128 255
40.7414 65.8983 -62.6226 0 128 255
32.0593 70.5153 -62.6881 0 128 255
22.8684 74.0108 -62.7633 0 128 255
13.3444 76.3084 -62.8257 0 128 255
3.59254 77.3993 -62.8718 0 128 255
-6.20039 77.2725 -62.9286 0 128 255
-15.8777 75.9028 -62.9761 0 128 255
-25.3212 73.3434 -63.0133 0 128 255
-34.3518 69.6023 -63.0506 0 128 255
-42.8273 64.7746 -63.0641 0 128 255
-50.6261 58.9411 -63.102 0 128 255
-57.6226 52.178 -63.1511 0 128 255
-63.7088 44.6044 -63.2076 0 128 255
-68.8257 36.3339 -63.2627 0 128 255
-72.8304 27.4951 -63.3163 0 128 255
-75.6852 18.2303 -63.376 0 128 255
-77.3557 8.68482 -63.4217 0 128 255
-77.8143 -0.965039 -63.4696 0 128 255
-77.0791 -10.6044 -63.5523 0 128 255
-75.1407 -20.0638 -63.6303 0 128 255
-72.0198 -29.1845 -63.7098 0 128 255
-67.7864 -37.8394 -63.7968 0 128 255
-62.5048 -45.884 -63.888 0 128 255
-56.2738 -53.1951 -63.9891 0 128 255
-49.1704 -59.6585 -64.1018 0 128 255
-41.3368 -65.1871 -64.2402 0 128 255
-32.8805 -69.6971 -64.3696 0 128 255
-23.9271 -73.0924 -64.5149 0 128 255
-14.6368 -75.3368 -64.6396 0 128 255
-5.13754 -76.3906 -64.7766 0 128 255
4.40907 -76.2526 -64.9282 0 128 255
13.8479 -74.9099 -65.06 0 128 255
23.0309 -72.4155 -65.2055 0 128 255
31.8211 -68.7882 -65.3697 0 128 255
40.0749 -64.0859 -65.517 0 128 255
47.6633 -58.3946 -65.658 0 128 255
54.4656 -51.7977 -65.7889 0 128 255
60.3898 -44.406 -65.9379 0 128 255
65.3375 -36.3568 -66.0853 0 128 255
69.2301 -27.7391 -66.2223 0 128 255
72.0158 -18.7292 -66.3715 0 128 255
73.6446 -9.43725 -66.5073 0 128 255
74.0828 -0.0301518 -66.6293 0 128 255
73.3432 9.33572 -66.7427 0 128 255
71.45 18.5437 -66.8522 0 128 255
68.4173 27.4203 -66.9652 0 128 255
64.3076 35.8383 -67.0616 0 128 255
59.16 43.6648 -67.1604 0 128 255
53.0976 50.7762 -67.2432 0 128 255
46.1778 57.069 -67.3214 0 128 255
38.5504 62.4405 -67.3958 0 128 255
30.3157 66.8149 -67.4579 0 128 255
21.6126 70.1123 -67.5278 0 128 255
12.5651 72.2851 -67.5831 0 128 255
3.34029 73.3098 -67.6304 0 128 255
-5.94183 73.1668 -67.6848 0 128 255
-15.1188 71.8625 -67.7326 0 128 255
-24.0596 69.4316 -67.7677 0 128 255
-32.6074 65.8878 -67.8035 0 128 255
-40.6385 61.3235 -67.8503 0 128 255
-48.0157 55.7713 -67.8671 0 128 255
-54.6331 49.3637 -67.8986 0 128 255
-60.3911 42.1774 -67.9485 0 128 255
-65.1904 34.3396 -68.0033 0 128 255
-68.9732 25.9769 -68.0436 0 128 255
-71.6838 17.2048 -68.1042 0 128 255
-73.2503 8.18557 -68.1488 0 128 255
-73.6782 -0.957642 -68.2098 0 128 255
-72.9779 -10.0657 -68.2822 0 128 255
-71.1203 -19.0029 -68.3511 0 128 255
-68.1687 -27.6337 -68.4303 0 128 255
-64.1478 -35.8139 -68.5094 0 128 255
-59.1566 -43.4185 -68.6034 0 128 255
-53.2524 -50.3259 -68.686 0 128 255
-46.5372 -56.4234 -68.7942 0 128 255
-39.1299 -61.6499 -68.9295 0 128 255
-31.1313 -65.8831 -69.0525 0 128 255
-22.6686 -69.075 -69.1697 0 128 255
-13.8928 -71.1849 -69.3022 0 128 255
-4.91682 -72.1911 -69.442 0 128 255
4.09708 -72.0547 -69.5792 0 128 255
12.9924 -70.7751 -69.7047 0 128 255
21.6646 -68.3921 -69.8404 0 128 255
29.9445 -64.9542 -69.9825 0 128 255
37.7357 -60.5078 -70.1157 0 128 255
44.894 -55.1263 -70.259 0 128 255
51.3119 -48.9078 -70.3935 0 128 255
56.8862 -41.9309 -70.5312 0 128 255
61.5527 -34.3311 -70.6762 0 128 255
65.2064 -26.1969 -70.8001 0 128 255
67.8167 -17.6961 -70.9363 0 128 255
69.3389 -8.93904 -71.0501 0 128 255
69.7528 -0.0651132 -71.1659 0 128 255
69.0436 8.76038 -71.2769 0 128 255
67.2485 17.4238 -71.3819 0 128 255
64.3814 25.7828 -71.4803 0 128 255
60.5023 33.7137 -71.5894 0 128 255
55.6566 41.0865 -71.6788 0 128 255
49.9264 47.7784 -71.7596 0 128 255
43.4075 53.6947 -71.8252 0 128 255
36.2177 58.7389 -71.8885 0 128 255
28.4612 62.8415 -71.9534 0 128 255
20.2647 65.9285 -72.011 0 128 255
11.7548 67.9613 -72.0632 0 128 255
3.06119 68.9197 -72.1106 0 128 255
-5.66752 68.764 -72.1516 0 128 255
-14.2931 67.5305 -72.1967 0 128 255
-22.6992 65.2362 -72.2387 0 128 255
-30.7288 61.9054 -72.2831 0 128 255
-38.2677 57.5949 -72.3096 0 128 255
-45.1991 52.3829 -72.3467 0 128 255
-51.4226 46.3525 -72.3847 0 128 255
-56.8223 39.593 -72.4317 0 128 255
-61.3281 32.2259 -72.472 0 128 255
-64.8633 24.3507 -72.5123 0 128 255
-67.3917 16.1092 -72.5622 0 128 255
-68.8675 7.63131 -72.62 0 128 255
-69.2454 -0.939103 -72.6631 0 128 255
-68.578 -9.49078 -72.729 0 128 255
-66.8279 -17.8861 -72.8071 0 128 255
-64.0367 -25.9755 -72.86 0 128 255
-60.2627 -33.6358 -72.9349 0 128 255
-55.5591 -40.7608 -73.0003 0 128 255
-50.0143 -47.2374 -73.1036 0 128 255
-43.7193 -52.9632 -73.2143 0 128 255
-36.7611 -57.8472 -73.321 0 128 255
-29.2526 -61.8045 -73.4273 0 128 255
-21.3135 -64.7841 -73.5468 0 128 255
-13.0826 -66.7457 -73.6664 0 128 255
-4.69066 -67.668 -73.8028 0 128 255
3.74844 -67.5297 -73.932 0 128 255
12.0932 -66.3375 -74.0544 0 128 255
20.2096 -64.0874 -74.1763 0 128 255
27.9613 -60.8617 -74.3172 0 128 255
35.2532 -56.7007 -74.4547 0 128 255
41.9456 -51.6578 -74.5767 0 128 255
47.9392 -45.8179 -74.6972 0 128 255
53.1516 -39.2856 -74.8316 0 128 255
57.5012 -32.1572 -74.9597 0 128 255
60.9149 -24.56 -75.0701 0 128 255
63.3464 -16.5964 -75.2085 0 128 255
64.7725 -8.40508 -75.3237 0 128 255
65.1434 -0.118195 -75.4285 0 128 255
64.4811 8.14331 -75.5475 0 128 255
62.7808 16.2324 -75.6375 0 128 255
60.0878 24.0495 -75.737 0 128 255
56.4632 31.4593 -75.8434 0 128 255
51.9145 38.3405 -75.9207 0 128 255
46.555 44.5807 -75.9996 0 128 255
40.4552 50.1017 -76.0498 0 128 255
33.74 54.7978 -76.1134 0 128 255
26.4896 58.6012 -76.1636 0 128 255
18.8261 61.4766 -76.2072 0 128 255
10.8814 63.375 -76.2574 0 128 255
2.77127 64.2468 -76.2984 0 128 255
-5.36535 64.1047 -76.3433 0 128 255
-13.4201 62.9398 -76.3766 0 128 255
-21.2444 60.7907 -76.4283 0 128 255
-28.7302 57.6706 -76.4704 0 128 255
-35.7557 53.6353 -76.4989 0 128 255
-42.2031 48.7719 -76.5185 0 128 255
-47.9911 43.1403 -76.5623 0 128 255
-53.0182 36.8404 -76.5964 0 128 255
-57.1951 29.9594 -76.6371 0 128 255
-60.4941 22.6301 -76.6844 0 128 255
-62.8288 14.9539 -76.7241 0 128 255
-64.183 7.05658 -76.7709 0 128 255
-64.5548 -0.925517 -76.8406 0 128 255
-63.9171 -8.89627 -76.9141 0 128 255
-62.2719 -16.6961 -76.9657 0 128 255
-59.6839 -24.2257 -77.0343 0 128 255
-56.1434 -31.3446 -77.0869 0 128 255
-51.7591 -37.957 -77.1515 0 128 255
-46.5951 -43.9698 -77.2484 0 128 255
-40.727 -49.2815 -77.3255 0 128 255
-34.2494 -53.81 -77.4232 0 128 255
-27.2709 -57.4881 -77.5436 0 128 255
-19.8961 -60.2534 -77.6516 0 128 255
-12.2468 -62.0653 -77.7772 0 128 255
-4.43984 -62.9041 -77.8872 0 128 255
3.40187 -62.7676 -78.0136 0 128 255
11.1466 -61.6322 -78.134 0 128 255
18.6727 -59.5466 -78.2448 0 128 255
25.8688 -56.5493 -78.3742 0 128 255
32.6208 -52.6683 -78.4987 0 128 255
38.8353 -47.981 -78.6203 0 128 255
44.4016 -42.5598 -78.7497 0 128 255
49.2233 -36.488 -78.8643 0 128 255
53.2497 -29.8792 -78.9842 0 128 255
56.4021 -22.8195 -79.0834 0 128 255
58.6401 -15.4334 -79.196 0 128 255
59.9418 -7.84295 -79.3027 0 128 255
60.288 -0.160777 -79.4194 0 128 255
59.6554 7.48592 -79.5251 0 128 255
58.0723 14.9911 -79.6124 0 128 255
55.5732 22.2178 -79.6956 0 128 255
52.1791 29.0777 -79.7849 0 128 255
47.9608 35.4387 -79.8561 0 128 255
43.011 41.219 -79.9502 0 128 255
37.3639 46.3179 -79.9974 0 128 255
31.1316 50.6512 -80.0492 0 128 255
24.413 54.1592 -80.083 0 128 255
17.3213 56.8072 -80.1271 0 128 255
9.98026 58.5332 -80.1774 0 128 255
2.48196 59.3401 -80.2143 0 128 255
-5.04442 59.1948 -80.247 0 128 255
-12.4867 58.1096 -80.2778 0 128 255
-19.7189 56.1019 -80.3119 0 128 255
-26.6198 53.2137 -80.344 0 128 255
-33.094 49.4748 -80.365 0 128 255
-39.0417 44.9694 -80.4026 0 128 255
-44.3822 39.7687 -80.4493 0 128 255
-49.0122 33.9352 -80.4733 0 128 255
-52.8729 27.5894 -80.5151 0 128 255
-55.8865 20.8123 -80.5494 0 128 255
-58.0247 13.7369 -80.5886 0 128 255
-59.2612 6.45837 -80.6315 0 128 255
-59.5923 -0.908662 -80.6827 0 128 255
-58.9918 -8.24787 -80.7366 0 128 255
-57.4664 -15.4349 -80.8021 0 128 255
-55.0628 -22.3688 -80.8703 0 128 255
-51.8049 -28.9257 -80.921 0 128 255
-47.7726 -35.0168 -81.0125 0 128 255
-42.9927 -40.5502 -81.0824 0 128 255
-37.5724 -45.4267 -81.1475 0 128 255
-31.615 -49.5827 -81.2505 0 128 255
-25.1846 -52.9499 -81.3469 0 128 255
-18.3959 -55.4917 -81.4598 0 128 255
-11.3575 -57.1379 -81.5703 0 128 255
-4.16776 -57.909 -81.6795 0 128 255
3.03811 -57.7672 -81.7943 0 128 255
10.1451 -56.721 -81.9044 0 128 255
17.0737 -54.781 -82.0177 0 128 255
23.6817 -52.0055 -82.1326 0 128 255
29.8798 -48.4265 -82.2401 0 128 255
35.5765 -44.1064 -82.3398 0 128 255
40.6639 -39.1208 -82.4583 0 128 255
45.0826 -33.5357 -82.5548 0 128 255
48.7648 -27.4654 -82.66 0 128 255
51.6443 -20.9843 -82.7624 0 128 255
53.7033 -14.2179 -82.872 0 128 255
54.883 -7.25493 -82.9723 0 128 255
55.1852 -0.212789 -83.0887 0 128 255
54.5936 6.8068 -83.1848 0 128 255
53.1287 13.6899 -83.2679 0 128 255
50.8217 20.3083 -83.3407 0 128 255
47.7065 26.5847 -83.4224 0 128 255
43.8357 32.401 -83.4967 0 128 255
39.2795 37.6782 -83.5529 0 128 255
34.1042 42.3425 -83.6063 0 128 255
28.3925 46.2999 -83.6636 0 128 255
22.2521 49.5049 -83.7029 0 128 255
15.7563 51.9029 -83.7383 0 128 255
9.03543 53.4752 -83.7649 0 128 255
2.18037 54.2094 -83.815 0 128 255
-4.70834 54.0628 -83.8509 0 128 255
-11.5063 53.0508 -83.8676 0 128 255
-18.1066 51.2004 -83.8991 0 128 255
-24.418 48.5432 -83.9202 0 128 255
-30.318 45.1247 -83.9446 0 128 255
-35.7437 41.0007 -83.9796 0 128 255
-40.6137 36.2338 -84.0112 0 128 255
-44.8233 30.9058 -84.0442 0 128 255
-48.3207 25.1107 -84.064 0 128 255
-51.0588 18.9266 -84.0926 0 128 255
-52.9917 12.4628 -84.1363 0 128 255
-54.1231 5.82611 -84.1783 0 128 255
-54.4135 -0.892799 -84.2441 0 128 255
-53.8461 -7.57632 -84.2976 0 128 255
-52.4482 -14.1237 -84.3383 0 128 255
-50.2397 -20.4415 -84.407 0 128 255
-47.2712 -26.3979 -84.4601 0 128 255
-43.5794 -31.9436 -84.5221 0 128 255
-39.2272 -36.9627 -84.5849 0 128 255
-34.2964 -41.3874 -84.6654 0 128 255
-28.8642 -45.1687 -84.7587 0 128 255
-23.0034 -48.2228 -84.843 0 128 255
-16.8234 -50.5112 -84.9451 0 128 255
-10.4161 -52.0028 -85.0479 0 128 255
-3.89655 -52.6676 -85.1278 0 128 255
2.66117 -52.5227 -85.2275 0 128 255
9.11866 -51.5443 -85.3247 0 128 255
15.3935 -49.7807 -85.4282 0 128 255
21.3881 -47.2489 -85.5266 0 128 255
27.0022 -43.9982 -85.6268 0 128 255
32.1654 -40.0671 -85.7331 0 128 255
36.7752 -35.535 -85.8433 0 128 255
40.7618 -30.476 -85.9331 0 128 255
44.093 -24.9584 -86.0267 0 128 255
46.6919 -19.0781 -86.1146 0 128 255
48.5385 -12.9396 -86.2188 0 128 255
49.5915 -6.61668 -86.3129 0 128 255
49.8448 -0.246772 -86.413 0 128 255
49.3115 6.10937 -86.5098 0 128 255
47.9684 12.3242 -86.5719 0 128 255
45.863 18.3108 -86.6472 0 128 255
43.0364 23.9819 -86.7195 0 128 255
39.5276 29.2352 -86.7881 0 128 255
35.3903 33.9977 -86.8419 0 128 255
30.7062 38.2009 -86.8856 0 128 255
25.5476 41.7553 -86.9266 0 128 255
19.9902 44.6397 -86.9762 0 128 255
14.1285 46.7993 -87.0098 0 128 255
8.05049 48.2139 -87.0458 0 128 255
1.8535 48.8438 -87.0762 0 128 255
-4.35357 48.6998 -87.099 0 128 255
-10.4811 47.7704 -87.1182 0 128 255
-16.433 46.0871 -87.1374 0 128 255
-22.1045 43.6815 -87.1647 0 128 255
-27.4253 40.5924 -87.1979 0 128 255
-32.3045 36.8692 -87.2187 0 128 255
-36.6768 32.5661 -87.2505 0 128 255
-40.4494 27.759 -87.2732 0 128 255
-43.5942 22.5288 -87.3023 0 128 255
-46.0443 16.9671 -87.3376 0 128 255
-47.7813 11.1467 -87.3751 0 128 255
-48.7725 5.17658 -87.4158 0 128 255
-49.0192 -0.868479 -87.4721 0 128 255
-48.4972 -6.87934 -87.5121 0 128 255
-47.22 -12.7531 -87.5384 0 128 255
-45.2196 -18.4145 -87.5835 0 128 255
-42.5353 -23.7692 -87.6413 0 128 255
-39.2093 -28.723 -87.7051 0 128 255
-35.303 -33.218 -87.7714 0 128 255
-30.8798 -37.1973 -87.8461 0 128 255
-25.9906 -40.5652 -87.9357 0 128 255
-20.7392 -43.2829 -88.0044 0 128 255
-15.19 -45.3243 -88.0875 0 128 255
-9.45213 -46.6467 -88.1924 0 128 255
-3.60034 -47.233 -88.2611 0 128 255
2.26563 -47.0882 -88.3501 0 128 255
8.04175 -46.2037 -88.4543 0 128 255
13.6538 -44.6101 -88.5379 0 128 255
19.0117 -42.3303 -88.618 0 128 255
24.0202 -39.3952 -88.6994 0 128 255
28.6213 -35.8822 -88.8055 0 128 255
32.7347 -31.8165 -88.8877 0 128 255
36.2933 -27.2847 -88.9807 0 128 255
39.2458 -22.3502 -89.0501 0 128 255
41.5471 -17.0933 -89.1328 0 128 255
43.1773 -11.6056 -89.2146 0 128 255
44.104 -5.98169 -89.2971 0 128 255
44.3193 -0.282299 -89.3954 0 128 255
43.8223 5.37764 -89.4853 0 128 255
42.6172 10.9115 -89.5656 0 128 255
40.733 16.2445 -89.6244 0 128 255
38.2011 21.2801 -89.6936 0 128 255
35.065 25.9478 -89.7553 0 128 255
31.3732 30.1802 -89.7893 0 128 255
27.1888 33.9 -89.8344 0 128 255
22.5903 37.0557 -89.8779 0 128 255
17.6472 39.6086 -89.9245 0 128 255
12.4303 41.5053 -89.9406 0 128 255
7.02305 42.743 -89.9739 0 128 255
1.52855 43.2902 -90.0048 0 128 255
-3.98418 43.1398 -90.0218 0 128 255
-9.42261 42.3049 -90.0354 0 128 255
-14.6953 40.7978 -90.0547 0 128 255
-19.7297 38.6467 -90.0726 0 128 255
-24.4242 35.8849 -90.0949 0 128 255
-28.7392 32.5831 -90.1226 0 128 255
-32.5862 28.765 -90.144 0 128 255
-35.9261 24.501 -90.1633 0 128 255
-38.6935 19.8596 -90.1964 0 128 255
-40.8626 14.9324 -90.2426 0 128 255
-42.373 9.77925 -90.2591 0 128 255
-43.2442 4.4914 -90.2924 0 128 255
-43.4331 -0.844463 -90.3441 0 128 255
-42.9475 -6.15005 -90.3744 0 128 255
-41.8042 -11.3348 -90.4066 0 128 255
-40.0356 -16.3242 -90.4429 0 128 255
-37.6469 -21.0369 -90.4977 0 128 255
-34.7039 -25.4132 -90.5493 0 128 255
-31.2438 -29.3655 -90.607 0 128 255
-27.3246 -32.8501 -90.6801 0 128 255
-23.0146 -35.802 -90.756 0 128 255
-18.3862 -38.183 -90.8217 0 128 255
-13.5039 -39.9606 -90.9008 0 128 255
-8.44713 -41.1126 -90.975 0 128 255
-3.30444 -41.6146 -91.0509 0 128 255
1.84958 -41.4601 -91.1245 0 128 255
6.92995 -40.6667 -91.1911 0 128 255
11.865 -39.2562 -91.2884 0 128 255
16.5559 -37.241 -91.3618 0 128 255
20.9451 -34.6551 -91.4453 0 128 255
24.978 -31.5506 -91.5314 0 128 255
28.5605 -27.9857 -91.6122 0 128 255
31.6679 -23.9982 -91.6842 0 128 255
34.246 -19.664 -91.7435 0 128 255
36.2538 -15.0499 -91.828 0 128 255
37.6699 -10.2299 -91.894 0 128 255
38.4622 -5.3065 -91.9844 0 128 255
38.6204 -0.333738 -92.0535 0 128 255
38.1698 4.61449 -92.1161 0 128 255
37.1008 9.45005 -92.1717 0 128 255
35.4398 14.1096 -92.2388 0 128 255
33.206 18.4944 -92.2944 0 128 255
30.4586 22.5655 -92.3643 0 128 255
27.225 26.2338 -92.3862 0 128 255
23.5674 29.4705 -92.4296 0 128 255
19.5429 32.2096 -92.4784 0 128 255
15.2256 34.4147 -92.5109 0 128 255
10.6758 36.0568 -92.53 0 128 255
5.97453 37.1072 -92.5466 0 128 255
1.18025 37.5597 -92.5593 0 128 255
-3.61268 37.4217 -92.5959 0 128 255
-8.33608 36.6743 -92.6038 0 128 255
-12.9015 35.3448 -92.6127 0 128 255
-17.2646 33.4675 -92.64 0 128 255
-21.3375 31.0626 -92.6671 0 128 255
-25.0676 28.1653 -92.6704 0 128 255
-28.3979 24.8383 -92.6871 0 128 255
-31.2738 21.1429 -92.7134 0 128 255
-33.6514 17.1165 -92.7532 0 128 255
-35.5026 12.8402 -92.7668 0 128 255
-36.8056 8.38325 -92.7957 0 128 255
-37.5286 3.80892 -92.8305 0 128 255
-37.6759 -0.806004 -92.8681 0 128 255
-37.2367 -5.38566 -92.8732 0 128 255
-36.225 -9.85889 -92.8938 0 128 255
-34.6831 -14.1684 -92.9444 0 128 255
-32.6101 -18.2299 -92.9758 0 128 255
-30.048 -21.9834 -93.0351 0 128 255
-27.0623 -25.39 -93.0799 0 128 255
-23.6841 -28.3671 -93.1457 0 128 255
-19.9652 -30.9013 -93.2148 0 128 255
-15.9691 -32.9324 -93.2723 0 128 255
-11.7573 -34.4411 -93.3207 0 128 255
-7.41919 -35.4084 -93.3908 0 128 255
-2.99298 -35.8329 -93.4559 0 128 255
1.43925 -35.671 -93.5168 0 128 255
5.79235 -34.972 -93.6006 0 128 255
10.0145 -33.7425 -93.6741 0 128 255
14.0314 -31.9889 -93.7417 0 128 255
17.7907 -29.7604 -93.8085 0 128 255
21.2182 -27.0876 -93.8666 0 128 255
24.2788 -24.019 -93.9519 0 128 255
26.9233 -20.6036 -94.0151 0 128 255
29.1126 -16.8838 -94.0722 0 128 255
30.8053 -12.9544 -94.1454 0 128 255
32.0042 -8.8355 -94.2158 0 128 255
32.6563 -4.62148 -94.2893 0 128 255
32.7841 -0.378079 -94.3419 0 128 255
32.3629 3.83912 -94.3887 0 128 255
31.4316 7.95173 -94.4372 0 128 255
29.9974 11.9082 -94.4786 0 128 255
28.0853 15.6302 -94.5365 0 128 255
25.7295 19.0838 -94.5882 0 128 255
22.9608 22.1975 -94.6363 0 128 255
19.8505 24.9252 -94.683 0 128 255
16.4285 27.2368 -94.7177 0 128 255
12.7483 29.0822 -94.7391 0 128 255
8.89054 30.4583 -94.7591 0 128 255
4.90709 31.3235 -94.7593 0 128 255
0.847577 31.6916 -94.782 0 128 255
-3.21962 31.543 -94.7791 0 128 255
-7.19254 30.8908 -94.7817 0 128 255
-11.0484 29.7567 -94.8049 0 128 255
-14.7384 28.1516 -94.8329 0 128 255
-18.165 26.1003 -94.8444 0 128 255
-21.2913 23.6536 -94.8624 0 128 255
-24.0765 20.8256 -94.8755 0 128 255
-26.4773 17.685 -94.8863 0 128 255
-28.4627 14.2915 -94.897 0 128 255
-30.0065 10.6874 -94.9082 0 128 255
-31.0731 6.93409 -94.9417 0 128 255
-31.6741 3.07958 -94.9736 0 128 255
-31.7602 -0.779061 -94.9913 0 128 255
-31.3769 -4.62271 -95.0136 0 128 255
-30.5168 -8.37016 -95.0413 0 128 255
-29.2011 -11.9654 -95.0814 0 128 255
-27.447 -15.3562 -95.1251 0 128 255
-25.2958 -18.4925 -95.1717 0 128 255
-22.7738 -21.3043 -95.2088 0 128 255
-19.9367 -23.7893 -95.2586 0 128 255
-16.827 -25.8752 -95.3153 0 128 255
-13.4769 -27.5552 -95.3598 0 128 255
-9.97152 -28.7841 -95.3961 0 128 255
-6.35053 -29.5654 -95.4608 0 128 255
-2.66874 -29.8869 -95.516 0 128 255
1.00135 -29.7437 -95.5619 0 128 255
4.62826 -29.1427 -95.621 0 128 255
8.13391 -28.1045 -95.6904 0 128 255
11.4481 -26.6351 -95.7615 0 128 255
14.5576 -24.7695 -95.8197 0 128 255
17.3858 -22.5262 -95.8838 0 128 255
19.9038 -19.9824 -95.9479 0 128 255
22.0644 -17.138 -95.9961 0 128 255
23.8632 -14.0616 -96.0521 0 128 255
25.2347 -10.802 -96.105 0 128 255
26.2006 -7.41142 -96.1629 0 128 255
26.7189 -3.92522 -96.2074 0 128 255
26.8017 -0.418376 -96.2564 0 128 255
26.4227 3.03326 -96.2851 0 128 255
25.6329 6.41861 -96.3179 0 128 255
24.4366 9.65586 -96.3592 0 128 255
22.8501 12.7064 -96.4 0 128 255
20.8939 15.5195 -96.4392 0 128 255
18.627 18.0514 -96.484 0 128 255
16.062 20.265 -96.517 0 128 255
13.2419 22.1396 -96.5437 0 128 255
10.2315 23.6338 -96.581 0 128 255
7.0606 24.7419 -96.5925 0 128 255
3.79544 25.4158 -96.6101 0 128 255
0.48769 25.692 -96.609 0 128 255
-2.81063 25.5426 -96.6086 0 128 255
-6.04459 24.9911 -96.6152 0 128 255
-9.17548 24.0447 -96.6104 0 128 255
-12.1493 22.7124 -96.6289 0 128 255
-14.9153 21.0311 -96.6461 0 128 255
-17.4436 19.0194 -96.6657 0 128 255
-19.6808 16.7198 -96.6681 0 128 255
-21.5963 14.1699 -96.6748 0 128 255
-23.1797 11.4163 -96.6753 0 128 255
-24.4023 8.49314 -96.7015 0 128 255
-25.2399 5.45808 -96.7203 0 128 255
-25.683 2.36824 -96.7412 0 128 255
-25.7344 -0.74723 -96.7638 0 128 255
-25.3923 -3.82361 -96.7672 0 128 255
-24.6811 -6.83359 -96.7989 0 128 255
-23.6073 -9.71335 -96.8285 0 128 255
-22.1885 -12.4134 -96.8842 0 128 255
-20.4447 -14.9012 -96.9157 0 128 255
-18.4118 -17.1492 -96.954 0 128 255
-16.1279 -19.1007 -96.9805 0 128 255
-13.6276 -20.7496 -97.015 0 128 255
-10.9457 -22.059 -97.0621 0 128 255
-8.14398 -23.0233 -97.1208 0 128 255
-5.26437 -23.6237 -97.1568 0 128 255
-2.32258 -23.8495 -97.2073 0 128 255
0.57697 -23.7057 -97.2526 0 128 255
3.43908 -23.203 -97.2953 0 128 255
6.21469 -22.3489 -97.338 0 128 255
8.82312 -21.1581 -97.3891 0 128 255
11.2593 -19.6654 -97.4275 0 128 255
13.4673 -17.881 -97.4819 0 128 255
15.4489 -15.8446 -97.5437 0 128 255
17.1205 -13.6022 -97.5835 0 128 255
18.5058 -11.1674 -97.6335 0 128 255
19.57 -8.59033 -97.6668 0 128 255
20.2882 -5.92686 -97.6975 0 128 255
20.6612 -3.20675 -97.7272 0 128 255
20.693 -0.469841 -97.76 0 128 255
20.3861 2.24115 -97.7772 0 128 255
19.7438 4.85785 -97.8306 0 128 255
18.7757 7.37226 -97.8484 0 128 255
17.508 9.73847 -97.8821 0 128 255
15.9716 11.9059 -97.9164 0 128 255
14.1854 13.8508 -97.945 0 128 255
12.1845 15.5542 -97.9691 0 128 255
9.99081 16.9698 -97.9981 0 128 255
7.6513 18.0865 -98.0052 0 128 255
5.20136 18.9088 -98.03 0 128 255
2.68435 19.4127 -98.0476 0 128 255
0.143989 19.5897 -98.0507 0 128 255
-2.39122 19.4444 -98.051 0 128 255
-4.8704 19.0039 -98.0468 0 128 255
-7.25996 18.2329 -98.0456 0 128 255
-9.52022 17.2011 -98.0613 0 128 255
-11.617 15.8837 -98.0758 0 128 255
-13.5107 14.3306 -98.0845 0 128 255
-15.1897 12.5604 -98.0874 0 128 255
-16.6289 10.6052 -98.0897 0 128 255
-17.8013 8.49704 -98.0953 0 128 255
-18.6905 6.26208 -98.1083 0 128 255
-19.2991 3.95859 -98.1236 0 128 255
-19.6029 1.62905 -98.1428 0 128 255
-19.61 -0.719385 -98.1555 0 128 255
-19.3294 -3.02043 -98.1721 0 128 255
-18.7653 -5.27072 -98.1881 0 128 255
-17.9259 -7.41566 -98.2288 0 128 255
-16.8368 -9.42913 -98.2551 0 128 255
-15.5095 -11.2611 -98.2877 0 128 255
-13.972 -12.919 -98.3203 0 128 255
-12.2501 -14.347 -98.3451 0 128 255
-10.3684 -15.5423 -98.3803 0 128 255
-8.3713 -16.491 -98.4019 0 128 255
-6.27765 -17.1691 -98.4267 0 128 255
-4.15053 -17.5807 -98.4654 0 128 255
-1.98949 -17.7127 -98.499 0 128 255
0.148932 -17.565 -98.5287 0 128 255
2.25471 -17.167 -98.5659 0 128 255
4.26292 -16.5134 -98.5983 0 128 255
6.16307 -15.6122 -98.6165 0 128 255
7.92645 -14.4926 -98.6688 0 128 255
9.51726 -13.1723 -98.7101 0 128 255
10.9206 -11.6744 -98.7529 0 128 255
12.1122 -10.0086 -98.7717 0 128 255
13.0889 -8.23517 -98.7984 0 128 255
13.8085 -6.36613 -98.8295 0 128 255
14.2971 -4.42317 -98.854 0 128 255
14.5361 -2.47001 -98.8759 0 128 255
14.5223 -0.517585 -98.8832 0 128 255
14.2576 1.42314 -98.9129 0 128 255
13.7672 3.2833 -98.9269 0 128 255
13.0379 5.05554 -98.9585 0 128 255
12.1174 6.71619 -98.9889 0 128 255
10.9967 8.23366 -99.0067 0 128 255
9.70567 9.58721 -99.0343 0 128 255
8.26296 10.7555 -99.0429 0 128 255
6.69705 11.7109 -99.0559 0 128 255
5.03594 12.4732 -99.0625 0 128 255
3.32415 13.009 -99.08 0 128 255
1.56324 13.3234 -99.1032 0 128 255
-0.217245 13.4091 -99.108 0 128 255
-1.96847 13.2765 -99.105 0 128 255
-3.68219 12.9201 -99.102 0 128 255
-5.31217 12.3647 -99.1036 0 128 255
-6.8413 11.6033 -99.1155 0 128 255
-8.25617 10.6745 -99.1325 0 128 255
-9.54287 9.58474 -99.1337 0 128 255
-10.6505 8.34888 -99.1359 0 128 255
-11.6007 6.99557 -99.1334 0 128 255
-12.3552 5.53724 -99.1294 0 128 255
-12.9062 4.03072 -99.1477 0 128 255
-13.2802 2.47669 -99.1618 0 128 255
-13.4458 0.906286 -99.1752 0 128 255
-13.4109 -0.67656 -99.1828 0 128 255
-13.1845 -2.22344 -99.193 0 128 255
-12.7688 -3.7084 -99.2098 0 128 255
-12.1728 -5.10599 -99.2407 0 128 255
-11.4163 -6.40107 -99.2622 0 128 255
-10.5104 -7.58428 -99.2708 0 128 255
-9.47604 -8.63742 -99.2797 0 128 255
-8.32362 -9.53814 -99.2999 0 128 255
-7.08202 -10.2806 -99.3087 0 128 255
-5.77013 -10.8469 -99.3175 0 128 255
-4.40971 -11.2514 -99.3536 0 128 255
-3.02503 -11.4653 -99.372 0 128 255
-1.64534 -11.5059 -99.4001 0 128 255
-0.281308 -11.3742 -99.4224 0 128 255
1.03562 -11.0713 -99.4356 0 128 255
2.3078 -10.6032 -99.4562 0 128 255
3.48111 -10.0058 -99.4835 0 128 255
4.54631 -9.26367 -99.5155 0 128 255
5.50962 -8.41041 -99.5445 0 128 255
6.34951 -7.44154 -99.5664 0 128 255
7.0472 -6.38638 -99.5729 0 128 255
7.5906 -5.27257 -99.5924 0 128 255
8.00096 -4.10386 -99.6131 0 128 255
8.24219 -2.92258 -99.6215 0 128 255
8.34444 -1.72123 -99.6332 0 128 255
8.28697 -0.545716 -99.6376 0 128 255
8.08246 0.599698 -99.6514 0 128 255
7.72331 1.68697 -99.6578 0 128 255
7.25524 2.72616 -99.6691 0 128 255
6.65755 3.67938 -99.6849 0 128 255
5.96831 4.53152 -99.7021 0 128 255
5.17931 5.27795 -99.7133 0 128 255
4.32234 5.91662 -99.7428 0 128 255
3.3845 6.42442 -99.7544 0 128 255
2.42116 6.80415 -99.7614 0 128 255
1.42981 7.05576 -99.7639 0 128 255
0.424494 7.18108 -99.7716 0 128 255
-0.568173 7.17169 -99.7729 0 128 255
-1.53376 7.04182 -99.7678 0 128 255
-2.45896 6.7916 -99.7716 0 128 255
-3.34218 6.425 -99.762 0 128 255
-4.14294 5.97072 -99.7674 0 128 255
-4.8732 5.4197 -99.7665 0 128 255
-5.51787 4.79378 -99.7739 0 128 255
-6.07231 4.09468 -99.7898 0 128 255
-6.51807 3.34755 -99.7838 0 128 255
-6.85752 2.56372 -99.7713 0 128 255
-7.10074 1.74577 -99.7757 0 128 255
-7.21542 0.937824 -99.7812 0 128 255
-7.23639 0.135419 -99.7876 0 128 255
-7.15725 -0.644552 -99.7906 0 128 255
-6.99186 -1.40533 -99.8088 0 128 255
-6.73142 -2.10105 -99.8256 0 128 255
-6.38375 -2.75563 -99.8346 0 128 255
-5.95814 -3.357 -99.8502 0 128 255
-5.47475 -3.88088 -99.8542 0 128 255
-4.94571 -4.32802 -99.8583 0 128 255
-4.37648 -4.69532 -99.8612 0 128 255
-3.7761 -4.97027 -99.8813 0 128 255
-3.15766 -5.16392 -99.8853 0 128 255
-2.5186 -5.27696 -99.8923 0 128 255
-1.88623 -5.30105 -99.8983 0 128 255
-1.2846 -5.26342 -99.889 0 128 255
-0.701958 -5.12463 -99.9016 0 128 255
-0.162921 -4.92062 -99.9242 0 128 255
0.319853 -4.66957 -99.9485 0 128 255
0.771881 -4.3545 -99.9611 0 128 255
1.16441 -4.00018 -99.9703 0 128 255
1.48935 -3.60505 -99.9847 0 128 255
1.76044 -3.1681 -99.9942 0 128 255
1.95103 -2.72683 -99.9964 0 128 255
2.08362 -2.27461 -99.9862 0 128 255
2.1553 -1.82521 -99.9958 0 128 255
2.16453 -1.39146 -100.005 0 128 255
2.11223 -0.977683 -100.011 0 128 255
2.02269 -0.587821 -100.006 0 128 255
1.86029 -0.227912 -100.013 0 128 255
1.65775 0.107162 -100.014 0 128 255
1.43077 0.398231 -100.041 0 128 255
1.18011 0.638617 -100.037 0 128 255
0.90611 0.831129 -100.033 0 128 255
0.623817 0.97022 -100.021 0 128 255
0.338696 1.04863 -100.037 0 128 255
0.0621562 1.1053 -100.045 0 128 255
-0.222878 1.11345 -100.027 0 128 255
-0.479267 1.06496 -100.021 0 128 255
-0.71421 1.01147 -100.021 0 128 255
-0.923373 0.90729 -100.026 0 128 255
-1.11231 0.773878 -100.039 0 128 255
-1.25845 0.636023 -100.039 0 128 255
-1.36509 0.466481 -100.043 0 128 255
-1.44152 0.307659 -100.042 0 128 255
-1.47268 0.1444 -100.028 0 128 255
-1.4831 -0.0209603 -100.016 0 128 255
-1.46245 -0.18509 -100.015 0 128 255
-1.41615 -0.314375 -100.007 0 128 255
-1.33495 -0.433259 -100.012 0 128 255
-1.24539 -0.51535 -100.021 0 128 255
-1.13127 -0.575677 -100.009 0 128 255
-0.997408 -0.599552 -100.006 0 128 255
