ply
format ascii 1.0
element vertex 2500
property float x
property float y
property float z
property uchar red
property uchar green
property uchar blue
end_header
-0.125664 -1.53894e-17 99.9999 255 255 255
-0.250786 -0.0328449 99.981 255 255 255
-0.384479 -0.102155 99.9722 255 255 255
-0.488061 -0.195958 99.9833 255 255 255
-0.577441 -0.319656 99.9749 255 255 255
-0.626233 -0.455465 99.9639 255 255 255
-0.653603 -0.602648 99.9579 255 255 255
-0.660457 -0.786874 99.9504 255 255 255
-0.618421 -0.981472 99.946 255 255 255
-0.575668 -1.15736 99.9408 255 255 255
-0.47692 -1.34096 99.9362 255 255 255
-0.334869 -1.49407 99.9083 255 255 255
-0.152315 -1.64676 99.8848 255 255 255
0.0828471 -1.77185 99.8702 255 255 255
0.321525 -1.86696 99.8255 255 255 255
0.582859 -1.94452 99.7839 255 255 255
0.883238 -1.95252 99.744 255 255 255
1.18775 -1.91094 99.7309 255 255 255
1.50997 -1.8334 99.6984 255 255 255
1.8256 -1.70483 99.6812 255 255 255
2.12658 -1.52692 99.669 255 255 255
2.40105 -1.2961 99.68 255 255 255
2.68391 -1.01558 99.6684 255 255 255
2.91855 -0.694584 99.6652 255 255 255
3.1105 -0.327308 99.6652 255 255 255
3.2543 0.0702852 99.6863 255 255 255
3.33659 0.51248 99.7065 255 255 255
3.3566 0.971217 99.7314 255 255 255
3.33901 1.45235 99.7688 255 255 255
3.24945 1.93048 99.7883 255 255 255
3.10136 2.38806 99.8305 255 255 255
2.86909 2.82129 99.8735 255 255 255
2.59101 3.25307 99.9139 255 255 255
2.22787 3.63948 99.9746 255 255 255
1.8105 4.00537 100.015 255 255 255
1.32992 4.3138 100.089 255 255 255
0.805773 4.57549 100.161 255 255 255
0.236984 4.79361 100.219 255 255 255
-0.372745 4.91847 100.268 255 255 255
-1.03279 4.95659 100.333 255 255 255
-1.64883 4.9201 100.38 255 255 255
-2.27661 4.78462 100.424 255 255 255
-2.92284 4.56379 100.463 255 255 255
-3.55649 4.26294 100.476 255 255 255
-4.17832 3.88417 100.455 255 255 255
-4.74997 3.41753 100.436 255 255 255
-5.26523 2.87975 100.399 255 255 255
-5.71191 2.27518 100.346 255 255 255
-6.10514 1.59846 100.292 255 255 255
-6.42184 0.873476 100.232 255 255 255
-6.62522 0.122139 100.173 255 255 255
-6.74266 -0.68575 100.116 255 255 255
-6.75702 -1.53433 100.048 255 255 255
-6.65842 -2.3904 99.9609 255 255 255
-6.4541 -3.22733 99.8675 255 255 255
-6.13939 -4.05095 99.7578 255 255 255
-5.68333 -4.81535 99.6555 255 255 255
-5.12703 -5.5254 99.5181 255 255 255
-4.46571 -6.16839 99.3861 255 255 255
-3.69874 -6.70835 99.2549 255 255 255
-2.85117 -7.14511 99.1195 255 255 255
-1.9466 -7.47236 98.9735 255 255 255
-0.996932 -7.69009 98.8158 255 255 255
-0.0178757 -7.82916 98.6592 255 255 255
0.992569 -7.8224 98.529 255 255 255
1.99158 -7.67822 98.4091 255 255 255
2.98678 -7.38528 98.2792 255 255 255
3.97574 -6.96218 98.1539 255 255 255
4.91054 -6.43458 98.0502 255 255 255
5.79747 -5.76576 97.9733 255 255 255
6.5771 -4.98538 97.8849 255 255 255
7.27886 -4.12203 97.8066 255 255 255
7.87479 -3.1424 97.7359 255 255 255
8.33514 -2.0795 97.6617 255 255 255
8.68166 -0.94083 97.6339 255 255 255
8.88164 0.245122 97.5939 255 255 255
8.92997 1.44472 97.6008 255 255 255
8.83763 2.66781 97.6392 255 255 255
8.56777 3.87632 97.7266 255 255 255
8.16068 5.05845 97.8364 255 255 255
7.58218 6.1822 97.9849 255 255 255
6.88564 7.24249 98.1951 255 255 255
6.02295 8.19037 98.4358 255 255 255
5.04632 9.04191 98.7085 255 255 255
3.93508 9.73016 99.0377 255 255 255
2.75009 10.26 99.3848 255 255 255
1.47294 10.6181 99.7644 255 255 255
0.157582 10.8314 100.134 255 255 255
-1.18654 10.882 100.499 255 255 255
-2.54514 10.7371 100.847 255 255 255
-3.88809 10.413 101.198 255 255 255
-5.20014 9.92231 101.517 255 255 255
-6.46493 9.26431 101.824 255 255 255
-7.63078 8.42852 102.142 255 255 255
-8.71028 7.44039 102.419 255 255 255
-9.658 6.30408 102.639 255 255 255
-10.4654 5.03391 102.768 255 255 255
-11.1622 3.66486 102.795 255 255 255
-11.6843 2.21226 102.787 255 255 255
-12.0658 0.679298 102.725 255 255 255
-12.2419 -0.897375 102.603 255 255 255
-12.2419 -2.48977 102.42 255 255 255
-12.0701 -4.07003 102.161 255 255 255
-11.7165 -5.63769 101.89 255 255 255
-11.1719 -7.15164 101.549 255 255 255
-10.4499 -8.59884 101.159 255 255 255
-9.54814 -9.93979 100.706 255 255 255
-8.45781 -11.1692 100.235 255 255 255
-7.22723 -12.2431 99.7228 255 255 255
-5.842 -13.1612 99.1913 255 255 255
-4.36579 -13.8838 98.6294 255 255 255
-2.7816 -14.3741 98.0387 255 255 255
-1.11593 -14.6726 97.4325 255 255 255
0.588067 -14.778 96.8072 255 255 255
2.28469 -14.6435 96.2292 255 255 255
3.98654 -14.2527 95.6284 255 255 255
5.65556 -13.6687 95.1053 255 255 255
7.25546 -12.8931 94.6309 255 255 255
8.78618 -11.9003 94.2313 255 255 255
10.1846 -10.7107 93.8725 255 255 255
11.4485 -9.34108 93.5628 255 255 255
12.5347 -7.78541 93.2624 255 255 255
13.4556 -6.10435 93.0088 255 255 255
14.1483 -4.32182 92.8434 255 255 255
14.6709 -2.43408 92.745 255 255 255
14.9635 -0.471363 92.7466 255 255 255
15.0269 1.51215 92.8593 255 255 255
14.8445 3.50829 93.0599 255 255 255
14.3869 5.46258 93.3301 255 255 255
13.7163 7.36568 93.6256 255 255 255
12.8038 9.1582 94.0183 255 255 255
11.687 10.8297 94.4849 255 255 255
10.391 12.3801 94.9976 255 255 255
8.87696 13.7336 95.5478 255 255 255
7.20017 14.8936 96.1327 255 255 255
5.37777 15.809 96.7442 255 255 255
3.44089 16.4913 97.3733 255 255 255
1.42121 16.9154 97.9861 255 255 255
-0.679484 17.0607 98.607 255 255 255
-2.7755 16.9643 99.222 255 255 255
-4.87065 16.6297 99.807 255 255 255
-6.92183 16.0345 100.414 255 255 255
-8.91971 15.2002 101.017 255 255 255
-10.7957 14.0734 101.611 255 255 255
-12.546 12.6861 102.129 255 255 255
-14.0719 11.0477 102.585 255 255 255
-15.4338 9.24711 102.969 255 255 255
-16.606 7.27552 103.256 255 255 255
-17.5335 5.12739 103.46 255 255 255
-18.2246 2.88285 103.595 255 255 255
-18.6816 0.564944 103.625 255 255 255
-18.8308 -1.80373 103.599 255 255 255
-18.6962 -4.19355 103.476 255 255 255
-18.2924 -6.57013 103.263 255 255 255
-17.5639 -8.86332 103.008 255 255 255
-16.5531 -11.063 102.709 255 255 255
-15.2948 -13.1349 102.336 255 255 255
-13.7805 -15.0537 101.893 255 255 255
-12.0172 -16.7254 101.385 255 255 255
-10.0373 -18.1461 100.813 255 255 255
-7.92343 -19.3123 100.198 255 255 255
-5.6299 -20.1961 99.5275 255 255 255
-3.2567 -20.775 98.8191 255 255 255
-0.81822 -21.0434 98.0517 255 255 255
1.63205 -21.0444 97.276 255 255 255
4.11533 -20.7098 96.5323 255 255 255
6.51208 -20.0549 95.7546 255 255 255
8.80129 -19.0319 94.9438 255 255 255
10.9503 -17.7208 94.1593 255 255 255
12.9591 -16.1283 93.3909 255 255 255
14.791 -14.3273 92.716 255 255 255
16.4098 -12.2796 92.121 255 255 255
17.821 -10.0157 91.6277 255 255 255
18.9239 -7.57582 91.2016 255 255 255
19.6963 -4.97592 90.8415 255 255 255
20.1248 -2.26431 90.5652 255 255 255
20.2311 0.499522 90.3394 255 255 255
20.0043 3.26105 90.1429 255 255 255
19.4161 5.97712 90.0606 255 255 255
18.4987 8.62106 90.0102 255 255 255
17.2845 11.1717 90.0725 255 255 255
15.7363 13.5573 90.2023 255 255 255
13.9747 15.7818 90.4392 255 255 255
11.9724 17.8193 90.805 255 255 255
9.75647 19.5749 91.255 255 255 255
7.3493 21.1077 91.8017 255 255 255
4.80418 22.3435 92.4803 255 255 255
2.12174 23.3001 93.2509 255 255 255
-0.654558 23.9002 94.0839 255 255 255
-3.4786 24.1211 94.9683 255 255 255
-6.32992 24.0263 95.8904 255 255 255
-9.12273 23.5334 96.8314 255 255 255
-11.8726 22.6528 97.7549 255 255 255
-14.4825 21.4229 98.6555 255 255 255
-16.9283 19.8581 99.5496 255 255 255
-19.1752 18.0039 100.431 255 255 255
-21.1569 15.8289 101.302 255 255 255
-22.8517 13.3775 102.134 255 255 255
-24.2155 10.7143 102.93 255 255 255
-25.278 7.88905 103.665 255 255 255
-25.9905 4.90396 104.322 255 255 255
-26.2793 1.8408 104.889 255 255 255
-26.2024 -1.29185 105.34 255 255 255
-25.6997 -4.4135 105.641 255 255 255
-24.7696 -7.43672 105.822 255 255 255
-23.4514 -10.3544 105.911 255 255 255
-21.794 -13.1241 105.914 255 255 255
-19.8595 -15.7145 105.803 255 255 255
-17.6408 -18.0887 105.598 255 255 255
-15.1503 -20.1867 105.224 255 255 255
-12.4256 -21.9593 104.719 255 255 255
-9.52153 -23.3888 104.054 255 255 255
-6.47828 -24.4696 103.317 255 255 255
-3.33189 -25.1503 102.473 255 255 255
-0.12066 -25.4104 101.558 255 255 255
3.08291 -25.2507 100.551 255 255 255
6.22109 -24.6853 99.4676 255 255 255
9.24585 -23.6745 98.3102 255 255 255
12.1059 -22.249 97.0858 255 255 255
14.7266 -20.4123 95.8446 255 255 255
17.0861 -18.2325 94.6004 255 255 255
19.1421 -15.7585 93.3713 255 255 255
20.8252 -12.9706 92.1443 255 255 255
22.1164 -9.94856 91.0242 255 255 255
23.0274 -6.72103 89.9867 255 255 255
23.5457 -3.37859 89.0224 255 255 255
23.5753 0.0615722 88.2575 255 255 255
23.2474 3.53756 87.6492 255 255 255
22.4817 6.98472 87.1516 255 255 255
21.3292 10.3388 86.7645 255 255 255
19.7993 13.5605 86.5997 255 255 255
17.8842 16.602 86.6509 255 255 255
15.6093 19.4006 86.8016 255 255 255
13.018 21.9298 87.0326 255 255 255
10.1406 24.1386 87.3866 255 255 255
7.01237 25.9654 87.933 255 255 255
3.68383 27.3994 88.5531 255 255 255
0.22551 28.4578 89.2943 255 255 255
-3.31822 29.1613 90.1633 255 255 255
-6.92283 29.3387 91.1016 255 255 255
-10.5234 29.0515 92.1677 255 255 255
-14.0191 28.2723 93.2523 255 255 255
-17.3978 27.0289 94.3987 255 255 255
-20.5596 25.2898 95.5821 255 255 255
-23.4831 23.1727 96.7544 255 255 255
-26.0938 20.6909 97.9603 255 255 255
-28.4216 17.8555 99.0714 255 255 255
-30.37 14.7353 100.157 255 255 255
-31.9498 11.3427 101.11 255 255 255
-33.0509 7.70866 101.967 255 255 255
-33.7095 3.96143 102.726 255 255 255
-33.9313 0.11121 103.339 255 255 255
-33.6771 -3.76137 103.834 255 255 255
-32.9882 -7.62979 104.161 255 255 255
-31.8219 -11.4089 104.375 255 255 255
-30.2418 -15.0315 104.419 255 255 255
-28.1946 -18.4606 104.288 255 255 255
-25.7455 -21.6066 104.004 255 255 255
-22.9965 -24.4914 103.603 255 255 255
-19.9267 -27.0308 103.056 255 255 255
-16.5861 -29.18 102.341 255 255 255
-13.0208 -30.8941 101.492 255 255 255
-9.26019 -32.1712 100.607 255 255 255
-5.36273 -32.9485 99.6262 255 255 255
-1.40744 -33.2515 98.5564 255 255 255
2.56292 -33.0915 97.4935 255 255 255
6.47945 -32.4541 96.371 255 255 255
10.2888 -31.3289 95.1956 255 255 255
13.9199 -29.6917 93.9928 255 255 255
17.3018 -27.5826 92.7626 255 255 255
20.3893 -25.0145 91.5296 255 255 255
23.1374 -22.0848 90.295 255 255 255
25.4599 -18.7767 89.0867 255 255 255
27.3554 -15.1448 88.027 255 255 255
28.8102 -11.2994 86.9655 255 255 255
29.7846 -7.26052 86.0267 255 255 255
30.1452 -3.07771 85.2195 255 255 255
29.8885 1.12795 84.5274 255 255 255
29.1515 5.3419 84.0494 255 255 255
27.9094 9.47037 83.7779 255 255 255
26.2019 13.4454 83.6227 255 255 255
24.0323 17.2037 83.6748 255 255 255
21.401 20.6641 83.791 255 255 255
18.384 23.8467 84.0327 255 255 255
15.0385 26.6627 84.3507 255 255 255
11.3695 29.0841 84.8191 255 255 255
7.44949 31.0548 85.4498 255 255 255
3.28616 32.4261 86.205 255 255 255
-1.01683 33.2378 87.0347 255 255 255
-5.38866 33.4453 87.9277 255 255 255
-9.74404 33.0229 88.9142 255 255 255
-14.0105 32.0262 89.888 255 255 255
-18.1288 30.4585 90.8864 255 255 255
-22.0329 28.361 91.8335 255 255 255
-25.6355 25.7501 92.8165 255 255 255
-28.8065 22.6453 93.8047 255 255 255
-31.5435 19.1086 94.7171 255 255 255
-33.7511 15.1794 95.5448 255 255 255
-35.4587 10.9705 96.3512 255 255 255
-36.698 6.57802 97.0657 255 255 255
-37.3303 2.03931 97.6241 255 255 255
-37.4412 -2.59244 97.9837 255 255 255
-36.9983 -7.2253 98.2106 255 255 255
-36.0506 -11.792 98.3563 255 255 255
-34.572 -16.2492 98.4149 255 255 255
-32.4765 -20.4763 98.347 255 255 255
-29.9184 -24.4114 98.2009 255 255 255
-26.8268 -27.9896 97.9943 255 255 255
-23.2736 -31.1232 97.6722 255 255 255
-19.3225 -33.7355 97.2578 255 255 255
-15.0592 -35.824 96.7607 255 255 255
-10.5693 -37.3968 96.1281 255 255 255
-5.93658 -38.4472 95.4179 255 255 255
-1.21728 -39.0078 94.5338 255 255 255
3.5415 -39.0923 93.6618 255 255 255
8.29256 -38.4825 92.8779 255 255 255
12.9145 -37.1624 92.0818 255 255 255
17.3512 -35.3032 91.2725 255 255 255
21.5192 -32.8426 90.515 255 255 255
25.3546 -29.8591 89.7694 255 255 255
28.7388 -26.336 89.1821 255 255 255
31.668 -22.4102 88.594 255 255 255
34.0979 -18.1263 88.0271 255 255 255
35.9469 -13.5624 87.4611 255 255 255
37.2594 -8.78248 86.8955 255 255 255
38.0424 -3.87565 86.4533 255 255 255
38.3063 1.10754 86.0295 255 255 255
37.974 6.11386 85.7327 255 255 255
36.9407 11.0238 85.5874 255 255 255
35.2406 15.786 85.5262 255 255 255
32.886 20.287 85.6581 255 255 255
30.007 24.4805 85.867 255 255 255
26.6416 28.3199 86.1818 255 255 255
22.8075 31.6655 86.6653 255 255 255
18.5379 34.481 87.0704 255 255 255
13.9525 36.7647 87.4071 255 255 255
9.10423 38.4808 87.7442 255 255 255
4.08181 39.586 88.0572 255 255 255
-1.05374 40.0137 88.3426 255 255 255
-6.24753 39.8412 88.5483 255 255 255
-11.3902 38.9972 88.6539 255 255 255
-16.4142 37.5753 88.7991 255 255 255
-21.1695 35.4346 88.8625 255 255 255
-25.6577 32.6783 88.8044 255 255 255
-29.7605 29.3579 88.785 255 255 255
-33.3948 25.5203 88.8105 255 255 255
-36.4549 21.186 88.7993 255 255 255
-38.9493 16.4884 88.8382 255 255 255
-40.8818 11.5163 88.8045 255 255 255
-42.1764 6.34485 88.6575 255 255 255
-42.7516 1.00728 88.5137 255 255 255
-42.5246 -4.34405 88.3173 255 255 255
-41.6373 -9.6643 87.9934 255 255 255
-40.0043 -14.8075 87.6924 255 255 255
-37.7281 -19.7153 87.3468 255 255 255
-34.7685 -24.2294 86.9635 255 255 255
-31.207 -28.3453 86.5865 255 255 255
-27.1253 -31.9371 86.1968 255 255 255
-22.5696 -34.9453 85.8624 255 255 255
-17.6259 -37.3068 85.6127 255 255 255
-12.4227 -39.1315 85.4196 255 255 255
-7.05931 -40.3066 85.3076 255 255 255
-1.56359 -40.7737 85.23 255 255 255
3.96629 -40.6193 85.2451 255 255 255
9.44802 -39.7597 85.3269 255 255 255
14.7877 -38.1892 85.3858 255 255 255
19.9204 -35.995 85.4768 255 255 255
24.7888 -33.2652 85.573 255 255 255
29.2995 -29.9463 85.7195 255 255 255
33.3568 -26.0723 85.9585 255 255 255
36.9399 -21.7403 86.154 255 255 255
39.9461 -16.9689 86.3004 255 255 255
42.4244 -11.8847 86.515 255 255 255
44.297 -6.52146 86.7179 255 255 255
45.4675 -0.943737 86.8557 255 255 255
45.9282 4.74459 86.9582 255 255 255
45.6495 10.461 86.9393 255 255 255
44.6929 16.0992 86.9532 255 255 255
43.1429 21.637 87.1075 255 255 255
40.8284 26.9296 87.2252 255 255 255
37.8737 31.9031 87.4228 255 255 255
34.2983 36.4487 87.7057 255 255 255
30.2218 40.5992 87.8949 255 255 255
25.6429 44.1905 87.9059 255 255 255
20.6461 47.2177 87.8684 255 255 255
15.3087 49.612 87.6758 255 255 255
9.69586 51.283 87.4244 255 255 255
3.9118 52.2584 87.274 255 255 255
-1.97506 52.4296 87.0996 255 255 255
-7.84681 51.783 86.9147 255 255 255
-13.5896 50.4294 86.7097 255 255 255
-19.1386 48.3289 86.4412 255 255 255
-24.4184 45.5999 86.1698 255 255 255
-29.3499 42.2559 85.9133 255 255 255
-33.7731 38.2617 85.7036 255 255 255
-37.6555 33.7213 85.4454 255 255 255
-40.9287 28.6972 85.2049 255 255 255
-43.5251 23.2805 84.899 255 255 255
-45.3913 17.5593 84.5524 255 255 255
-46.5078 11.6075 84.2436 255 255 255
-46.9045 5.57837 83.9093 255 255 255
-46.5908 -0.46235 83.4965 255 255 255
-45.4242 -6.41785 82.9516 255 255 255
-43.5283 -12.2078 82.394 255 255 255
-40.949 -17.7345 81.8215 255 255 255
-37.7278 -22.9292 81.1828 255 255 255
-33.9643 -27.7305 80.5301 255 255 255
-29.6026 -32.0325 79.9252 255 255 255
-24.7314 -35.7686 79.4307 255 255 255
-19.4186 -38.899 79.0198 255 255 255
-13.749 -41.3228 78.6613 255 255 255
-7.7921 -42.9803 78.3008 255 255 255
-1.63995 -43.881 77.9909 255 255 255
4.58461 -44.0288 77.8345 255 255 255
10.7806 -43.3514 77.6632 255 255 255
16.8897 -41.9862 77.6096 255 255 255
22.7802 -39.7969 77.7055 255 255 255
28.2976 -36.7676 77.9686 255 255 255
33.4374 -33.1411 78.3184 255 255 255
38.1052 -28.9147 78.8432 255 255 255
42.2986 -24.1991 79.4711 255 255 255
45.7632 -18.9299 80.1324 255 255 255
48.5694 -13.2658 80.6758 255 255 255
50.7105 -7.29368 81.2708 255 255 255
52.0663 -1.08585 81.914 255 255 255
52.7195 5.25327 82.5434 255 255 255
52.5774 11.6339 83.1833 255 255 255
51.5845 17.9445 83.9208 255 255 255
49.8587 24.1047 84.7153 255 255 255
47.4233 30.0378 85.4259 255 255 255
44.3438 35.6818 86.1828 255 255 255
40.5756 40.9032 87.0044 255 255 255
36.0927 45.5495 87.8185 255 255 255
31.0609 49.6252 88.5083 255 255 255
25.507 53.0048 89.1834 255 255 255
19.5671 55.6815 89.8346 255 255 255
13.3293 57.576 90.5351 255 255 255
6.89246 58.7284 91.0455 255 255 255
0.328131 59.0552 91.4657 255 255 255
-6.21286 58.4103 91.8715 255 255 255
-12.6767 57.0655 92.1616 255 255 255
-18.9359 54.8923 92.3125 255 255 255
-24.855 51.8613 92.3567 255 255 255
-30.3412 48.0914 92.2571 255 255 255
-35.3497 43.7232 92.0563 255 255 255
-39.8368 38.8087 91.7585 255 255 255
-43.7677 33.42 91.2847 255 255 255
-46.9907 27.5821 90.7307 255 255 255
-49.4943 21.3762 90.1599 255 255 255
-51.279 14.8984 89.5217 255 255 255
-52.3133 8.28353 88.8463 255 255 255
-52.4535 1.58098 88.1456 255 255 255
-51.6956 -5.08698 87.3974 255 255 255
-50.1501 -11.6364 86.6563 255 255 255
-47.751 -17.9448 85.8151 255 255 255
-44.5952 -23.9038 84.9824 255 255 255
-40.7745 -29.4783 84.0358 255 255 255
-36.2517 -34.5141 83.0555 255 255 255
-31.1529 -38.9408 82.0709 255 255 255
-25.5116 -42.7235 81.1199 255 255 255
-19.4194 -45.7724 80.2947 255 255 255
-12.9613 -48.0204 79.566 255 255 255
-6.20876 -49.3623 78.9493 255 255 255
0.65068 -49.8686 78.4849 255 255 255
7.56262 -49.5304 77.9994 255 255 255
14.3921 -48.39 77.6654 255 255 255
21.0987 -46.5672 77.4928 255 255 255
27.5074 -43.8201 77.5093 255 255 255
33.5098 -40.2858 77.7175 255 255 255
39.038 -36.0383 77.8532 255 255 255
43.9981 -31.0758 78.0337 255 255 255
48.2352 -25.5007 78.308 255 255 255
51.6766 -19.3992 78.7864 255 255 255
54.3681 -12.9466 79.4424 255 255 255
56.1264 -6.19758 80.392 255 255 255
57.1261 0.7303 81.4109 255 255 255
57.3659 7.73992 82.4979 255 255 255
56.6873 14.7054 83.7009 255 255 255
55.2094 21.5257 84.9941 255 255 255
52.9045 28.1599 86.1618 255 255 255
49.7597 34.4349 87.5143 255 255 255
45.7887 40.2152 88.9024 255 255 255
41.1641 45.5083 90.2584 255 255 255
35.8513 50.123 91.6807 255 255 255
29.988 54.0445 93.0813 255 255 255
23.6028 57.1329 94.2663 255 255 255
16.8455 59.3869 95.4076 255 255 255
9.83994 60.7319 96.5306 255 255 255
2.69012 61.2414 97.4399 255 255 255
-4.51036 60.8871 98.1111 255 255 255
-11.6566 59.6227 98.657 255 255 255
-18.5761 57.3884 98.9477 255 255 255
-25.1779 54.3107 99.0947 255 255 255
-31.3847 50.5077 98.9349 255 255 255
-37.1733 46.017 98.6379 255 255 255
-42.3609 40.8514 98.1172 255 255 255
-46.899 35.1192 97.3928 255 255 255
-50.5866 28.8158 96.6532 255 255 255
-53.5019 22.1132 95.7618 255 255 255
-55.5484 15.1109 94.7301 255 255 255
-56.7736 7.90658 93.5416 255 255 255
-57.0821 0.658147 92.0954 255 255 255
-56.4853 -6.56617 90.5343 255 255 255
-54.9808 -13.6495 88.9305 255 255 255
-52.5406 -20.5071 87.3394 255 255 255
-49.1495 -26.9295 85.6537 255 255 255
-44.9226 -32.8384 83.957 255 255 255
-40.0317 -38.2422 82.3132 255 255 255
-34.4584 -42.9636 80.6183 255 255 255
-28.2989 -46.957 79.0428 255 255 255
-21.642 -50.1097 77.5475 255 255 255
-14.5979 -52.3237 76.0646 255 255 255
-7.3342 -53.7563 74.6184 255 255 255
0.0682 -54.1509 73.2648 255 255 255
7.51158 -53.5243 72.0927 255 255 255
14.8546 -52.0091 71.0056 255 255 255
21.9974 -49.5733 70.1842 255 255 255
28.7861 -46.1958 69.6987 255 255 255
35.1716 -42.0353 69.4351 255 255 255
40.9279 -37.0299 69.3778 255 255 255
46.0485 -31.3598 69.4748 255 255 255
50.5059 -25.1514 69.7933 255 255 255
54.1358 -18.4286 70.2517 255 255 255
56.936 -11.3042 70.8979 255 255 255
58.8386 -3.91139 71.8366 255 255 255
59.7513 3.62412 73.0971 255 255 255
59.6367 11.1995 74.5511 255 255 255
58.5229 18.6686 76.1808 255 255 255
56.6257 25.9477 77.9243 255 255 255
53.7899 32.9276 79.7113 255 255 255
50.1759 39.4907 81.7549 255 255 255
45.6346 45.4212 83.9118 255 255 255
40.3817 50.6882 86.2266 255 255 255
34.4523 55.2493 88.4765 255 255 255
28.0085 59.1702 90.5413 255 255 255
21.1206 62.2591 92.6162 255 255 255
13.8751 64.6404 94.4738 255 255 255
6.34323 66.0936 96.1713 255 255 255
-1.32329 66.627 97.8502 255 255 255
-9.06322 66.2473 99.2 255 255 255
-16.7543 64.8768 100.361 255 255 255
-24.2563 62.554 101.251 255 255 255
-31.4565 59.2924 101.806 255 255 255
-38.225 55.1426 101.862 255 255 255
-44.5534 50.3784 101.573 255 255 255
-50.2706 44.9016 101.015 255 255 255
-55.3164 38.8131 99.9612 255 255 255
-59.6878 32.3096 98.4979 255 255 255
-63.2945 25.4143 96.7173 255 255 255
-66.0486 18.2091 94.5024 255 255 255
-67.8329 10.814 91.9434 255 255 255
-68.6784 3.29745 89.2386 255 255 255
-68.4679 -4.1932 86.2911 255 255 255
-67.2884 -11.5006 83.1218 255 255 255
-65.0568 -18.5293 79.907 255 255 255
-61.8586 -25.164 76.5917 255 255 255
-57.7416 -31.2214 73.1912 255 255 255
-52.7263 -36.5495 69.7408 255 255 255
-46.94 -41.1677 66.4194 255 255 255
-40.5042 -45.0824 63.3773 255 255 255
-33.5416 -48.2473 60.6373 255 255 255
-26.1169 -50.5204 58.2155 255 255 255
-18.3389 -51.8086 56.0573 255 255 255
-10.4215 -52.1536 54.114 255 255 255
-2.43452 -51.491 52.4759 255 255 255
5.54374 -50.0963 51.36 255 255 255
13.3617 -47.7209 50.5377 255 255 255
20.861 -44.4007 50.1899 255 255 255
28.0004 -40.3276 50.2242 255 255 255
34.6179 -35.4204 50.4891 255 255 255
40.7117 -29.9393 51.3759 255 255 255
46.0819 -23.7502 52.5727 255 255 255
50.5834 -16.9838 54.1744 255 255 255
54.2358 -9.79882 56.1341 255 255 255
56.9878 -2.27908 58.3542 255 255 255
58.7089 5.42392 60.9972 255 255 255
59.3925 13.2347 63.794 255 255 255
59.155 21.0145 66.8094 255 255 255
57.9284 28.6595 69.9435 255 255 255
55.809 36.0436 73.2404 255 255 255
52.8057 43.1163 76.5911 255 255 255
48.7903 49.6331 80.0182 255 255 255
43.7722 55.4473 83.4103 255 255 255
37.9574 60.546 86.6875 255 255 255
31.4944 64.9065 89.8917 255 255 255
24.4477 68.4613 92.8871 255 255 255
16.9031 71.1037 95.5781 255 255 255
8.97075 72.8675 97.9554 255 255 255
0.777982 73.6616 99.9284 255 255 255
-7.54862 73.5499 101.53 255 255 255
-15.8806 72.4902 102.848 255 255 255
-24.0961 70.5345 103.951 255 255 255
-32.0737 67.59 104.526 255 255 255
-39.6906 63.7624 104.572 255 255 255
-46.8051 59.0998 104.11 255 255 255
-53.2811 53.6361 103.097 255 255 255
-59.0278 47.4542 101.679 255 255 255
-64.0604 40.7789 99.7787 255 255 255
-68.2073 33.6154 97.4552 255 255 255
-71.4596 26.1645 94.7195 255 255 255
-73.7588 18.4711 91.5799 255 255 255
-74.954 10.6559 88.1672 255 255 255
-75.1419 2.91569 84.3588 255 255 255
-74.3191 -4.66257 80.3182 255 255 255
-72.5882 -11.9767 76.0473 255 255 255
-70.041 -18.9257 71.566 255 255 255
-66.3509 -25.3635 67.0845 255 255 255
-61.7587 -31.2744 62.6591 255 255 255
-56.306 -36.5678 58.4158 255 255 255
-50.2006 -41.1558 54.2485 255 255 255
-43.4004 -44.8722 50.2758 255 255 255
-35.9648 -47.7182 46.6614 255 255 255
-28.0937 -49.7067 43.4361 255 255 255
-19.8705 -50.8046 40.6073 255 255 255
-11.4081 -50.9862 38.3144 255 255 255
-2.81946 -50.4394 36.5601 255 255 255
5.77276 -49.0581 35.3365 255 255 255
14.2687 -46.8166 34.8785 255 255 255
22.5052 -43.7004 34.8993 255 255 255
30.3469 -39.7323 35.5735 255 255 255
37.6615 -34.9251 36.7808 255 255 255
44.2825 -29.3646 38.5694 255 255 255
50.2741 -23.2836 40.9006 255 255 255
55.4275 -16.7303 43.8351 255 255 255
59.5973 -9.63609 47.1949 255 255 255
62.7852 -2.30057 51.0212 255 255 255
64.9369 5.26088 55.1546 255 255 255
65.9486 12.8637 59.735 255 255 255
65.8405 20.3301 64.5749 255 255 255
64.5522 27.6523 69.5631 255 255 255
62.0143 34.6371 74.5457 255 255 255
58.2555 41.1594 79.3766 255 255 255
53.5337 47.2466 83.9638 255 255 255
47.7642 52.6389 88.249 255 255 255
41.2939 57.337 92.3394 255 255 255
34.1674 61.4642 95.971 255 255 255
26.4106 64.6908 99.2263 255 255 255
18.1026 66.8883 102.032 255 255 255
9.45567 68.1736 104.244 255 255 255
0.532749 68.4497 105.676 255 255 255
-8.46323 67.7894 106.482 255 255 255
-17.3665 66.1474 106.779 255 255 255
-26.0361 63.4812 106.49 255 255 255
-34.3888 60.0488 105.499 255 255 255
-42.2267 55.6445 104.029 255 255 255
-49.3432 50.3452 102.045 255 255 255
-55.7015 44.2644 99.64 255 255 255
-61.0337 37.4666 96.712 255 255 255
-65.4492 30.2184 93.3693 255 255 255
-68.6637 22.5667 89.5715 255 255 255
-70.888 14.6833 85.4745 255 255 255
-71.9482 6.69996 81.0861 255 255 255
-71.8639 -1.22578 76.471 255 255 255
-70.5476 -9.05412 71.7947 255 255 255
-68.1117 -16.619 67.1735 255 255 255
-64.6525 -23.8257 62.5637 255 255 255
-60.2297 -30.6307 58.1708 255 255 255
-54.8592 -36.8897 53.9684 255 255 255
-48.7434 -42.4692 49.8751 255 255 255
-41.8058 -47.2182 46.0097 255 255 255
-34.108 -51.0382 42.5585 255 255 255
-25.8371 -53.9472 39.5176 255 255 255
-17.1465 -55.8991 36.9521 255 255 255
-8.13814 -56.86 34.7789 255 255 255
0.977285 -56.662 32.967 255 255 255
10.1547 -55.4615 31.8584 255 255 255
19.2125 -53.2111 31.259 255 255 255
28.0025 -50.0792 31.2169 255 255 255
36.3914 -45.9477 31.7333 255 255 255
44.2823 -41.036 32.8124 255 255 255
51.5159 -35.3353 34.5435 255 255 255
57.8786 -28.8067 36.7784 255 255 255
63.3795 -21.7707 39.6877 255 255 255
67.8898 -14.2725 43.1503 255 255 255
71.3714 -6.43713 47.0488 255 255 255
73.8713 1.5993 51.2696 255 255 255
75.4506 9.74661 55.7721 255 255 255
76.0912 17.8945 60.5048 255 255 255
75.5638 26.0877 65.2261 255 255 255
73.8846 34.064 70.0307 255 255 255
71.1477 41.7426 74.8385 255 255 255
67.2422 48.9703 79.6088 255 255 255
62.275 55.5669 84.3301 255 255 255
56.2788 61.5096 88.7047 255 255 255
49.2793 66.5161 92.8177 255 255 255
41.5325 70.715 96.4711 255 255 255
33.1522 74.0328 99.5651 255 255 255
24.2675 76.495 102.1 255 255 255
14.9858 77.6334 104.032 255 255 255
5.49802 77.9347 105.364 255 255 255
-4.04103 77.1776 105.918 255 255 255
-13.4741 75.4221 105.776 255 255 255
-22.6659 72.7804 105.112 255 255 255
-31.5046 69.183 104.033 255 255 255
-39.8506 64.581 102.677 255 255 255
-47.5743 59.2021 100.66 255 255 255
-54.5696 53.0748 98.0651 255 255 255
-60.6562 46.1978 95.0542 255 255 255
-65.7584 38.7401 91.6346 255 255 255
-69.8679 30.8124 87.8601 255 255 255
-72.9455 22.5353 83.853 255 255 255
-74.6493 14.013 79.5963 255 255 255
-75.1615 5.44434 75.0291 255 255 255
-74.5601 -3.12183 70.4586 255 255 255
-72.6984 -11.4281 65.7572 255 255 255
-69.7001 -19.4526 61.14 255 255 255
-65.7446 -27.1086 56.5782 255 255 255
-60.7058 -34.2759 52.2702 255 255 255
-54.7017 -40.7894 48.1322 255 255 255
-47.7878 -46.5587 44.3182 255 255 255
-40.2023 -51.5967 40.7427 255 255 255
-31.9043 -55.6989 37.5262 255 255 255
-23.0701 -58.8341 34.6392 255 255 255
-13.7434 -60.9396 32.3591 255 255 255
-4.15765 -62.151 30.6196 255 255 255
5.6408 -62.1768 29.6294 255 255 255
15.401 -60.968 29.4511 255 255 255
24.9808 -58.766 29.8005 255 255 255
34.2359 -55.5397 30.7698 255 255 255
43.0735 -51.4234 32.3237 255 255 255
51.3079 -46.3874 34.3731 255 255 255
58.9638 -40.692 36.9887 255 255 255
65.6597 -34.1197 40.17 255 255 255
71.3568 -26.8995 43.831 255 255 255
75.9154 -19.2088 48.0863 255 255 255
79.3658 -11.0106 52.512 255 255 255
81.6816 -2.61408 57.2933 255 255 255
82.835 5.85852 62.381 255 255 255
82.8856 14.3852 67.5391 255 255 255
81.6943 22.8073 72.7121 255 255 255
79.3021 31.0259 77.8311 255 255 255
75.801 38.9286 82.8072 255 255 255
71.2016 46.4334 87.5269 255 255 255
65.4723 53.3141 91.9928 255 255 255
58.6218 59.415 95.9926 255 255 255
50.9527 64.8159 99.5518 255 255 255
42.5816 69.3641 102.673 255 255 255
33.5826 72.9262 105.316 255 255 255
24.1026 75.5535 107.404 255 255 255
14.2426 77.0342 108.744 255 255 255
4.18587 77.3488 109.383 255 255 255
-5.85662 76.6225 109.336 255 255 255
-15.7302 74.8031 108.52 255 255 255
-25.2593 71.8888 106.93 255 255 255
-34.3441 67.978 104.841 255 255 255
-42.7836 63.1332 102.073 255 255 255
-50.3923 57.4154 98.5775 255 255 255
-57.003 50.9126 94.4866 255 255 255
-62.5065 43.6398 90.0281 255 255 255
-66.8879 35.8771 85.1731 255 255 255
-70.1044 27.7026 80.0288 255 255 255
-71.9236 19.2313 74.6979 255 255 255
-72.567 10.6793 69.2272 255 255 255
-71.9015 2.03235 63.8792 255 255 255
-69.9265 -6.43676 58.6096 255 255 255
-66.5485 -14.554 53.3919 255 255 255
-61.9231 -22.1531 48.3453 255 255 255
-56.0456 -29.0814 43.6338 255 255 255
-49.2521 -35.3228 39.2356 255 255 255
-41.54 -40.7459 35.1902 255 255 255
-32.9726 -45.2209 31.8045 255 255 255
-23.6744 -48.5756 29.1002 255 255 255
-13.8695 -50.9388 27.1152 255 255 255
-3.76613 -52.2545 25.7441 255 255 255
6.52149 -52.4416 25.0243 255 255 255
16.777 -51.5079 25.0131 255 255 255
26.8816 -49.5787 25.7184 255 255 255
36.588 -46.4129 27.1622 255 255 255
45.9284 -42.4771 29.2063 255 255 255
54.651 -37.6629 31.9832 255 255 255
62.6074 -31.87 35.1998 255 255 255
69.6733 -25.2346 38.8583 255 255 255
75.5959 -17.7491 42.8493 255 255 255
80.4153 -9.70899 47.3226 255 255 255
84.1054 -1.20487 52.0075 255 255 255
86.4011 7.66157 56.9408 255 255 255
87.3275 16.6363 62.1361 255 255 255
86.9279 25.5331 67.5102 255 255 255
85.2505 34.2027 73.0298 255 255 255
82.2619 42.6708 78.3362 255 255 255
77.8548 50.6921 83.3731 255 255 255
72.2377 58.0693 88.1677 255 255 255
65.628 64.8618 92.5615 255 255 255
58.2474 71.0422 96.6414 255 255 255
49.9061 76.1317 100.39 255 255 255
40.7975 80.3034 103.523 255 255 255
31.1388 83.5409 105.997 255 255 255
20.9897 85.5993 107.72 255 255 255
10.5621 86.3577 108.812 255 255 255
0.0655118 86.1029 109.473 255 255 255
-10.3534 84.6658 109.272 255 255 255
-20.5446 82.2018 108.327 255 255 255
-30.3611 78.6905 106.733 255 255 255
-39.6026 74.108 104.494 255 255 255
-48.1047 68.6592 101.403 255 255 255
-55.8154 62.3766 97.8214 255 255 255
-62.6274 55.454 93.6636 255 255 255
-68.3461 47.8365 89.0573 255 255 255
-72.8873 39.6215 84.1464 255 255 255
-76.2405 30.9678 79.0495 255 255 255
-78.4007 22.0831 73.6752 255 255 255
-79.3018 13.0512 68.1597 255 255 255
-78.9981 3.95732 62.62 255 255 255
-77.4016 -5.00202 57.1253 255 255 255
-74.4119 -13.719 51.8034 255 255 255
-70.1754 -21.9523 46.5594 255 255 255
-64.8154 -29.5901 41.4054 255 255 255
-58.3224 -36.5219 36.5756 255 255 255
-50.8894 -42.7117 32.0541 255 255 255
-42.6291 -48.0551 27.9344 255 255 255
-33.4515 -52.272 24.431 255 255 255
-23.6681 -55.3127 21.3253 255 255 255
-13.4484 -57.3601 18.8951 255 255 255
-2.92079 -58.2845 17.0921 255 255 255
7.72875 -57.9877 15.9516 255 255 255
18.3726 -56.6814 15.5262 255 255 255
28.8323 -54.2822 15.7677 255 255 255
38.9413 -50.7473 16.7127 255 255 255
48.5329 -46.1542 18.3477 255 255 255
57.643 -40.7735 20.3553 255 255 255
65.9275 -34.4458 23.1168 255 255 255
73.2612 -27.2797 26.4502 255 255 255
79.7031 -19.4778 30.2039 255 255 255
85.1062 -11.1252 34.4176 255 255 255
89.3251 -2.28956 38.9519 255 255 255
92.1629 6.94706 43.7947 255 255 255
93.7773 16.3636 48.9234 255 255 255
94.0762 25.8288 54.1697 255 255 255
93.0733 35.1762 59.5267 255 255 255
90.7789 44.3079 64.9361 255 255 255
87.2503 53.0892 70.2427 255 255 255
82.3113 61.2459 75.4948 255 255 255
76.1564 68.7026 80.4596 255 255 255
69.0727 75.6587 84.8898 255 255 255
61.0068 81.7849 88.8562 255 255 255
51.9938 86.8354 92.332 255 255 255
42.3132 90.8658 95.2318 255 255 255
32.0553 93.691 97.5995 255 255 255
21.4248 95.4028 99.2837 255 255 255
10.5452 95.9235 100.287 255 255 255
-0.372839 95.2205 100.685 255 255 255
-11.1069 93.1806 100.728 255 255 255
-21.5924 90.0544 100.019 255 255 255
-31.5815 85.8704 98.4257 255 255 255
-40.9248 80.6855 96.0017 255 255 255
-49.4395 74.4877 92.9105 255 255 255
-56.7644 67.2087 89.1852 255 255 255
-63.058 59.212 85.0856 255 255 255
-68.1716 50.5829 80.595 255 255 255
-71.8773 41.4038 75.7975 255 255 255
-74.2493 31.8611 70.8362 255 255 255
-75.3351 22.0901 65.8429 255 255 255
-75.0362 12.2916 60.8119 255 255 255
-73.4054 2.64759 55.7233 255 255 255
-70.5375 -6.82347 50.8504 255 255 255
-66.0626 -15.6274 45.934 255 255 255
-60.2205 -23.7238 41.175 255 255 255
-53.1866 -30.9769 36.7 255 255 255
-45.1842 -37.3994 32.5786 255 255 255
-36.3208 -42.9356 28.8903 255 255 255
-26.7217 -47.3316 25.5487 255 255 255
-16.4923 -50.5737 22.687 255 255 255
-5.86234 -52.6456 20.231 255 255 255
5.0416 -53.5917 18.3877 255 255 255
16.0979 -53.3739 17.2031 255 255 255
27.1269 -51.9794 16.7815 255 255 255
37.9625 -49.4473 17.1261 255 255 255
48.4493 -45.818 18.036 255 255 255
58.4082 -40.9984 19.3328 255 255 255
67.652 -35.0264 21.1758 255 255 255
76.1096 -28.153 23.5054 255 255 255
83.5325 -20.3547 26.412 255 255 255
89.9753 -11.7879 29.6148 255 255 255
95.242 -2.61762 33.2344 255 255 255
99.3261 7.03565 37.1458 255 255 255
102.091 17.0807 41.2977 255 255 255
103.393 27.3876 45.4907 255 255 255
103.252 37.7693 49.666 255 255 255
101.664 47.9903 53.9873 255 255 255
98.5352 57.9808 58.0475 255 255 255
94.2261 67.59 61.97 255 255 255
88.6344 76.6417 65.6025 255 255 255
81.9369 85.0349 68.9461 255 255 255
74.1569 92.5741 71.9868 255 255 255
65.3782 99.0979 74.6981 255 255 255
55.8545 104.596 77.1005 255 255 255
45.6725 108.971 79.1337 255 255 255
34.9901 112.245 80.623 255 255 255
23.9682 114.491 81.4792 255 255 255
12.7406 115.471 81.7647 255 255 255
1.45213 115.219 81.2982 255 255 255
-9.70001 113.779 80.1392 255 255 255
-20.5152 110.937 78.4652 255 255 255
-30.8535 106.866 76.2721 255 255 255
-40.5604 101.626 73.7595 255 255 255
-49.432 95.2546 70.7564 255 255 255
-57.3899 88.0445 67.1419 255 255 255
-64.2182 79.9424 63.1019 255 255 255
-69.8966 71.1256 58.7841 255 255 255
-74.2564 61.7988 53.9544 255 255 255
-77.3941 52.0729 48.9896 255 255 255
-79.2904 41.9896 44.0548 255 255 255
-79.6915 31.7269 39.1574 255 255 255
-78.811 21.6035 34.0286 255 255 255
-76.6484 11.644 28.9642 255 255 255
-73.0162 2.03427 24.0145 255 255 255
-68.094 -7.16552 19.3823 255 255 255
-61.9518 -15.7929 15.1232 255 255 255
-54.6629 -23.6427 11.1851 255 255 255
-46.435 -30.6232 7.47452 255 255 255
-37.1845 -36.6047 4.40389 255 255 255
-27.1284 -41.33 1.67007 255 255 255
-16.5216 -44.8737 -0.795182 255 255 255
-5.45871 -47.2207 -2.57692 255 255 255
5.88096 -48.4241 -3.66771 255 255 255
17.3392 -48.3763 -4.11945 255 255 255
28.7365 -47.0856 -4.10953 255 255 255
39.8462 -44.2025 -3.70677 255 255 255
50.4991 -40.0584 -2.69503 255 255 255
60.5648 -34.7438 -1.08182 255 255 255
69.9448 -28.4128 0.939023 255 255 255
78.3004 -20.9182 3.50781 255 255 255
85.51 -12.543 6.74265 255 255 255
91.4049 -3.43181 10.605 255 255 255
96.128 6.19175 14.8147 255 255 255
99.5902 16.2115 19.3079 255 255 255
101.658 26.5196 24.0858 255 255 255
102.329 36.9047 29.0677 255 255 255
101.414 47.1735 34.2546 255 255 255
99.0746 57.2497 39.3659 255 255 255
95.2962 66.9285 44.3926 255 255 255
90.0802 76.019 49.3172 255 255 255
83.4778 84.3577 53.8988 255 255 255
75.7564 91.7661 58.3431 255 255 255
67.1046 98.2196 62.5385 255 255 255
57.592 103.589 66.3517 255 255 255
47.1834 107.608 69.5927 255 255 255
36.246 110.316 72.3405 255 255 255
24.9116 111.85 74.4041 255 255 255
13.4147 112.241 76.0393 255 255 255
1.85751 111.426 77.0744 255 255 255
-9.5758 109.267 77.4371 255 255 255
-20.7265 105.95 77.1795 255 255 255
-31.4337 101.465 76.2932 255 255 255
-41.4932 95.8016 74.8324 255 255 255
-50.6643 88.8695 72.805 255 255 255
-58.77 80.9697 70.0639 255 255 255
-65.7237 72.2159 66.7961 255 255 255
-71.4998 62.8181 63.003 255 255 255
-76.1279 53.0789 58.5698 255 255 255
-79.3901 42.9376 53.7992 255 255 255
-81.2894 32.4717 48.9506 255 255 255
-81.7789 21.9593 43.8516 255 255 255
-80.9584 11.5063 38.6811 255 255 255
-78.4959 1.35034 33.4263 255 255 255
-74.4188 -8.36738 28.3728 255 255 255
-68.9721 -17.4856 23.3927 255 255 255
-62.2948 -25.9706 18.8042 255 255 255
-54.485 -33.5703 14.5135 255 255 255
-45.6838 -40.3966 10.8029 255 255 255
-36.0289 -46.2639 7.60901 255 255 255
-25.6514 -51.1178 5.09079 255 255 255
-14.6026 -54.6762 3.29929 255 255 255
-3.07692 -56.8469 2.35054 255 255 255
8.64133 -57.6906 2.11755 255 255 255
20.3857 -57.0748 2.48491 255 255 255
31.9475 -55.0636 3.33252 255 255 255
43.0941 -51.5633 4.81645 255 255 255
53.6894 -46.726 6.74826 255 255 255
63.4652 -40.7161 9.46605 255 255 255
72.2449 -33.6355 12.8775 255 255 255
80.0348 -25.7185 16.8862 255 255 255
86.6126 -16.9422 21.2156 255 255 255
91.9346 -7.34974 25.567 255 255 255
96.087 2.70474 30.1878 255 255 255
98.7846 13.0691 35.1699 255 255 255
100.353 23.5921 40.3427 255 255 255
100.415 34.1833 45.6248 255 255 255
99.061 44.627 51.0182 255 255 255
96.0737 54.8436 56.2276 255 255 255
91.7204 64.6367 61.3014 255 255 255
86.0635 73.9063 66.0527 255 255 255
79.062 82.3526 70.5241 255 255 255
70.9351 89.9395 74.6174 255 255 255
61.9122 96.7153 78.3267 255 255 255
52.0381 102.307 81.7839 255 255 255
41.4146 106.712 84.7167 255 255 255
30.233 109.828 87.2417 255 255 255
18.6513 111.67 89.186 255 255 255
6.86011 112.313 90.5518 255 255 255
-4.99324 111.62 91.2947 255 255 255
-16.72 109.467 91.4733 255 255 255
-28.0728 105.981 90.7863 255 255 255
-38.9296 101.257 89.4891 255 255 255
-49.2373 95.5616 87.7273 255 255 255
-58.7668 88.771 85.4355 255 255 255
-67.274 80.8872 82.6471 255 255 255
-74.6868 72.1587 79.3311 255 255 255
-80.831 62.6505 75.5434 255 255 255
-85.6194 52.4712 71.5676 255 255 255
-89.123 41.8166 67.4122 255 255 255
-91.2606 30.9964 62.8238 255 255 255
-91.9116 20.0283 58.1116 255 255 255
-91.1914 9.11674 53.2585 255 255 255
-88.8605 -1.4459 48.1461 255 255 255
-85.2999 -11.7771 43.2416 255 255 255
-80.4222 -21.5729 38.3918 255 255 255
-74.0218 -30.5567 33.7026 255 255 255
-66.3915 -38.7191 29.3182 255 255 255
-57.6341 -45.8804 25.3457 255 255 255
-47.9211 -51.8968 21.6766 255 255 255
-37.3629 -56.5983 18.4761 255 255 255
-26.1616 -59.9943 15.8667 255 255 255
-14.5442 -62.1462 13.7549 255 255 255
-2.63185 -62.8247 12.2726 255 255 255
9.34433 -62.1264 11.4677 255 255 255
21.1974 -60.1766 11.2166 255 255 255
32.7494 -56.8445 11.5308 255 255 255
43.8347 -52.2146 12.2485 255 255 255
54.3003 -46.4123 13.5417 255 255 255
63.9637 -39.4283 15.3138 255 255 255
72.6546 -31.496 17.804 255 255 255
80.3657 -22.7987 20.9742 255 255 255
86.7568 -13.2022 24.4935 255 255 255
91.8157 -2.90628 28.251 255 255 255
95.4147 7.86918 32.3341 255 255 255
97.6953 18.97 36.5056 255 255 255
98.453 30.2409 40.7132 255 255 255
97.7972 41.4445 45.1842 255 255 255
95.5432 52.379 49.8116 255 255 255
91.8596 62.9568 54.3321 255 255 255
86.7588 72.9385 58.8994 255 255 255
80.3447 82.3359 63.009 255 255 255
72.8628 90.9879 66.9286 255 255 255
64.196 98.7029 70.3557 255 255 255
54.4931 105.372 73.1931 255 255 255
43.9749 110.849 75.7162 255 255 255
32.8042 114.93 77.97 255 255 255
21.0939 117.497 79.7852 255 255 255
9.09515 118.591 81.048 255 255 255
-2.99606 118.328 81.8089 255 255 255
-14.9754 116.478 82.1705 255 255 255
-26.6443 113.118 81.8737 255 255 255
-37.7606 108.369 80.8392 255 255 255
-48.1139 102.252 79.1581 255 255 255
-57.5221 94.8506 77.0711 255 255 255
-65.8251 86.3645 74.512 255 255 255
-72.8053 76.8529 71.5139 255 255 255
-78.3887 66.6218 68.0596 255 255 255
-82.4215 55.8815 64.0121 255 255 255
-84.7069 44.7698 59.5918 255 255 255
-85.4247 33.5565 54.8984 255 255 255
-84.671 22.2888 50.3401 255 255 255
-82.3322 11.3821 45.4953 255 255 255
-78.4224 0.965912 40.5569 255 255 255
-72.8469 -8.70322 35.6795 255 255 255
-65.9472 -17.4566 30.7327 255 255 255
-57.8639 -25.2175 25.9061 255 255 255
-48.8112 -31.8649 21.2072 255 255 255
-38.8855 -37.5471 16.905 255 255 255
-28.2122 -41.895 12.8857 255 255 255
-16.8831 -44.8913 9.41491 255 255 255
-5.18295 -46.5785 6.43192 255 255 255
6.77532 -47.0586 4.0024 255 255 255
18.854 -46.152 2.34824 255 255 255
30.7617 -43.786 1.15318 255 255 255
42.3816 -40.0378 0.574425 255 255 255
53.533 -35.0106 0.818215 255 255 255
63.978 -28.7095 1.53706 255 255 255
73.6421 -21.3288 2.65366 255 255 255
82.24 -12.7964 4.39292 255 255 255
89.7108 -3.41487 6.87048 255 255 255
96.0274 6.62465 9.91431 255 255 255
100.895 17.3327 13.3537 255 255 255
104.499 28.3508 17.2686 255 255 255
106.605 39.5867 21.6667 255 255 255
107.248 50.8524 26.4901 255 255 255
106.382 61.9817 31.5922 255 255 255
103.85 72.7053 36.9752 255 255 255
99.8304 82.8953 42.5119 255 255 255
94.3948 92.3008 48.2235 255 255 255
87.6351 100.981 53.6806 255 255 255
79.8147 108.774 59.071 255 255 255
70.9543 115.437 64.3637 255 255 255
61.0668 120.749 69.4218 255 255 255
50.427 124.622 74.1449 255 255 255
39.1367 127.292 78.1929 255 255 255
27.3621 128.368 81.5803 255 255 255
15.454 128.083 84.6323 255 255 255
3.49459 126.374 86.9194 255 255 255
-8.21619 122.833 88.3933 255 255 255
-19.4932 118.032 89.2652 255 255 255
-30.2819 112.084 89.3062 255 255 255
-40.4147 105.14 88.5493 255 255 255
-49.8 97.3095 87.041 255 255 255
-58.1471 88.521 84.8758 255 255 255
-65.2954 78.8908 81.9902 255 255 255
-71.339 68.7081 78.5695 255 255 255
-75.9074 58.0342 74.3769 255 255 255
-79.0675 47.0777 69.6686 255 255 255
-80.7964 35.9624 64.6288 255 255 255
-81.0494 24.8477 59.2653 255 255 255
-79.7796 13.9073 53.6807 255 255 255
-77.0472 3.33954 47.9265 255 255 255
-72.6402 -6.56829 42.0029 255 255 255
-66.9788 -15.7644 35.9813 255 255 255
-60.0589 -24.2083 30.1923 255 255 255
-51.9037 -31.5846 24.5578 255 255 255
-42.6478 -37.8033 19.2065 255 255 255
-32.457 -42.745 14.2549 255 255 255
-21.4694 -46.4572 9.91925 255 255 255
-9.92664 -48.9263 6.21145 255 255 255
2.01022 -50.1822 3.11352 255 255 255
14.2115 -49.9204 1.05803 255 255 255
26.3683 -48.1891 -0.506592 255 255 255
38.3328 -45.0724 -1.25237 255 255 255
49.8355 -40.5318 -1.29761 255 255 255
60.729 -34.6804 -0.575213 255 255 255
70.8822 -27.7337 0.76787 255 255 255
80.2706 -19.89 2.78001 255 255 255
88.6991 -11.1683 5.29934 255 255 255
95.9916 -1.59209 8.25638 255 255 255
101.897 8.66439 11.9782 255 255 255
106.355 19.4934 16.0221 255 255 255
109.692 30.5631 20.533 255 255 255
111.519 41.7471 25.5727 255 255 255
112.078 52.8844 31.0342 255 255 255
111.102 63.8477 36.7738 255 255 255
108.436 74.3021 42.8494 255 255 255
104.333 84.32 48.9077 255 255 255
98.8112 93.7368 54.8403 255 255 255
92.1428 102.344 60.8424 255 255 255
84.3467 110.079 66.6495 255 255 255
75.3458 116.634 72.1372 255 255 255
65.4679 121.982 77.4257 255 255 255
54.7205 125.906 82.2404 255 255 255
43.2952 128.492 86.4398 255 255 255
31.4368 129.664 90.0427 255 255 255
19.3827 129.264 92.9491 255 255 255
7.29816 127.469 95.2439 255 255 255
-4.64758 124.32 96.7914 255 255 255
-16.3034 120.006 97.5026 255 255 255
-27.448 114.458 97.4624 255 255 255
-37.9338 107.788 96.7023 255 255 255
-47.3929 99.8575 95.1344 255 255 255
-55.7704 90.9792 92.7338 255 255 255
-62.7969 81.2305 89.4686 255 255 255
-68.5492 70.8488 85.6354 255 255 255
-73.1305 60.1879 81.1249 255 255 255
-76.2922 49.3367 75.8959 255 255 255
-77.8259 38.3952 70.116 255 255 255
-77.9871 27.7023 63.7226 255 255 255
-76.7586 17.2643 57.0474 255 255 255
-74.2724 7.22258 50.0991 255 255 255
-70.2526 -2.21329 43.0124 255 255 255
-64.9119 -10.9036 35.8503 255 255 255
-58.3126 -18.8694 28.9111 255 255 255
-50.3671 -25.8245 22.2907 255 255 255
-41.521 -31.7043 15.7583 255 255 255
-31.7296 -36.8169 9.92223 255 255 255
-21.1986 -40.7367 4.4976 255 255 255
-9.88883 -43.4995 -0.0487942 255 255 255
1.9787 -44.8235 -3.71821 255 255 255
14.0913 -44.8619 -6.76151 255 255 255
26.3083 -43.4752 -8.94362 255 255 255
38.3989 -40.716 -10.4131 255 255 255
50.2109 -36.7255 -10.7991 255 255 255
61.6352 -31.6947 -10.366 255 255 255
72.4448 -25.6018 -8.97783 255 255 255
82.4437 -18.4063 -6.86896 255 255 255
91.4203 -10.2416 -3.87346 255 255 255
99.2013 -1.2834 0.0416105 255 255 255
105.763 8.25502 4.74594 255 255 255
110.959 18.258 10.1463 255 255 255
114.689 28.5498 16.1963 255 255 255
116.98 38.9374 22.7519 255 255 255
117.686 49.2487 29.7778 255 255 255
116.938 59.2974 37.1913 255 255 255
114.583 68.9953 44.7053 255 255 255
110.557 78.2365 52.1123 255 255 255
105.119 86.7922 59.3964 255 255 255
98.4394 94.5569 66.5877 255 255 255
90.4191 101.351 73.3879 255 255 255
81.2415 107.109 79.6496 255 255 255
71.1344 111.742 85.4071 255 255 255
60.1517 114.969 90.4755 255 255 255
48.594 116.859 94.9102 255 255 255
36.6512 117.497 98.6317 255 255 255
24.5458 116.596 101.738 255 255 255
12.4182 114.244 103.864 255 255 255
0.529311 110.535 105.142 255 255 255
-10.9418 105.577 105.704 255 255 255
-21.6848 99.1427 105.49 255 255 255
-31.6377 91.6075 104.372 255 255 255
-40.5966 83.096 102.332 255 255 255
-48.4233 73.7269 99.5409 255 255 255
-54.8755 63.5639 96.0741 255 255 255
-60.115 52.9765 91.9046 255 255 255
-64.0586 42.0375 87.2201 255 255 255
-66.573 30.8878 82.0628 255 255 255
-67.6231 19.8235 76.2729 255 255 255
-67.1534 8.97616 70.0271 255 255 255
-65.1855 -1.64373 63.6332 255 255 255
-61.8036 -11.8115 57.1407 255 255 255
-56.9387 -21.3622 50.6369 255 255 255
-50.6831 -30.0676 44.1677 255 255 255
-43.0555 -37.7668 37.8597 255 255 255
-34.4786 -44.5115 31.7368 255 255 255
-24.9768 -50.1761 25.8259 255 255 255
-14.512 -54.5783 20.463 255 255 255
-3.38809 -57.5806 15.4802 255 255 255
8.21587 -59.1702 11.0048 255 255 255
20.1411 -59.2401 7.11745 255 255 255
32.1532 -57.6788 3.84465 255 255 255
44.0486 -54.8321 1.07918 255 255 255
55.5883 -50.3494 -0.842799 255 255 255
66.5989 -44.4478 -2.0094 255 255 255
76.8411 -37.2335 -2.55481 255 255 255
86.3973 -29.0891 -2.32161 255 255 255
94.9228 -19.9164 -1.39898 255 255 255
102.279 -9.8518 0.0519431 255 255 255
108.389 0.920838 2.06774 255 255 255
113.165 12.2755 4.4752 255 255 255
116.361 24.1034 7.17852 255 255 255
118.152 36.0829 10.4488 255 255 255
118.561 48.0394 14.2544 255 255 255
117.429 59.8417 18.3536 255 255 255
115.057 71.3052 22.8737 255 255 255
111.057 82.2176 27.5534 255 255 255
105.65 92.4781 32.3433 255 255 255
99.0424 102.015 37.1028 255 255 255
91.0134 110.42 41.8992 255 255 255
81.9026 117.537 46.7621 255 255 255
71.8568 123.281 51.5972 255 255 255
60.9686 127.801 55.9175 255 255 255
49.4921 130.895 59.9878 255 255 255
37.6885 132.55 63.9345 255 255 255
25.6307 132.628 67.4267 255 255 255
13.5033 131.193 70.381 255 255 255
1.5141 128.395 72.8857 255 255 255
-10.1616 124.198 74.8678 255 255 255
-21.3406 118.66 76.2815 255 255 255
-31.9394 112.008 77.1344 255 255 255
-41.6343 104.011 77.2197 255 255 255
-50.1454 94.8212 76.4495 255 255 255
-57.3571 84.6435 74.9734 255 255 255
-63.3258 73.7539 73.0396 255 255 255
-67.7693 62.2902 70.4384 255 255 255
-70.536 50.4194 67.4506 255 255 255
-71.6046 38.412 63.931 255 255 255
-71.2454 26.4579 60.0899 255 255 255
-69.3721 14.7629 55.8525 255 255 255
-65.8518 3.68621 51.1191 255 255 255
-61.1883 -6.80917 46.0115 255 255 255
-55.2491 -16.5012 40.688 255 255 255
-48.1659 -25.3638 35.2898 255 255 255
-39.8957 -33.3293 30.1925 255 255 255
-30.5382 -40.1615 25.3113 255 255 255
-20.2417 -45.7412 20.7434 255 255 255
-9.17464 -49.9644 16.5414 255 255 255
2.42464 -52.7951 12.5971 255 255 255
14.4017 -54.0121 9.06265 255 255 255
26.5526 -53.7094 5.87912 255 255 255
38.6876 -51.6498 3.33912 255 255 255
50.7311 -48.4852 1.61313 255 255 255
62.3301 -43.835 0.428196 255 255 255
73.1958 -37.5959 -0.0903261 255 255 255
83.3207 -30.2169 0.0414377 255 255 255
92.6429 -21.8275 0.617867 255 255 255
100.874 -12.4057 1.7112 255 255 255
107.803 -2.05318 3.29199 255 255 255
113.342 9.05264 5.27019 255 255 255
117.38 20.6666 7.82293 255 255 255
119.814 32.6081 10.7939 255 255 255
120.676 44.6294 14.3399 255 255 255
120.161 56.5943 18.0855 255 255 255
118.097 68.4303 21.8058 255 255 255
114.652 79.8705 25.6227 255 255 255
109.757 90.736 29.5756 255 255 255
103.643 100.935 33.5964 255 255 255
96.2129 110.283 37.4372 255 255 255
87.7107 118.802 41.0191 255 255 255
77.9461 125.882 44.4813 255 255 255
67.1607 131.408 47.6568 255 255 255
55.6545 135.616 50.4024 255 255 255
43.6645 138.568 52.6896 255 255 255
31.3473 139.877 54.6489 255 255 255
18.866 139.732 56.0354 255 255 255
6.46773 137.98 56.8374 255 255 255
-5.66958 134.814 57.2977 255 255 255
-17.3863 130.354 57.1088 255 255 255
-28.4536 124.447 56.5059 255 255 255
-38.6588 117.247 55.1966 255 255 255
-47.7525 108.82 53.3452 255 255 255
-55.6313 99.3268 51.0998 255 255 255
-62.386 89.0795 48.4786 255 255 255
-67.7406 78.1169 45.5209 255 255 255
-71.4412 66.6266 42.1674 255 255 255
-73.6207 54.7868 38.6987 255 255 255
-74.0981 42.8402 34.9266 255 255 255
-73.0572 30.9337 31.1213 255 255 255
-70.2853 19.338 27.2724 255 255 255
-66.0087 8.21925 23.379 255 255 255
-60.2797 -2.19557 19.3764 255 255 255
-53.2979 -11.9202 15.6804 255 255 255
-45.1787 -20.8106 12.1937 255 255 255
-35.8555 -28.5438 9.02696 255 255 255
-25.5644 -35.0886 6.18455 255 255 255
-14.4713 -40.2859 3.59546 255 255 255
-2.75673 -44.1165 1.33958 255 255 255
9.40003 -46.3267 -0.557562 255 255 255
21.8208 -46.9026 -2.0442 255 255 255
34.2465 -45.9633 -3.13865 255 255 255
46.5155 -43.6543 -3.76772 255 255 255
58.4849 -40.0204 -3.71271 255 255 255
70.0004 -35.1297 -3.36613 255 255 255
80.7602 -28.7733 -2.57235 255 255 255
90.5796 -21.1016 -1.33055 255 255 255
99.2898 -12.2463 0.208812 255 255 255
106.823 -2.40993 1.96219 255 255 255
112.996 8.25478 4.09327 255 255 255
117.838 19.4896 6.69773 255 255 255
121.237 31.1765 9.56498 255 255 255
122.964 43.1591 12.6547 255 255 255
123.33 55.2435 15.8413 255 255 255
122.018 67.2858 18.8933 255 255 255
119.115 79.0532 22.0216 255 255 255
114.523 90.2329 25.2683 255 255 255
108.645 100.718 28.6629 255 255 255
101.495 110.471 31.7823 255 255 255
93.2466 119.384 34.7287 255 255 255
83.9183 127.281 37.3204 255 255 255
73.4858 133.813 39.4 255 255 255
62.2263 138.976 40.9799 255 255 255
50.386 142.702 42.3717 255 255 255
38.1307 144.909 43.2772 255 255 255
25.6855 145.666 43.6534 255 255 255
13.219 144.874 43.504 255 255 255
0.969682 142.549 43.0524 255 255 255
-10.9011 138.809 42.1247 255 255 255
-22.2385 133.726 40.8188 255 255 255
-32.8344 127.343 39.0868 255 255 255
-42.581 119.878 36.9476 255 255 255
-51.3842 111.326 34.6774 255 255 255
-59.135 101.902 32.1049 255 255 255
-65.5873 91.6154 29.2576 255 255 255
-70.5308 80.5287 26.4358 255 255 255
-74.0114 68.9287 23.5235 255 255 255
-75.7479 56.9751 20.4975 255 255 255
-75.9051 44.9027 17.4646 255 255 255
-74.2708 32.9132 14.5866 255 255 255
-71.2916 21.1728 11.7345 255 255 255
-66.6791 9.96467 8.94906 255 255 255
-60.5637 -0.513657 6.22177 255 255 255
-53.1117 -10.1698 3.65538 255 255 255
-44.5706 -18.9157 1.32206 255 255 255
-34.7485 -26.2728 -0.76096 255 255 255
-24.0267 -32.3299 -2.51263 255 255 255
-12.5936 -36.9901 -4.01018 255 255 255
-0.619233 -40.1257 -5.26483 255 255 255
11.6649 -41.718 -6.41406 255 255 255
24.0911 -41.7507 -7.10565 255 255 255
36.4124 -40.1583 -7.56244 255 255 255
48.4547 -37.1055 -7.61742 255 255 255
60.0296 -32.5332 -7.49989 255 255 255
71.0245 -26.7156 -7.10717 255 255 255
81.1654 -19.5558 -6.32339 255 255 255
90.3662 -11.287 -5.31527 255 255 255
98.391 -1.88832 -4.03035 255 255 255
105.132 8.43396 -2.64939 255 255 255
110.534 19.5206 -1.12708 255 255 255
114.465 31.1424 0.654207 255 255 255
116.931 43.1685 2.4975 255 255 255
117.911 55.4022 4.4922 255 255 255
117.572 67.6757 6.39802 255 255 255
115.665 79.701 8.65372 255 255 255
112.228 91.4013 10.8825 255 255 255
107.606 102.683 13.0888 255 255 255
101.435 113.258 15.1354 255 255 255
93.9843 122.968 17.0349 255 255 255
85.2724 131.586 18.9276 255 255 255
75.6501 139.147 20.777 255 255 255
65.0765 145.346 22.4814 255 255 255
53.7225 150.041 24.0166 255 255 255
41.8157 153.142 25.2226 255 255 255
29.5573 154.767 26.0566 255 255 255
17.2225 154.893 26.6509 255 255 255
4.958 153.511 27.223 255 255 255
-7.05799 150.564 27.5021 255 255 255
-18.6365 146.256 27.421 255 255 255
-29.6252 140.573 27.2519 255 255 255
-39.817 133.572 26.9357 255 255 255
-49.1829 125.556 26.1074 255 255 255
-57.6619 116.62 25.1443 255 255 255
-64.7938 106.618 23.8257 255 255 255
-70.7836 95.948 22.1965 255 255 255
-75.4048 84.6398 20.4518 255 255 255
-78.4967 72.8115 18.7433 255 255 255
-80.0518 60.7598 16.6501 255 255 255
-79.9639 48.6168 14.373 255 255 255
-78.4823 36.5916 12.0135 255 255 255
-75.7312 24.8466 9.48412 255 255 255
-71.4931 13.5238 7.02743 255 255 255
-65.8681 2.82087 4.62615 255 255 255
-59.0541 -7.11819 2.12282 255 255 255
-51.1077 -16.1984 -0.355689 255 255 255
-42.0733 -24.2391 -2.73696 255 255 255
-32.076 -31.0109 -5.16645 255 255 255
-21.3515 -36.6272 -7.34931 255 255 255
-10.0001 -40.8311 -9.48391 255 255 255
1.82579 -43.4617 -11.5586 255 255 255
13.9389 -44.5228 -13.4563 255 255 255
26.1104 -44.1616 -15.1038 255 255 255
38.1857 -42.4206 -16.5365 255 255 255
49.9569 -39.1234 -17.8238 255 255 255
61.1862 -34.2239 -18.751 255 255 255
71.646 -27.8295 -19.5339 255 255 255
81.2076 -20.1724 -20.0225 255 255 255
89.7923 -11.4151 -20.3558 255 255 255
97.2102 -1.64153 -20.3567 255 255 255
103.359 8.98238 -20.2355 255 255 255
108.417 20.1377 -19.9032 255 255 255
112.119 31.8241 -19.3912 255 255 255
114.367 43.8713 -18.7496 255 255 255
115.023 56.0777 -17.8951 255 255 255
114.154 68.2602 -16.9321 255 255 255
111.971 80.2625 -16.018 255 255 255
108.359 91.9396 -14.9817 255 255 255
103.281 103.025 -13.8105 255 255 255
96.7112 113.314 -12.631 255 255 255
88.9839 122.782 -11.8309 255 255 255
80.1023 131.126 -10.8685 255 255 255
70.3015 138.381 -9.99665 255 255 255
59.6564 144.315 -8.99658 255 255 255
48.3036 148.726 -7.98748 255 255 255
36.5088 151.688 -6.83974 255 255 255
24.4137 152.905 -5.73429 255 255 255
12.2662 152.364 -4.67877 255 255 255
0.25675 150.42 -3.64459 255 255 255
-11.4075 146.947 -2.76276 255 255 255
-22.6134 142.252 -1.96847 255 255 255
-33.2649 136.329 -1.25144 255 255 255
-43.0197 129.02 -0.61638 255 255 255
-51.7389 120.519 0.0599277 255 255 255
-59.4288 111.079 0.643039 255 255 255
-65.9104 100.752 1.15868 255 255 255
-70.8655 89.6359 1.1893 255 255 255
-74.613 78.0689 0.842283 255 255 255
-76.7876 66.1038 0.258715 255 255 255
-77.4926 53.9687 -0.447609 255 255 255
-76.7504 41.8745 -1.32859 255 255 255
-74.6051 29.9536 -2.4813 255 255 255
-70.8656 18.5035 -3.97845 255 255 255
-65.8066 7.639 -5.90962 255 255 255
-59.5309 -2.53256 -8.02986 255 255 255
-51.9776 -11.749 -10.3791 255 255 255
-43.2736 -19.8112 -12.932 255 255 255
-33.4652 -26.4799 -15.478 255 255 255
-22.8316 -31.6993 -18.0645 255 255 255
-11.5899 -35.5112 -20.4964 255 255 255
0.0273515 -37.9474 -22.9283 255 255 255
11.8676 -38.9307 -25.2731 255 255 255
23.7936 -38.4843 -27.3431 255 255 255
35.6047 -36.5382 -29.2426 255 255 255
47.1151 -33.0837 -30.7135 255 255 255
58.0822 -28.0809 -31.8686 255 255 255
68.4098 -21.7632 -32.2917 255 255 255
77.9207 -14.3088 -32.3913 255 255 255
86.4151 -5.7257 -32.0131 255 255 255
93.7638 3.83743 -31.2396 255 255 255
99.7846 14.2385 -30.1148 255 255 255
104.345 25.2995 -28.4273 255 255 255
107.581 36.7705 -26.5548 255 255 255
109.439 48.4968 -24.4168 255 255 255
109.782 60.2356 -21.6974 255 255 255
108.589 71.8323 -18.5897 255 255 255
106.193 83.1545 -15.1722 255 255 255
102.237 93.9873 -11.6549 255 255 255
96.6858 104.106 -8.17887 255 255 255
89.6654 113.237 -4.66877 255 255 255
81.6711 121.465 -1.03136 255 255 255
72.673 128.658 2.44502 255 255 255
62.7205 134.573 5.73782 255 255 255
52.0428 139.235 8.71934 255 255 255
40.7654 142.624 11.1705 255 255 255
29.1333 144.874 13.1978 255 255 255
17.3069 145.698 15.0268 255 255 255
5.40355 144.892 16.3536 255 255 255
-6.364 142.719 17.2914 255 255 255
-17.7669 139.044 17.8021 255 255 255
-28.5931 133.859 17.9064 255 255 255
-38.6801 127.378 17.7993 255 255 255
-47.9563 119.816 17.0244 255 255 255
-56.0149 111.012 15.8238 255 255 255
-63.0228 101.438 14.2573 255 255 255
-68.7595 91.1458 12.1696 255 255 255
-73.1053 80.3041 9.58535 255 255 255
-75.9871 69.1312 6.45337 255 255 255
-77.4633 57.7588 3.09616 255 255 255
-77.3346 46.3214 -0.397307 255 255 255
-75.6432 35.0636 -4.02929 255 255 255
-72.5879 24.1459 -7.74597 255 255 255
-68.4286 13.619 -11.5064 255 255 255
-62.7799 3.78004 -15.2453 255 255 255
-55.913 -5.1949 -19.0085 255 255 255
-47.883 -13.1947 -22.7077 255 255 255
-38.8153 -19.9804 -26.4107 255 255 255
-28.8254 -25.4425 -29.9068 255 255 255
-18.1347 -29.6087 -33.1319 255 255 255
-6.91768 -32.3171 -36.0251 255 255 255
4.64508 -33.6321 -38.5172 255 255 255
16.3413 -33.5161 -40.6735 255 255 255
27.982 -31.799 -42.4315 255 255 255
39.4165 -28.8071 -43.4865 255 255 255
50.3956 -24.3334 -44.0075 255 255 255
60.7715 -18.5937 -44.1455 255 255 255
70.419 -11.6997 -43.6999 255 255 255
79.1267 -3.68335 -42.7824 255 255 255
86.7807 5.24269 -41.2613 255 255 255
93.2513 14.979 -39.2799 255 255 255
98.3969 25.3814 -36.8488 255 255 255
102.092 36.2343 -33.8859 255 255 255
104.342 47.4076 -30.7252 255 255 255
105.354 58.6632 -27.2647 255 255 255
105.008 69.8603 -23.4885 255 255 255
103.121 80.734 -19.2854 255 255 255
99.8599 91.2683 -15.0471 255 255 255
95.2439 101.287 -10.8461 255 255 255
89.3485 110.582 -6.59311 255 255 255
82.3822 119.112 -2.38283 255 255 255
74.4107 126.746 1.73421 255 255 255
65.4583 133.399 5.53808 255 255 255
55.6416 138.886 9.10169 255 255 255
45.1047 143.222 12.0139 255 255 255
34.0237 146.221 14.4865 255 255 255
22.5951 147.921 16.7136 255 255 255
10.9961 148.34 18.5339 255 255 255
-0.648075 147.457 19.7077 255 255 255
-12.142 145.08 20.3188 255 255 255
-23.2456 141.318 20.4459 255 255 255
-33.7817 136.17 20.0383 255 255 255
-43.5142 129.692 19.2335 255 255 255
-52.3289 122.008 18.1458 255 255 255
-60.023 113.268 16.8157 255 255 255
-66.5729 103.751 14.9227 255 255 255
-71.8659 93.576 12.6681 255 255 255
-75.9453 82.9651 9.91142 255 255 255
-78.5612 72.0168 6.73431 255 255 255
-79.8184 60.8918 3.33187 255 255 255
-79.8608 49.7832 -0.313913 255 255 255
-78.3504 38.7809 -3.92348 255 255 255
-75.4012 28.0928 -7.59153 255 255 255
-71.1176 17.9244 -11.3616 255 255 255
-65.4816 8.36857 -14.9785 255 255 255
-58.5513 -0.322556 -18.4397 255 255 255
-50.488 -8.02152 -21.773 255 255 255
-41.3266 -14.6158 -24.6404 255 255 255
-31.4174 -20.0499 -27.4145 255 255 255
-20.8853 -24.4705 -29.6985 255 255 255
-9.84583 -27.489 -31.7621 255 255 255
1.55818 -29.0519 -33.3373 255 255 255
13.0759 -29.2571 -34.6763 255 255 255
24.6063 -28.2541 -35.4306 255 255 255
35.9351 -25.8602 -35.7297 255 255 255
46.8641 -22.069 -35.5235 255 255 255
57.2851 -16.9828 -34.8927 255 255 255
67.1111 -10.9105 -34.1279 255 255 255
76.2222 -3.85228 -33.1461 255 255 255
84.3639 4.26279 -31.7991 255 255 255
91.5624 13.1582 -30.2386 255 255 255
97.5068 22.8997 -28.4151 255 255 255
102.172 33.2857 -26.4501 255 255 255
105.469 44.1486 -24.2875 255 255 255
107.224 55.3539 -22.0937 255 255 255
107.727 66.6107 -19.6357 255 255 255
106.925 77.7499 -16.792 255 255 255
104.809 88.7515 -14.2393 255 255 255
101.36 99.3962 -11.5565 255 255 255
96.405 109.384 -8.66538 255 255 255
90.2887 118.742 -6.00467 255 255 255
83.0165 127.316 -3.61741 255 255 255
74.6868 134.917 -1.45091 255 255 255
65.4877 141.512 0.432247 255 255 255
55.5276 146.952 2.15294 255 255 255
44.9452 151.085 3.72044 255 255 255
33.9159 153.872 4.97052 255 255 255
22.5867 155.369 5.96748 255 255 255
11.1597 155.221 6.59827 255 255 255
-0.161467 153.712 6.9542 255 255 255
-11.2215 150.868 6.93479 255 255 255
-21.8387 146.657 6.54432 255 255 255
-31.8699 141.232 5.87252 255 255 255
-41.1881 134.701 4.98656 255 255 255
-49.5414 127.001 3.87441 255 255 255
-56.8373 118.389 2.28659 255 255 255
-63.1306 109.076 0.380553 255 255 255
-68.0093 99.0548 -1.89625 255 255 255
-71.6472 88.5672 -4.35064 255 255 255
-73.8697 77.7108 -6.9105 255 255 255
-74.6161 66.7181 -9.70037 255 255 255
-73.8846 55.7583 -12.5728 255 255 255
-71.5484 45.0868 -15.6734 255 255 255
-67.9881 34.7808 -18.7615 255 255 255
-62.9968 25.1087 -21.9523 255 255 255
-56.8344 16.1194 -25.042 255 255 255
-49.6409 7.92311 -28.1475 255 255 255
-41.5118 0.660663 -31.204 255 255 255
-32.4392 -5.43076 -34.1043 255 255 255
-22.6918 -10.4872 -36.8042 255 255 255
-12.3872 -14.342 -39.315 255 255 255
-1.59067 -16.8651 -41.4811 255 255 255
9.47419 -18.1329 -43.328 255 255 255
20.6506 -18.0706 -44.846 255 255 255
31.7702 -16.6661 -45.9298 255 255 255
42.698 -14.0181 -46.5467 255 255 255
53.194 -9.98113 -46.8694 255 255 255
63.0505 -4.58039 -46.7728 255 255 255
72.2154 1.94008 -46.3162 255 255 255
80.4472 9.57136 -45.4653 255 255 255
87.5558 18.1534 -44.2616 255 255 255
93.4255 27.6172 -42.7816 255 255 255
97.9495 37.722 -40.9653 255 255 255
101.504 48.1414 -38.9154 255 255 255
103.726 58.8566 -36.5435 255 255 255
104.657 69.7201 -34.0065 255 255 255
104.267 80.6096 -31.4831 255 255 255
102.388 91.3096 -28.8233 255 255 255
99.0363 101.601 -26.0547 255 255 255
94.4668 111.362 -23.187 255 255 255
88.5089 120.417 -20.5381 255 255 255
81.4805 128.648 -17.8886 255 255 255
73.3504 135.857 -15.4046 255 255 255
64.359 141.973 -12.9947 255 255 255
54.7142 147.091 -10.84 255 255 255
44.5373 151.225 -9.09476 255 255 255
33.9363 154.117 -7.6075 255 255 255
23.051 155.835 -6.42846 255 255 255
11.9921 156.215 -5.40299 255 255 255
0.965794 155.303 -4.6034 255 255 255
-9.89488 153.136 -4.08451 255 255 255
-20.4515 149.776 -3.86707 255 255 255
-30.5575 145.296 -4.17206 255 255 255
-39.9928 139.577 -4.74815 255 255 255
-48.7386 132.867 -5.54034 255 255 255
-56.5094 125.12 -6.74135 255 255 255
-63.3047 116.626 -8.59374 255 255 255
-68.9329 107.371 -10.6901 255 255 255
-73.485 97.6239 -13.115 255 255 255
-76.771 87.4574 -15.8458 255 255 255
-78.7922 77.002 -18.6435 255 255 255
-79.5946 66.4545 -21.6306 255 255 255
-78.9062 55.8985 -24.603 255 255 255
-76.8514 45.5624 -27.7114 255 255 255
-73.5112 35.6041 -30.9016 255 255 255
-68.9089 26.1536 -34.0196 255 255 255
-63.1196 17.3736 -37.1294 255 255 255
-56.1769 9.48942 -40.2141 255 255 255
-48.2587 2.53635 -43.1575 255 255 255
-39.4703 -3.34915 -45.9374 255 255 255
-29.8676 -8.12523 -48.1432 255 255 255
-19.716 -11.7454 -49.9671 255 255 255
-9.12385 -13.9875 -51.3679 255 255 255
1.67 -15.1454 -52.5187 255 255 255
12.5179 -14.9755 -53.1656 255 255 255
23.3128 -13.5494 -53.2733 255 255 255
33.8453 -10.8377 -53.1724 255 255 255
43.9674 -6.87821 -52.6072 255 255 255
53.5163 -1.76909 -51.6366 255 255 255
62.2929 4.49924 -50.2576 255 255 255
70.1839 11.7181 -48.4716 255 255 255
77.1536 19.8302 -46.6305 255 255 255
83.0275 28.6735 -44.4255 255 255 255
87.5745 38.1938 -41.9662 255 255 255
90.8286 48.1767 -39.3878 255 255 255
92.5095 58.5109 -36.6642 255 255 255
92.8942 68.9107 -33.7764 255 255 255
91.7902 79.2344 -30.7921 255 255 255
89.4644 89.3608 -27.8711 255 255 255
85.6952 99.0951 -25.1799 255 255 255
80.8244 108.374 -22.5885 255 255 255
74.7891 116.93 -20.1339 255 255 255
67.4349 124.458 -17.9563 255 255 255
59.178 131.094 -16.1148 255 255 255
50.1554 136.707 -14.6624 255 255 255
40.4664 141.216 -13.494 255 255 255
30.3372 144.553 -12.4723 255 255 255
19.8435 146.656 -11.7343 255 255 255
9.16245 147.345 -11.4137 255 255 255
-1.52562 146.691 -11.3875 255 255 255
-12.0415 144.7 -11.7364 255 255 255
-22.247 141.508 -12.3069 255 255 255
-31.9309 137.117 -13.3002 255 255 255
-40.8755 131.508 -14.7702 255 255 255
-48.965 124.775 -16.4997 255 255 255
-56.089 117.127 -18.5358 255 255 255
-62.0947 108.638 -20.8629 255 255 255
-66.9324 99.508 -23.4093 255 255 255
-70.6697 89.94 -26.1813 255 255 255
-73.2445 80.0047 -28.8654 255 255 255
-74.565 69.8514 -31.6694 255 255 255
-74.5038 59.6054 -34.3238 255 255 255
-73.0208 49.405 -36.7874 255 255 255
-70.076 39.5485 -39.2474 255 255 255
-65.8118 30.1547 -41.5542 255 255 255
-60.3887 21.3335 -43.6458 255 255 255
-53.8174 13.2719 -45.5294 255 255 255
-46.367 6.02424 -47.2098 255 255 255
-38.0145 -0.217444 -48.7523 255 255 255
-28.894 -5.40045 -49.9915 255 255 255
-19.2062 -9.41376 -50.9134 255 255 255
-9.06798 -12.2161 -51.3859 255 255 255
1.3157 -13.8151 -51.696 255 255 255
11.8223 -13.945 -51.7209 255 255 255
22.2432 -12.7232 -51.498 255 255 255
32.3888 -10.2186 -50.8808 255 255 255
42.0785 -6.30387 -50.1302 255 255 255
51.2181 -1.30452 -49.2918 255 255 255
59.6802 4.72859 -48.2242 255 255 255
67.3592 11.7072 -47.0199 255 255 255
74.1756 19.4997 -45.6935 255 255 255
79.9662 28.0534 -44.2626 255 255 255
84.6279 37.2484 -42.8211 255 255 255
87.8617 47.0056 -41.2163 255 255 255
89.9214 57.061 -39.5156 255 255 255
90.6696 67.2836 -37.8828 255 255 255
90.1626 77.5285 -36.2133 255 255 255
88.3316 87.5963 -34.5577 255 255 255
85.135 97.3283 -32.8816 255 255 255
80.9442 106.681 -31.4677 255 255 255
75.6343 115.471 -30.0856 255 255 255
69.2913 123.546 -28.9684 255 255 255
62.0365 130.811 -27.8905 255 255 255
53.91 137.097 -27.0007 255 255 255
45.1625 142.482 -26.3311 255 255 255
35.8223 146.776 -25.5968 255 255 255
25.9888 149.753 -24.9447 255 255 255
15.908 151.774 -24.5229 255 255 255
5.67747 152.567 -24.0264 255 255 255
-4.56822 152.209 -23.7461 255 255 255
-14.7095 150.621 -23.5227 255 255 255
-24.58 147.858 -23.4838 255 255 255
-33.9382 143.729 -23.3723 255 255 255
-42.7483 138.541 -23.4605 255 255 255
-50.7705 132.202 -23.6048 255 255 255
-57.8592 124.865 -23.905 255 255 255
-63.9536 116.704 -24.4569 255 255 255
-69.0024 107.879 -25.0624 255 255 255
-72.8765 98.4898 -25.817 255 255 255
-75.3819 88.6733 -26.7005 255 255 255
-76.5273 78.6333 -27.7193 255 255 255
-76.4562 68.5264 -28.8231 255 255 255
-75.1816 58.5644 -30.1967 255 255 255
-72.9915 48.7554 -31.5762 255 255 255
-69.626 39.2986 -33.0219 255 255 255
-65.1597 30.342 -34.511 255 255 255
-59.7023 21.9864 -36.0559 255 255 255
-53.2333 14.3575 -37.6014 255 255 255
-45.8539 7.69471 -39.2816 255 255 255
-37.7038 2.03426 -40.9883 255 255 255
-28.8948 -2.52226 -42.6981 255 255 255
-19.6257 -6.08308 -44.3567 255 255 255
-10.0095 -8.56663 -45.8705 255 255 255
-0.123682 -9.79713 -47.087 255 255 255
9.8695 -9.68125 -48.0173 255 255 255
19.7403 -8.17065 -48.843 255 255 255
29.3681 -5.44891 -49.4186 255 255 255
38.5526 -1.48992 -49.7688 255 255 255
47.2066 3.51055 -49.939 255 255 255
55.1901 9.4912 -49.8399 255 255 255
62.2246 16.571 -49.757 255 255 255
68.2956 24.4534 -49.3437 255 255 255
73.4509 32.951 -48.836 255 255 255
77.5559 41.9797 -48.1043 255 255 255
80.4263 51.4264 -47.1469 255 255 255
82.0506 61.1462 -45.9757 255 255 255
82.4318 70.9747 -44.6817 255 255 255
81.367 80.7312 -43.3228 255 255 255
79.1994 90.2672 -41.8964 255 255 255
75.7263 99.4315 -40.527 255 255 255
71.2653 108.136 -39.2225 255 255 255
65.6919 116.197 -38.0078 255 255 255
59.0852 123.441 -36.8752 255 255 255
51.5949 129.764 -35.8898 255 255 255
43.3505 135.093 -35.1951 255 255 255
34.5249 139.394 -34.6392 255 255 255
25.1735 142.429 -34.475 255 255 255
15.5563 144.312 -34.4243 255 255 255
5.77705 144.997 -34.5572 255 255 255
-4.00204 144.473 -34.9023 255 255 255
-13.6353 142.963 -35.5058 255 255 255
-23.0299 140.381 -36.291 255 255 255
-32.0193 136.622 -36.9766 255 255 255
-40.474 131.821 -37.7599 255 255 255
-48.199 125.956 -38.7261 255 255 255
-55.1238 119.207 -39.766 255 255 255
-61.2118 111.766 -41.1153 255 255 255
-66.331 103.613 -42.4738 255 255 255
-70.2864 94.8718 -43.9347 255 255 255
-73.0154 85.7238 -45.5561 255 255 255
-74.5085 76.2744 -47.1258 255 255 255
-74.7928 66.772 -48.7722 255 255 255
-73.9575 57.3054 -50.592 255 255 255
-71.9348 48.068 -52.5131 255 255 255
-68.7394 39.1728 -54.291 255 255 255
-64.4433 30.7569 -56.1577 255 255 255
-59.0515 22.9712 -57.8335 255 255 255
-52.8501 15.8524 -59.5586 255 255 255
-45.8449 9.49281 -61.2043 255 255 255
-38.0005 4.19357 -62.7874 255 255 255
-29.5051 -0.126995 -63.8553 255 255 255
-20.5051 -3.28282 -64.5771 255 255 255
-11.1677 -5.29365 -65.1447 255 255 255
-1.66845 -6.14227 -65.4932 255 255 255
7.85756 -5.72323 -65.7104 255 255 255
17.2393 -4.05863 -65.6727 255 255 255
26.32 -1.26927 -65.4497 255 255 255
34.9375 2.7311 -65.2778 255 255 255
43.0453 7.68887 -64.7826 255 255 255
50.4345 13.5787 -63.8806 255 255 255
56.8909 20.3898 -62.6535 255 255 255
62.3058 28.0439 -61.2414 255 255 255
66.624 36.283 -59.6845 255 255 255
69.7398 45.0386 -58.0019 255 255 255
71.5665 54.1231 -56.175 255 255 255
72.1419 63.3302 -54.2478 255 255 255
71.7321 72.6014 -52.6071 255 255 255
70.1457 81.7417 -51.1299 255 255 255
67.4816 90.598 -49.4685 255 255 255
63.767 99.0789 -47.9654 255 255 255
58.9612 106.974 -46.4836 255 255 255
53.2234 114.212 -44.9802 255 255 255
46.6434 120.698 -43.7014 255 255 255
39.2905 126.424 -42.717 255 255 255
31.2315 131.036 -41.7976 255 255 255
22.7044 134.722 -41.0023 255 255 255
13.7399 137.176 -40.5535 255 255 255
4.55027 138.569 -40.2779 255 255 255
-4.72063 138.732 -40.3343 255 255 255
-13.9271 137.678 -40.6181 255 255 255
-22.8802 135.378 -41.23 255 255 255
-31.5087 132.125 -42.2307 255 255 255
-39.6236 127.84 -43.4756 255 255 255
-47.1318 122.653 -44.968 255 255 255
-53.7655 116.385 -46.4169 255 255 255
-59.5803 109.416 -48.0356 255 255 255
-64.4162 101.811 -49.8688 255 255 255
-68.0877 93.6562 -51.9622 255 255 255
-70.9169 85.2042 -54.1326 255 255 255
-72.7241 76.5023 -56.3699 255 255 255
-73.1419 67.6403 -58.6465 255 255 255
-72.3779 58.8271 -61.0061 255 255 255
-70.3606 50.1866 -63.184 255 255 255
-67.2008 41.8948 -65.3059 255 255 255
-63.1801 33.958 -67.3508 255 255 255
-58.1497 26.6196 -69.3411 255 255 255
-52.2675 19.9452 -71.1747 255 255 255
-45.5613 14.004 -72.7027 255 255 255
-38.0811 9.02674 -73.9701 255 255 255
-30.0472 4.94807 -74.9952 255 255 255
-21.5215 1.98019 -75.7336 255 255 255
-12.7333 -0.107475 -76.2852 255 255 255
-3.75588 -1.03508 -76.509 255 255 255
5.27611 -0.966651 -76.3858 255 255 255
14.2169 0.179024 -75.9812 255 255 255
22.8873 2.40849 -75.1256 255 255 255
31.2032 5.60902 -73.9049 255 255 255
39.0347 9.68997 -72.3931 255 255 255
46.2912 14.6418 -70.5869 255 255 255
52.7498 20.4841 -68.5292 255 255 255
58.4179 26.9871 -66.146 255 255 255
63.2302 34.0765 -63.5574 255 255 255
67.1024 41.6157 -60.7548 255 255 255
69.893 49.6153 -57.9952 255 255 255
71.7115 57.8529 -55.2155 255 255 255
72.5751 66.2527 -52.4387 255 255 255
72.2192 74.7192 -49.8069 255 255 255
70.6545 83.035 -47.2433 255 255 255
67.9412 91.1407 -44.9566 255 255 255
64.2302 98.9168 -43.0078 255 255 255
59.6302 106.274 -41.3561 255 255 255
54.1135 113.017 -39.9497 255 255 255
47.7471 119.0 -38.8605 255 255 255
40.7541 124.255 -38.0344 255 255 255
33.1347 128.599 -37.5812 255 255 255
25.0783 132.06 -37.4593 255 255 255
16.7046 134.647 -37.7573 255 255 255
8.1422 136.344 -38.3995 255 255 255
-0.518707 136.962 -39.5326 255 255 255
-9.1373 136.613 -40.943 255 255 255
-17.5626 135.197 -42.6556 255 255 255
-25.6555 132.693 -44.7196 255 255 255
-33.2898 129.265 -47.0934 255 255 255
-40.3781 124.898 -49.5616 255 255 255
-46.7724 119.648 -52.1525 255 255 255
-52.3912 113.69 -54.9787 255 255 255
-57.2268 107.143 -57.8184 255 255 255
-60.9813 99.926 -60.7063 255 255 255
-63.7599 92.3058 -63.6514 255 255 255
-65.4377 84.4431 -66.7474 255 255 255
-66.0043 76.4227 -69.8388 255 255 255
-65.326 68.3702 -72.7152 255 255 255
-63.5875 60.3876 -75.3121 255 255 255
-60.6898 52.7037 -77.7607 255 255 255
-56.8502 45.4073 -80.0294 255 255 255
-51.9939 38.7161 -82.1389 255 255 255
-46.288 32.6025 -83.8347 255 255 255
-39.8125 27.2302 -85.2994 255 255 255
-32.815 22.4948 -86.4241 255 255 255
-25.2661 18.6089 -87.0645 255 255 255
-17.3589 15.5603 -87.2888 255 255 255
-9.16477 13.3923 -87.0102 255 255 255
-0.800056 12.2606 -86.2726 255 255 255
7.57899 12.0264 -85.2421 255 255 255
15.8535 12.8171 -83.8176 255 255 255
23.9329 14.6233 -82.2285 255 255 255
31.6951 17.309 -80.3316 255 255 255
38.9247 21.0052 -78.217 255 255 255
45.5541 25.6053 -75.8976 255 255 255
51.4708 30.9297 -73.2944 255 255 255
56.6804 36.9346 -70.6434 255 255 255
61.0239 43.499 -67.859 255 255 255
64.2869 50.6132 -64.9304 255 255 255
66.5975 58.1072 -62.0806 255 255 255
67.9162 65.853 -59.2793 255 255 255
68.1314 73.7278 -56.59 255 255 255
67.3094 81.5991 -54.0673 255 255 255
65.5169 89.3244 -51.6572 255 255 255
62.741 96.8175 -49.5064 255 255 255
59.0227 103.98 -47.6801 255 255 255
54.4515 110.674 -46.2005 255 255 255
48.94 116.695 -45.0309 255 255 255
42.7057 121.999 -44.1723 255 255 255
35.907 126.61 -43.6417 255 255 255
28.6368 130.384 -43.5114 255 255 255
20.9559 133.247 -43.6818 255 255 255
12.9984 135.202 -43.9958 255 255 255
4.91739 136.285 -44.5792 255 255 255
-3.21344 136.264 -45.3986 255 255 255
-11.2567 135.3 -46.3068 255 255 255
-19.1184 133.403 -47.3073 255 255 255
-26.6652 130.667 -48.4677 255 255 255
-33.8335 127.111 -49.7485 255 255 255
-40.3918 122.571 -51.1569 255 255 255
-46.2909 117.316 -52.7503 255 255 255
-51.612 111.511 -54.5593 255 255 255
-56.0964 105.044 -56.2982 255 255 255
-59.5936 98.0592 -58.1788 255 255 255
-62.0558 90.6487 -60.1383 255 255 255
-63.5949 83.0268 -62.0972 255 255 255
-64.1268 75.2807 -64.0716 255 255 255
-63.7192 67.5357 -65.919 255 255 255
-62.4208 59.8437 -67.656 255 255 255
-60.0073 52.4212 -69.2855 255 255 255
-56.5277 45.4174 -70.8355 255 255 255
-52.2929 38.8381 -72.2122 255 255 255
-47.2632 32.8195 -73.4201 255 255 255
-41.4267 27.5422 -74.489 255 255 255
-34.9698 23.0723 -75.4416 255 255 255
-28.0525 19.3513 -76.2566 255 255 255
-20.7025 16.5945 -76.9592 255 255 255
-13.0407 14.8217 -77.4212 255 255 255
-5.22402 13.936 -77.6643 255 255 255
2.63272 14.0436 -77.5762 255 255 255
10.3908 15.102 -77.2448 255 255 255
17.914 17.1916 -76.7026 255 255 255
25.0618 20.221 -75.8734 255 255 255
31.765 24.0679 -74.918 255 255 255
37.8883 28.7785 -73.7959 255 255 255
43.2886 34.2336 -72.5938 255 255 255
47.8964 40.3793 -71.4527 255 255 255
51.6639 47.0402 -70.2005 255 255 255
54.5918 54.1075 -68.9572 255 255 255
56.6286 61.4583 -67.7389 255 255 255
57.6898 68.9953 -66.4899 255 255 255
57.6756 76.5959 -65.2526 255 255 255
56.6582 84.1109 -63.9799 255 255 255
54.5777 91.4019 -62.828 255 255 255
51.6024 98.3866 -61.7632 255 255 255
47.7403 104.924 -60.8299 255 255 255
43.1677 110.998 -59.9336 255 255 255
37.7945 116.372 -59.2215 255 255 255
31.8084 121.034 -58.6788 255 255 255
25.1813 124.737 -58.0279 255 255 255
18.2016 127.669 -57.4287 255 255 255
10.9403 129.778 -56.9648 255 255 255
3.48285 131.011 -56.7033 255 255 255
-4.03748 131.366 -56.5755 255 255 255
-11.5667 130.869 -56.5765 255 255 255
-18.9538 129.455 -56.7012 255 255 255
-26.0892 127.066 -56.8447 255 255 255
-32.8044 123.728 -57.1964 255 255 255
-39.0244 119.6 -57.7427 255 255 255
-44.5577 114.609 -58.3695 255 255 255
-49.4583 109.026 -59.1084 255 255 255
-53.6214 102.897 -59.9562 255 255 255
-57.021 96.3235 -60.8737 255 255 255
-59.4479 89.3995 -62.0019 255 255 255
-60.7562 82.1896 -63.1666 255 255 255
-61.0677 74.9116 -64.3848 255 255 255
-60.438 67.6679 -65.6061 255 255 255
-58.8735 60.5728 -66.872 255 255 255
-56.542 53.6743 -68.0071 255 255 255
-53.3471 47.1295 -69.0026 255 255 255
-49.4421 41.0069 -70.0249 255 255 255
-44.8163 35.4003 -70.8362 255 255 255
-39.6182 30.3301 -71.5898 255 255 255
-33.76 25.9866 -72.2164 255 255 255
-27.4057 22.4345 -72.7163 255 255 255
-20.7352 19.6771 -73.3797 255 255 255
-13.755 17.7806 -73.9613 255 255 255
-6.59231 16.8118 -74.4155 255 255 255
0.64253 16.7981 -74.6885 255 255 255
7.825 17.6862 -74.853 255 255 255
14.8166 19.4748 -74.8978 255 255 255
21.5335 22.0385 -74.8467 255 255 255
27.907 25.3722 -74.6802 255 255 255
33.79 29.4658 -74.3743 255 255 255
39.0775 34.2638 -73.9421 255 255 255
43.7568 39.6451 -73.5105 255 255 255
47.651 45.609 -73.0097 255 255 255
50.8112 51.9679 -72.3938 255 255 255
53.2082 58.6305 -71.691 255 255 255
54.8433 65.5018 -71.0115 255 255 255
55.5831 72.5206 -70.4381 255 255 255
55.3066 79.5397 -69.7889 255 255 255
54.1324 86.4798 -69.2424 255 255 255
52.1405 93.2204 -68.6945 255 255 255
49.3902 99.6766 -68.1281 255 255 255
45.9274 105.75 -67.5844 255 255 255
41.7546 111.358 -67.1938 255 255 255
36.9642 116.424 -66.961 255 255 255
31.5382 120.807 -66.8416 255 255 255
25.602 124.448 -66.8012 255 255 255
19.2819 127.304 -66.7839 255 255 255
12.6368 129.256 -67.0214 255 255 255
5.79489 130.258 -67.4136 255 255 255
-1.08499 130.57 -67.8407 255 255 255
-7.94397 130.119 -68.3471 255 255 255
-14.6718 128.788 -68.9398 255 255 255
-21.1934 126.688 -69.6603 255 255 255
-27.36 123.81 -70.4272 255 255 255
-33.1367 120.184 -71.2004 255 255 255
-38.3032 115.818 -72.0304 255 255 255
-42.8413 110.804 -72.8411 255 255 255
-46.6547 105.215 -73.6658 255 255 255
-49.7306 99.2019 -74.2624 255 255 255
-51.9216 92.8026 -74.6944 255 255 255
-53.2946 86.1813 -75.0211 255 255 255
-53.9095 79.4591 -75.2353 255 255 255
-53.7276 72.7385 -75.4119 255 255 255
-52.7093 66.1028 -75.5527 255 255 255
-50.9428 59.6416 -75.5491 255 255 255
-48.4473 53.4346 -75.2472 255 255 255
-45.1523 47.6152 -74.9012 255 255 255
-41.133 42.3325 -74.3758 255 255 255
-36.541 37.5347 -73.744 255 255 255
-31.396 33.3881 -73.0064 255 255 255
-25.7926 29.9295 -72.2531 255 255 255
-19.7978 27.2655 -71.4256 255 255 255
-13.5505 25.3631 -70.3451 255 255 255
-7.14905 24.2143 -69.313 255 255 255
-0.680415 23.8232 -68.3189 255 255 255
5.77707 24.3695 -67.2591 255 255 255
12.1049 25.6732 -66.1913 255 255 255
18.1906 27.8201 -65.2512 255 255 255
24.0047 30.6026 -64.3331 255 255 255
29.4146 34.1537 -63.5806 255 255 255
34.4068 38.2414 -62.994 255 255 255
38.8326 42.9665 -62.5087 255 255 255
42.6726 48.1673 -62.2182 255 255 255
45.9665 53.7099 -62.0621 255 255 255
48.5636 59.6211 -61.9729 255 255 255
50.3628 65.7899 -61.9411 255 255 255
51.3632 72.1332 -62.0263 255 255 255
51.4775 78.5428 -62.0779 255 255 255
50.755 84.8824 -62.3464 255 255 255
49.2649 91.0764 -62.6575 255 255 255
47.0512 97.0196 -63.0869 255 255 255
44.2246 102.671 -63.6271 255 255 255
40.6488 107.887 -64.1839 255 255 255
36.4316 112.559 -64.8068 255 255 255
31.7082 116.693 -65.3999 255 255 255
26.5523 120.283 -65.9058 255 255 255
20.9822 123.094 -66.5064 255 255 255
15.0996 125.189 -67.1669 255 255 255
9.01329 126.474 -67.7878 255 255 255
2.81648 127.058 -68.3732 255 255 255
-3.40077 126.919 -68.8602 255 255 255
-9.54712 126.138 -69.3422 255 255 255
-15.5374 124.609 -69.8474 255 255 255
-21.2819 122.343 -70.2433 255 255 255
-26.6677 119.324 -70.4323 255 255 255
-31.6641 115.708 -70.5282 255 255 255
-36.1455 111.507 -70.5697 255 255 255
-40.0579 106.778 -70.6054 255 255 255
-43.2424 101.573 -70.6042 255 255 255
-45.7518 95.9963 -70.4879 255 255 255
-47.6123 90.2005 -70.3331 255 255 255
-48.8269 84.2329 -70.0797 255 255 255
-49.1957 78.1884 -69.8913 255 255 255
-48.7821 72.1563 -69.6516 255 255 255
-47.6705 66.2135 -69.3881 255 255 255
-45.8229 60.5022 -69.1923 255 255 255
-43.267 55.0901 -68.9654 255 255 255
-40.0438 50.0335 -68.7238 255 255 255
-36.2593 45.4263 -68.4092 255 255 255
-31.9566 41.3075 -68.0295 255 255 255
-27.1788 37.7798 -67.6316 255 255 255
-21.9254 34.9984 -67.1894 255 255 255
-16.4314 32.9013 -66.6978 255 255 255
-10.7201 31.447 -66.1643 255 255 255
-4.90014 30.7408 -65.6644 255 255 255
0.958908 30.7427 -65.1494 255 255 255
6.72052 31.5926 -64.607 255 255 255
12.3072 33.2448 -64.1187 255 255 255
17.6229 35.6009 -63.5693 255 255 255
22.5663 38.6248 -63.1757 255 255 255
27.0736 42.2563 -62.927 255 255 255
31.1044 46.4175 -62.7455 255 255 255
34.5308 51.0727 -62.5226 255 255 255
37.4041 56.0727 -62.4307 255 255 255
39.6209 61.3756 -62.3186 255 255 255
41.1714 66.8929 -62.2885 255 255 255
42.1103 72.5385 -62.3022 255 255 255
42.3383 78.2269 -62.4439 255 255 255
41.8468 83.9122 -62.6957 255 255 255
40.5412 89.4395 -62.9228 255 255 255
38.5369 94.7221 -63.1851 255 255 255
35.892 99.7173 -63.4554 255 255 255
32.6509 104.321 -63.7358 255 255 255
28.8505 108.456 -64.0314 255 255 255
24.5123 112.034 -64.258 255 255 255
19.8069 115.059 -64.4475 255 255 255
14.8214 117.529 -64.6441 255 255 255
9.55981 119.342 -64.8749 255 255 255
4.15564 120.506 -65.124 255 255 255
-1.34285 121.026 -65.4338 255 255 255
-6.85738 120.956 -65.7787 255 255 255
-12.338 120.322 -66.107 255 255 255
-17.6683 118.987 -66.5184 255 255 255
-22.7284 116.925 -66.9669 255 255 255
-27.5073 114.304 -67.4855 255 255 255
-31.867 111.103 -68.1223 255 255 255
-35.8486 107.476 -68.8199 255 255 255
-39.3418 103.388 -69.6373 255 255 255
-42.3742 98.9753 -70.4623 255 255 255
-44.7464 94.2029 -71.2285 255 255 255
-46.4689 89.1476 -71.9582 255 255 255
-47.5553 83.9233 -72.5988 255 255 255
-47.956 78.6061 -73.1456 255 255 255
-47.767 73.3041 -73.7239 255 255 255
-46.8697 68.0762 -74.2019 255 255 255
-45.2937 63.0223 -74.6243 255 255 255
-43.1191 58.1936 -74.9899 255 255 255
-40.3453 53.6865 -75.3055 255 255 255
-37.1023 49.5329 -75.4902 255 255 255
-33.3669 45.8355 -75.5926 255 255 255
-29.2512 42.5696 -75.6338 255 255 255
-24.7471 39.9075 -75.5542 255 255 255
-19.9761 37.8602 -75.3007 255 255 255
-15.013 36.3576 -74.9406 255 255 255
-9.92323 35.4484 -74.5504 255 255 255
-4.79004 35.2138 -74.1298 255 255 255
0.332053 35.7029 -73.672 255 255 255
5.32743 36.8026 -73.1973 255 255 255
10.1799 38.4407 -72.7828 255 255 255
14.7513 40.689 -72.2319 255 255 255
18.9457 43.5696 -71.7201 255 255 255
22.7603 46.8933 -71.1686 255 255 255
26.0915 50.65 -70.6027 255 255 255
28.9944 54.7421 -69.9985 255 255 255
31.4055 59.1332 -69.3965 255 255 255
33.2444 63.8038 -68.892 255 255 255
34.4892 68.6484 -68.3378 255 255 255
35.0601 73.5689 -67.8188 255 255 255
35.0059 78.5255 -67.3517 255 255 255
34.4539 83.4488 -66.9245 255 255 255
33.2764 88.2568 -66.4651 255 255 255
31.5918 92.9184 -66.0666 255 255 255
29.362 97.3125 -65.7782 255 255 255
26.6496 101.391 -65.6099 255 255 255
23.4078 105.051 -65.5514 255 255 255
19.8013 108.335 -65.5947 255 255 255
15.7948 111.085 -65.6852 255 255 255
11.5064 113.326 -65.8071 255 255 255
7.00749 115.056 -66.0017 255 255 255
2.33037 116.16 -66.2224 255 255 255
-2.44951 116.702 -66.4798 255 255 255
-7.22488 116.608 -66.8681 255 255 255
-11.945 115.948 -67.2149 255 255 255
-16.5094 114.635 -67.64 255 255 255
-20.8567 112.786 -68.1124 255 255 255
-24.8795 110.369 -68.5953 255 255 255
-28.5292 107.445 -69.1694 255 255 255
-31.7778 104.07 -69.7531 255 255 255
-34.622 100.396 -70.378 255 255 255
-36.8984 96.3557 -70.9787 255 255 255
-38.6254 92.0745 -71.6311 255 255 255
-39.8325 87.6506 -72.3168 255 255 255
-40.4339 83.1009 -72.9747 255 255 255
-40.498 78.5324 -73.6218 255 255 255
-39.9622 73.9962 -74.1955 255 255 255
-38.8443 69.5781 -74.7176 255 255 255
-37.2273 65.3277 -75.216 255 255 255
-35.1565 61.2875 -75.6101 255 255 255
-32.641 57.5163 -75.9196 255 255 255
-29.6978 54.0546 -76.1018 255 255 255
-26.3813 51.0068 -76.1516 255 255 255
-22.7123 48.4156 -76.1341 255 255 255
-18.7248 46.3367 -76.0716 255 255 255
-14.5408 44.805 -75.8463 255 255 255
-10.2024 43.8318 -75.5975 255 255 255
-5.78369 43.4854 -75.2088 255 255 255
-1.38644 43.6157 -74.7133 255 255 255
2.94325 44.2461 -74.1039 255 255 255
7.12833 45.4035 -73.4025 255 255 255
11.1082 47.1183 -72.7062 255 255 255
14.8275 49.2965 -71.9038 255 255 255
18.2439 51.8694 -71.1101 255 255 255
21.3393 54.8339 -70.3794 255 255 255
24.0247 58.1524 -69.7435 255 255 255
26.2777 61.7792 -69.1045 255 255 255
28.0245 65.6486 -68.5743 255 255 255
29.2925 69.7422 -68.0985 255 255 255
30.0597 73.9373 -67.7389 255 255 255
30.3055 78.1564 -67.4735 255 255 255
29.9981 82.3778 -67.3117 255 255 255
29.2425 86.5366 -67.2212 255 255 255
28.055 90.5707 -67.2366 255 255 255
26.349 94.3964 -67.3216 255 255 255
24.1786 97.9671 -67.4962 255 255 255
21.5982 101.221 -67.8035 255 255 255
18.6873 104.147 -68.2182 255 255 255
15.4769 106.688 -68.7593 255 255 255
12.0091 108.782 -69.4337 255 255 255
8.34746 110.464 -70.212 255 255 255
4.53927 111.669 -70.9696 255 255 255
0.645388 112.434 -71.8399 255 255 255
-3.29016 112.716 -72.7243 255 255 255
-7.18379 112.424 -73.7098 255 255 255
-11.0046 111.704 -74.7289 255 255 255
-14.7081 110.444 -75.6748 255 255 255
-18.1957 108.714 -76.6092 255 255 255
-21.3759 106.526 -77.5081 255 255 255
-24.2404 103.904 -78.3398 255 255 255
-26.7544 100.956 -79.15 255 255 255
-28.8815 97.7554 -79.8505 255 255 255
-30.5755 94.2762 -80.5291 255 255 255
-31.6894 90.5916 -81.2104 255 255 255
-32.3383 86.7824 -81.7327 255 255 255
-32.4552 82.945 -82.0841 255 255 255
-32.0754 79.1088 -82.3322 255 255 255
-31.2334 75.3563 -82.4003 255 255 255
-29.9832 71.715 -82.3888 255 255 255
-28.2932 68.2817 -82.2442 255 255 255
-26.1927 65.1321 -81.9767 255 255 255
-23.6566 62.3433 -81.6538 255 255 255
-20.8722 59.8494 -81.2268 255 255 255
-17.8099 57.7206 -80.7936 255 255 255
-14.486 56.0416 -80.2828 255 255 255
-11.0449 54.7998 -79.7023 255 255 255
-7.46679 54.0171 -79.1127 255 255 255
-3.86045 53.6814 -78.4322 255 255 255
-0.260097 53.8632 -77.6693 255 255 255
3.28617 54.5206 -76.9669 255 255 255
6.70358 55.6506 -76.2744 255 255 255
9.88719 57.2508 -75.5986 255 255 255
12.8518 59.2216 -74.8941 255 255 255
15.5343 61.5627 -74.2621 255 255 255
17.9494 64.1629 -73.7401 255 255 255
20.0105 67.0477 -73.2245 255 255 255
21.7175 70.1544 -72.8427 255 255 255
22.9979 73.4381 -72.4773 255 255 255
23.887 76.853 -72.226 255 255 255
24.3429 80.3485 -72.1281 255 255 255
24.295 83.8584 -72.1009 255 255 255
23.7932 87.301 -72.1058 255 255 255
22.8945 90.6536 -72.1925 255 255 255
21.5875 93.8389 -72.3948 255 255 255
19.8538 96.7894 -72.6569 255 255 255
17.8023 99.4928 -73.0552 255 255 255
15.4587 101.931 -73.5097 255 255 255
12.8239 104.016 -73.9604 255 255 255
9.95208 105.734 -74.4658 255 255 255
6.90332 107.035 -74.978 255 255 255
3.70723 107.94 -75.4922 255 255 255
0.433684 108.38 -76.0542 255 255 255
-2.84573 108.409 -76.5591 255 255 255
-6.08747 107.996 -77.0788 255 255 255
-9.22542 107.175 -77.6171 255 255 255
-12.2355 105.942 -78.1013 255 255 255
-15.0402 104.36 -78.6485 255 255 255
-17.5729 102.412 -79.1705 255 255 255
-19.7917 100.145 -79.6747 255 255 255
-21.626 97.5727 -80.1568 255 255 255
-23.1514 94.8212 -80.6377 255 255 255
-24.3725 91.9272 -81.1348 255 255 255
-25.1657 88.8997 -81.6132 255 255 255
-25.5602 85.7833 -81.9736 255 255 255
-25.5967 82.6911 -82.2995 255 255 255
-25.2493 79.6026 -82.547 255 255 255
-24.5325 76.5873 -82.6437 255 255 255
-23.4846 73.695 -82.6971 255 255 255
-22.0894 70.9734 -82.6472 255 255 255
-20.3554 68.4765 -82.5333 255 255 255
-18.3631 66.2029 -82.2509 255 255 255
-16.1342 64.1869 -81.8564 255 255 255
-13.6775 62.5346 -81.3809 255 255 255
-11.0756 61.142 -80.8794 255 255 255
-8.33065 60.0886 -80.3411 255 255 255
-5.53539 59.3435 -79.7354 255 255 255
-2.69173 58.9491 -79.0252 255 255 255
0.146304 58.9358 -78.2345 255 255 255
2.90553 59.2531 -77.4137 255 255 255
5.58377 59.9525 -76.5728 255 255 255
8.16668 60.9783 -75.6842 255 255 255
10.5299 62.3168 -74.8103 255 255 255
12.6969 63.9191 -73.8966 255 255 255
14.6533 65.7748 -73.0256 255 255 255
16.4008 67.8787 -72.2201 255 255 255
17.8624 70.1712 -71.5068 255 255 255
19.0379 72.6347 -70.8643 255 255 255
19.8948 75.2363 -70.3071 255 255 255
20.4135 77.9024 -69.8494 255 255 255
20.6408 80.6064 -69.4647 255 255 255
20.6008 83.3239 -69.2068 255 255 255
20.1963 86.0133 -69.0511 255 255 255
19.4647 88.6017 -69.1158 255 255 255
18.442 91.0872 -69.2515 255 255 255
17.1607 93.4333 -69.5087 255 255 255
15.6158 95.5739 -69.8487 255 255 255
13.8392 97.4884 -70.2508 255 255 255
11.9024 99.166 -70.7436 255 255 255
9.77736 100.579 -71.3254 255 255 255
7.52488 101.717 -71.9382 255 255 255
5.18838 102.551 -72.6102 255 255 255
2.77348 103.056 -73.3124 255 255 255
0.32947 103.215 -74.0326 255 255 255
-2.08485 103.012 -74.7948 255 255 255
-4.44338 102.499 -75.5325 255 255 255
-6.68437 101.641 -76.2927 255 255 255
-8.8035 100.564 -77.039 255 255 255
-10.743 99.2078 -77.7603 255 255 255
-12.5012 97.6191 -78.3965 255 255 255
-14.0561 95.8257 -78.9713 255 255 255
-15.3649 93.8528 -79.4981 255 255 255
-16.4268 91.7356 -79.9643 255 255 255
-17.1425 89.4888 -80.3937 255 255 255
-17.5933 87.1855 -80.76 255 255 255
-17.778 84.8455 -81.0516 255 255 255
-17.7146 82.5039 -81.2715 255 255 255
-17.3982 80.188 -81.3762 255 255 255
-16.7837 77.9556 -81.3542 255 255 255
-15.8977 75.8411 -81.2699 255 255 255
-14.7614 73.8579 -81.0883 255 255 255
-13.3658 72.1026 -80.8541 255 255 255
-11.7524 70.5408 -80.54 255 255 255
-9.98841 69.2185 -80.1689 255 255 255
-8.09872 68.1365 -79.7152 255 255 255
-6.08879 67.3473 -79.2221 255 255 255
-4.03612 66.8359 -78.662 255 255 255
-1.96019 66.5644 -78.0942 255 255 255
0.123395 66.5253 -77.4869 255 255 255
2.15927 66.7461 -76.8716 255 255 255
4.12764 67.2587 -76.2137 255 255 255
5.97479 68.0356 -75.5435 255 255 255
7.70285 69.054 -74.9229 255 255 255
9.29764 70.2722 -74.3682 255 255 255
10.7289 71.6989 -73.8505 255 255 255
11.9861 73.2554 -73.383 255 255 255
13.0146 74.9601 -72.9443 255 255 255
13.8158 76.7634 -72.5488 255 255 255
14.4206 78.643 -72.2219 255 255 255
14.813 80.5836 -71.9247 255 255 255
14.9429 82.5401 -71.6704 255 255 255
14.8207 84.4805 -71.5128 255 255 255
14.4842 86.4106 -71.4464 255 255 255
13.9284 88.2565 -71.4421 255 255 255
13.185 90.021 -71.5717 255 255 255
12.2859 91.6839 -71.7605 255 255 255
11.1689 93.1739 -71.9907 255 255 255
9.87288 94.503 -72.2834 255 255 255
8.42904 95.6318 -72.6452 255 255 255
6.89127 96.5327 -73.0642 255 255 255
5.26822 97.2376 -73.5244 255 255 255
3.60731 97.7134 -74.02 255 255 255
1.90867 97.9648 -74.5537 255 255 255
0.210223 97.9486 -75.0886 255 255 255
-1.44946 97.723 -75.6187 255 255 255
-3.05571 97.2714 -76.1636 255 255 255
-4.55784 96.5868 -76.7091 255 255 255
-5.92443 95.713 -77.235 255 255 255
-7.15447 94.6639 -77.7159 255 255 255
-8.24349 93.4601 -78.1617 255 255 255
-9.13597 92.1192 -78.5341 255 255 255
-9.89049 90.6844 -78.8391 255 255 255
-10.4144 89.1549 -79.0626 255 255 255
-10.7121 87.5905 -79.2301 255 255 255
-10.8368 85.9986 -79.3536 255 255 255
-10.7588 84.4222 -79.4055 255 255 255
-10.4682 82.8733 -79.4069 255 255 255
-9.98317 81.3833 -79.3496 255 255 255
-9.33947 79.9948 -79.2609 255 255 255
-8.48653 78.7289 -79.1353 255 255 255
-7.53114 77.5861 -78.9417 255 255 255
-6.46397 76.5606 -78.7163 255 255 255
-5.30235 75.6903 -78.4377 255 255 255
-4.0326 75.026 -78.1325 255 255 255
-2.72996 74.5026 -77.7776 255 255 255
-1.39208 74.1698 -77.3815 255 255 255
-0.0281709 74.0213 -77.0104 255 255 255
1.31067 74.0693 -76.6069 255 255 255
2.6026 74.2778 -76.2069 255 255 255
3.84353 74.6645 -75.7804 255 255 255
5.00024 75.1994 -75.3469 255 255 255
6.09334 75.8736 -74.9216 255 255 255
7.09113 76.6494 -74.5315 255 255 255
7.96269 77.5507 -74.188 255 255 255
8.72028 78.5392 -73.8485 255 255 255
9.32411 79.6199 -73.5339 255 255 255
9.77089 80.7653 -73.2592 255 255 255
10.0827 81.944 -73.0074 255 255 255
10.2229 83.1586 -72.7976 255 255 255
10.1996 84.3641 -72.6692 255 255 255
10.0788 85.56 -72.567 255 255 255
9.81967 86.702 -72.5242 255 255 255
9.42223 87.7813 -72.5039 255 255 255
8.87801 88.8027 -72.5448 255 255 255
8.2644 89.776 -72.6134 255 255 255
7.56232 90.6334 -72.7527 255 255 255
6.75376 91.3833 -72.9161 255 255 255
5.88571 92.0031 -73.0817 255 255 255
4.98444 92.5487 -73.2971 255 255 255
4.0185 92.9509 -73.5187 255 255 255
3.06 93.2172 -73.7495 255 255 255
2.08262 93.3462 -74.021 255 255 255
1.10903 93.348 -74.2981 255 255 255
0.178998 93.2114 -74.5855 255 255 255
-0.721253 92.9656 -74.8712 255 255 255
-1.55529 92.602 -75.1694 255 255 255
-2.33736 92.1386 -75.4378 255 255 255
-3.03732 91.6089 -75.7046 255 255 255
-3.6681 91.0054 -75.945 255 255 255
-4.17643 90.3268 -76.1758 255 255 255
-4.59203 89.5663 -76.4087 255 255 255
-4.92675 88.7732 -76.5957 255 255 255
-5.14587 87.964 -76.7552 255 255 255
-5.26838 87.1351 -76.9067 255 255 255
-5.28585 86.333 -77.0472 255 255 255
-5.2008 85.5356 -77.1247 255 255 255
-5.04515 84.7642 -77.1881 255 255 255
-4.80371 84.017 -77.2381 255 255 255
-4.47629 83.3568 -77.2553 255 255 255
-4.06156 82.7457 -77.2347 255 255 255
-3.57021 82.1907 -77.2184 255 255 255
-3.04844 81.7131 -77.1659 255 255 255
-2.49953 81.2997 -77.0803 255 255 255
-1.9205 80.9773 -76.9843 255 255 255
-1.31891 80.7435 -76.8766 255 255 255
-0.702894 80.5869 -76.7385 255 255 255
-0.0654573 80.5149 -76.6002 255 255 255
0.552218 80.527 -76.4519 255 255 255
1.13324 80.5955 -76.3058 255 255 255
1.69084 80.7668 -76.1597 255 255 255
2.20306 81.0097 -76.0396 255 255 255
2.63649 81.3013 -75.9327 255 255 255
3.02299 81.6629 -75.8063 255 255 255
3.35977 82.0503 -75.6877 255 255 255
3.63709 82.4631 -75.5871 255 255 255
3.85785 82.9212 -75.4971 255 255 255
3.99894 83.3694 -75.4279 255 255 255
4.08332 83.8219 -75.3454 255 255 255
4.13013 84.2742 -75.3078 255 255 255
4.11613 84.7015 -75.2696 255 255 255
4.03921 85.12 -75.2357 255 255 255
3.90965 85.5033 -75.2053 255 255 255
3.73257 85.8449 -75.2224 255 255 255
3.52195 86.1569 -75.2349 255 255 255
3.28543 86.4244 -75.289 255 255 255
3.02811 86.6474 -75.3392 255 255 255
2.76476 86.8274 -75.3965 255 255 255
2.47653 86.9497 -75.4397 255 255 255
2.19609 87.0095 -75.5159 255 255 255
1.92237 87.0442 -75.5848 255 255 255
1.63343 87.0333 -75.6468 255 255 255
1.39569 86.9716 -75.7185 255 255 255
1.15474 86.9122 -75.7931 255 255 255
0.965465 86.8094 -75.8648 255 255 255
0.791007 86.6828 -75.9313 255 255 255
0.655638 86.5262 -75.9852 255 255 255
0.576149 86.3565 -76.0466 255 255 255
0.525207 86.1889 -76.0895 255 255 255
0.490133 86.016 -76.1142 255 255 255
0.494886 85.839 -76.1233 255 255 255
0.529373 85.6849 -76.1334 255 255 255
0.602277 85.5597 -76.1359 255 255 255
0.693766 85.4427 -76.1338 255 255 255
0.796386 85.3713 -76.1324 255 255 255
0.911804 85.3343 -76.0976 255 255 255
1.0318 85.323 -76.0615 255 255 255
